<svg version="1.1" viewBox="0.0 0.0 1134.3202099737532 392.18110236220474" fill="none" stroke="none" stroke-linecap="square" stroke-miterlimit="10" xmlns:xlink="http://www.w3.org/1999/xlink" xmlns="http://www.w3.org/2000/svg"><clipPath id="p.0"><path d="m0 0l1134.3202 0l0 392.1811l-1134.3202 0l0 -392.1811z" clip-rule="nonzero"/></clipPath><g clip-path="url(#p.0)"><path fill="#000000" fill-opacity="0.0" d="m0 0l1134.3202 0l0 392.1811l-1134.3202 0z" fill-rule="evenodd"/><path fill="#93c47d" d="m42.408142 174.80786l0 0c0 -5.913666 4.793968 -10.707642 10.70763 -10.707642l127.98268 0c2.8398285 0 5.5633698 1.128128 7.5714264 3.1362c2.008072 2.008072 3.1362 4.731598 3.1362 7.5714417l0 42.82924c0 5.9136505 -4.793976 10.707626 -10.707626 10.707626l-127.98268 0c-5.913662 0 -10.70763 -4.793976 -10.70763 -10.707626z" fill-rule="evenodd"/><path stroke="#000000" stroke-width="1.0" stroke-linejoin="round" stroke-linecap="butt" d="m42.408142 174.80786l0 0c0 -5.913666 4.793968 -10.707642 10.70763 -10.707642l127.98268 0c2.8398285 0 5.5633698 1.128128 7.5714264 3.1362c2.008072 2.008072 3.1362 4.731598 3.1362 7.5714417l0 42.82924c0 5.9136505 -4.793976 10.707626 -10.707626 10.707626l-127.98268 0c-5.913662 0 -10.70763 -4.793976 -10.70763 -10.707626z" fill-rule="evenodd"/><path fill="#000000" fill-opacity="0.0" d="m117.10629 303.85892l0 -75.52756" fill-rule="evenodd"/><path stroke="#000000" stroke-width="3.0" stroke-linejoin="round" stroke-linecap="butt" d="m117.1063 303.85892l0 -57.527557" fill-rule="evenodd"/><path fill="#000000" stroke="#000000" stroke-width="3.0" stroke-linecap="butt" d="m122.06149 246.33136l-4.9551926 -13.614288l-4.9552 13.614288z" fill-rule="evenodd"/><path fill="#000000" fill-opacity="0.0" d="m62.838577 303.85892l108.53543 0l0 64.25198l-108.53543 0z" fill-rule="evenodd"/><path stroke="#000000" stroke-width="3.0" stroke-linejoin="round" stroke-linecap="butt" d="m62.838577 303.85892l108.53543 0l0 64.25198l-108.53543 0z" fill-rule="evenodd"/><path fill="#000000" d="m72.798805 345.5849l4.984375 -7.125l-4.78125 -6.703125l4.46875 0l2.453125 3.8125l2.578125 -3.8125l4.28125 0l-4.671875 6.546875l5.109375 7.28125l-4.484375 0l-2.8125 -4.28125l-2.84375 4.28125l-4.28125 0z" fill-rule="nonzero"/><path fill="#000000" d="m92.34249 322.81927q1.84375 0 2.890625 1.3125q1.234375 1.5625 1.234375 5.1875q0 3.609375 -1.25 5.1875q-1.03125 1.296875 -2.875 1.296875q-1.859375 0 -3.0 -1.421875q-1.125 -1.4375 -1.125 -5.09375q0 -3.59375 1.25 -5.171875q1.03125 -1.296875 2.875 -1.296875zm0 2.015625q-0.4375 0 -0.796875 0.28125q-0.34375 0.28125 -0.53125 1.015625q-0.25 0.9375 -0.25 3.1875q0 2.234375 0.21875 3.078125q0.234375 0.828125 0.578125 1.109375q0.34375 0.28125 0.78125 0.28125q0.4375 0 0.78125 -0.28125q0.359375 -0.296875 0.546875 -1.015625q0.25 -0.9375 0.25 -3.171875q0 -2.25 -0.234375 -3.078125q-0.21875 -0.84375 -0.5625 -1.125q-0.34375 -0.28125 -0.78125 -0.28125z" fill-rule="nonzero"/><path fill="#000000" d="m99.175865 341.92865l3.65625 0l0 2.609375q0 1.59375 -0.28125 2.5q-0.265625 0.921875 -1.03125 1.65625q-0.765625 0.734375 -1.9375 1.140625l-0.71875 -1.5q1.109375 -0.375 1.578125 -1.015625q0.46875 -0.625 0.5 -1.734375l-1.765625 0l0 -3.65625zm5.734085 3.65625l4.984375 -7.125l-4.78125 -6.703125l4.46875 0l2.453125 3.8125l2.578125 -3.8125l4.28125 0l-4.671875 6.546875l5.109375 7.28125l-4.484375 0l-2.8125 -4.28125l-2.84375 4.28125l-4.28125 0z" fill-rule="nonzero"/><path fill="#000000" d="m126.56301 335.5849l-2.4375 0l0 -9.1875q-1.328125 1.25 -3.140625 1.84375l0 -2.203125q0.953125 -0.3125 2.0625 -1.1875q1.125 -0.875 1.546875 -2.03125l1.96875 0l0 12.765625z" fill-rule="nonzero"/><path fill="#000000" d="m131.28702 341.92865l3.65625 0l0 2.609375q0 1.59375 -0.28125 2.5q-0.265625 0.921875 -1.03125 1.65625q-0.765625 0.734375 -1.9375 1.140625l-0.71875 -1.5q1.109375 -0.375 1.578125 -1.015625q0.46875 -0.625 0.5 -1.734375l-1.765625 0l0 -3.65625zm5.734085 3.65625l4.984375 -7.125l-4.78125 -6.703125l4.46875 0l2.453125 3.8125l2.578125 -3.8125l4.28125 0l-4.671875 6.546875l5.109375 7.28125l-4.484375 0l-2.8125 -4.28125l-2.84375 4.28125l-4.28125 0z" fill-rule="nonzero"/><path fill="#000000" d="m160.67416 333.31927l0 2.265625l-8.546875 0q0.140625 -1.28125 0.828125 -2.421875q0.703125 -1.15625 2.75 -3.0625q1.65625 -1.53125 2.015625 -2.078125q0.515625 -0.75 0.515625 -1.5q0 -0.8125 -0.4375 -1.25q-0.4375 -0.4375 -1.21875 -0.4375q-0.765625 0 -1.21875 0.46875q-0.4375 0.453125 -0.515625 1.515625l-2.421875 -0.234375q0.21875 -2.015625 1.359375 -2.890625q1.140625 -0.875 2.859375 -0.875q1.875 0 2.953125 1.015625q1.078125 1.015625 1.078125 2.515625q0 0.859375 -0.3125 1.640625q-0.296875 0.78125 -0.96875 1.625q-0.4375 0.5625 -1.59375 1.625q-1.15625 1.0625 -1.46875 1.40625q-0.296875 0.34375 -0.5 0.671875l4.84375 0z" fill-rule="nonzero"/><path fill="#000000" fill-opacity="0.0" d="m117.10711 164.10022l0 -62.519684" fill-rule="evenodd"/><path stroke="#000000" stroke-width="3.0" stroke-linejoin="round" stroke-linecap="butt" d="m117.10711 164.10022l0 -44.519684" fill-rule="evenodd"/><path fill="#000000" stroke="#000000" stroke-width="3.0" stroke-linecap="butt" d="m122.06231 119.580536l-4.9552 -13.614296l-4.9552 13.614296z" fill-rule="evenodd"/><path fill="#000000" fill-opacity="0.0" d="m84.96904 69.47171l0 0c0 -17.740631 14.388702 -32.122253 32.13807 -32.122253l0 0c8.523544 0 16.69799 3.3843002 22.725044 9.40839c6.027054 6.02409 9.413025 14.194511 9.413025 22.713863l0 0c0 17.740631 -14.388702 32.122253 -32.13807 32.122253l0 0c-17.749367 0 -32.13807 -14.381622 -32.13807 -32.122253z" fill-rule="evenodd"/><path stroke="#000000" stroke-width="3.0" stroke-linejoin="round" stroke-linecap="butt" d="m84.96904 69.47171l0 0c0 -17.740631 14.388702 -32.122253 32.13807 -32.122253l0 0c8.523544 0 16.69799 3.3843002 22.725044 9.40839c6.027054 6.02409 9.413025 14.194511 9.413025 22.713863l0 0c0 17.740631 -14.388702 32.122253 -32.13807 32.122253l0 0c-17.749367 0 -32.13807 -14.381622 -32.13807 -32.122253z" fill-rule="evenodd"/><path fill="#000000" d="m104.94202 65.24358l3.890625 0l3.296875 9.8125l3.234375 -9.8125l3.78125 0l-4.875 13.3125l-0.875 2.40625q-0.484375 1.203125 -0.921875 1.84375q-0.4375 0.640625 -1.0 1.03125q-0.5625 0.40625 -1.390625 0.625q-0.828125 0.21875 -1.859375 0.21875q-1.0625 0 -2.078125 -0.21875l-0.328125 -2.859375q0.859375 0.15625 1.546875 0.15625q1.28125 0 1.890625 -0.75q0.609375 -0.734375 0.9375 -1.90625l-5.25 -13.859375z" fill-rule="nonzero"/><path fill="#000000" d="m120.25133 65.69671l2.359375 -0.28125q0.109375 0.890625 0.59375 1.375q0.5 0.484375 1.203125 0.484375q0.765625 0 1.28125 -0.578125q0.515625 -0.578125 0.515625 -1.546875q0 -0.921875 -0.5 -1.453125q-0.5 -0.546875 -1.203125 -0.546875q-0.46875 0 -1.125 0.1875l0.265625 -1.984375q1.0 0.03125 1.515625 -0.421875q0.515625 -0.46875 0.515625 -1.21875q0 -0.640625 -0.390625 -1.015625q-0.375 -0.390625 -1.0 -0.390625q-0.625 0 -1.078125 0.4375q-0.4375 0.4375 -0.53125 1.265625l-2.25 -0.390625q0.234375 -1.140625 0.703125 -1.828125q0.484375 -0.703125 1.328125 -1.09375q0.84375 -0.390625 1.890625 -0.390625q1.796875 0 2.890625 1.140625q0.890625 0.9375 0.890625 2.125q0 1.671875 -1.828125 2.671875q1.09375 0.234375 1.734375 1.046875q0.65625 0.8125 0.65625 1.96875q0 1.671875 -1.21875 2.859375q-1.21875 1.171875 -3.046875 1.171875q-1.71875 0 -2.859375 -0.984375q-1.140625 -1.0 -1.3125 -2.609375z" fill-rule="nonzero"/><path fill="#93c47d" fill-opacity="0.8667" d="m342.0715 174.8091l0 0c0 -5.9143524 4.794525 -10.708878 10.708893 -10.708878l127.96805 0c2.8401794 0 5.564026 1.1282501 7.5723267 3.1365662c2.0083008 2.0083008 3.1365662 4.732147 3.1365662 7.5723114l0 42.834213c0 5.9143524 -4.794525 10.708878 -10.708893 10.708878l-127.96805 0c-5.9143677 0 -10.708893 -4.794525 -10.708893 -10.708878z" fill-rule="evenodd"/><path stroke="#000000" stroke-width="1.0" stroke-linejoin="round" stroke-linecap="butt" d="m342.0715 174.8091l0 0c0 -5.9143524 4.794525 -10.708878 10.708893 -10.708878l127.96805 0c2.8401794 0 5.564026 1.1282501 7.5723267 3.1365662c2.0083008 2.0083008 3.1365662 4.732147 3.1365662 7.5723114l0 42.834213c0 5.9143524 -4.794525 10.708878 -10.708893 10.708878l-127.96805 0c-5.9143677 0 -10.708893 -4.794525 -10.708893 -10.708878z" fill-rule="evenodd"/><path fill="#000000" fill-opacity="0.0" d="m416.76965 303.85892l0 -75.49606" fill-rule="evenodd"/><path stroke="#000000" stroke-width="3.0" stroke-linejoin="round" stroke-linecap="butt" d="m416.76965 303.85892l0 -57.496063" fill-rule="evenodd"/><path fill="#000000" stroke="#000000" stroke-width="3.0" stroke-linecap="butt" d="m421.72485 246.36285l-4.9552 -13.614288l-4.9552 13.614288z" fill-rule="evenodd"/><path fill="#000000" fill-opacity="0.0" d="m362.50195 303.85892l108.53543 0l0 64.25198l-108.53543 0z" fill-rule="evenodd"/><path stroke="#000000" stroke-width="3.0" stroke-linejoin="round" stroke-linecap="butt" d="m362.50195 303.85892l108.53543 0l0 64.25198l-108.53543 0z" fill-rule="evenodd"/><path fill="#000000" d="m372.46216 345.5849l4.984375 -7.125l-4.78125 -6.703125l4.46875 0l2.453125 3.8125l2.578125 -3.8125l4.28125 0l-4.671875 6.546875l5.109375 7.28125l-4.484375 0l-2.8125 -4.28125l-2.84375 4.28125l-4.28125 0z" fill-rule="nonzero"/><path fill="#000000" d="m394.11523 335.5849l-2.4375 0l0 -9.1875q-1.328125 1.25 -3.140625 1.84375l0 -2.203125q0.953125 -0.3125 2.0625 -1.1875q1.125 -0.875 1.546875 -2.03125l1.96875 0l0 12.765625z" fill-rule="nonzero"/><path fill="#000000" d="m398.83923 341.92865l3.65625 0l0 2.609375q0 1.59375 -0.28125 2.5q-0.265625 0.921875 -1.03125 1.65625q-0.765625 0.734375 -1.9375 1.140625l-0.71875 -1.5q1.109375 -0.375 1.578125 -1.015625q0.46875 -0.625 0.5 -1.734375l-1.765625 0l0 -3.65625zm5.73407 3.65625l4.984375 -7.125l-4.78125 -6.703125l4.46875 0l2.453125 3.8125l2.578125 -3.8125l4.28125 0l-4.671875 6.546875l5.109375 7.28125l-4.484375 0l-2.8125 -4.28125l-2.84375 4.28125l-4.28125 0z" fill-rule="nonzero"/><path fill="#000000" d="m428.22638 333.31927l0 2.265625l-8.546875 0q0.140625 -1.28125 0.828125 -2.421875q0.703125 -1.15625 2.75 -3.0625q1.65625 -1.53125 2.015625 -2.078125q0.515625 -0.75 0.515625 -1.5q0 -0.8125 -0.4375 -1.25q-0.4375 -0.4375 -1.21875 -0.4375q-0.765625 0 -1.21875 0.46875q-0.4375 0.453125 -0.515625 1.515625l-2.421875 -0.234375q0.21875 -2.015625 1.359375 -2.890625q1.140625 -0.875 2.859375 -0.875q1.875 0 2.953125 1.015625q1.078125 1.015625 1.078125 2.515625q0 0.859375 -0.3125 1.640625q-0.296875 0.78125 -0.96875 1.625q-0.4375 0.5625 -1.59375 1.625q-1.15625 1.0625 -1.46875 1.40625q-0.296875 0.34375 -0.5 0.671875l4.84375 0z" fill-rule="nonzero"/><path fill="#000000" d="m430.95038 341.92865l3.65625 0l0 2.609375q0 1.59375 -0.28125 2.5q-0.265625 0.921875 -1.03125 1.65625q-0.765625 0.734375 -1.9375 1.140625l-0.71875 -1.5q1.109375 -0.375 1.578125 -1.015625q0.46875 -0.625 0.5 -1.734375l-1.765625 0l0 -3.65625zm5.76532 -10.171875l3.890625 0l3.296875 9.8125l3.234375 -9.8125l3.78125 0l-4.875 13.3125l-0.875 2.40625q-0.484375 1.203125 -0.921875 1.84375q-0.4375 0.640625 -1.0 1.03125q-0.5625 0.40625 -1.390625 0.625q-0.828125 0.21875 -1.859375 0.21875q-1.0625 0 -2.078125 -0.21875l-0.328125 -2.859375q0.859375 0.15625 1.546875 0.15625q1.28125 0 1.890625 -0.75q0.609375 -0.734375 0.9375 -1.90625l-5.25 -13.859375z" fill-rule="nonzero"/><path fill="#000000" d="m452.02502 332.2099l2.359375 -0.28125q0.109375 0.890625 0.59375 1.375q0.5 0.484375 1.203125 0.484375q0.765625 0 1.28125 -0.578125q0.515625 -0.578125 0.515625 -1.546875q0 -0.921875 -0.5 -1.453125q-0.5 -0.546875 -1.203125 -0.546875q-0.46875 0 -1.125 0.1875l0.265625 -1.984375q1.0 0.03125 1.515625 -0.421875q0.515625 -0.46875 0.515625 -1.21875q0 -0.640625 -0.390625 -1.015625q-0.375 -0.390625 -1.0 -0.390625q-0.625 0 -1.078125 0.4375q-0.4375 0.4375 -0.53125 1.265625l-2.25 -0.390625q0.234375 -1.140625 0.703125 -1.828125q0.484375 -0.703125 1.328125 -1.09375q0.84375 -0.390625 1.890625 -0.390625q1.796875 0 2.890625 1.140625q0.890625 0.9375 0.890625 2.125q0 1.671875 -1.828125 2.671875q1.09375 0.234375 1.734375 1.046875q0.65625 0.8125 0.65625 1.96875q0 1.671875 -1.21875 2.859375q-1.21875 1.171875 -3.046875 1.171875q-1.71875 0 -2.859375 -0.984375q-1.140625 -1.0 -1.3125 -2.609375z" fill-rule="nonzero"/><path fill="#000000" fill-opacity="0.0" d="m416.76443 164.10022l0 -62.488182" fill-rule="evenodd"/><path stroke="#000000" stroke-width="3.0" stroke-linejoin="round" stroke-linecap="butt" d="m416.76443 164.10022l0 -44.48819" fill-rule="evenodd"/><path fill="#000000" stroke="#000000" stroke-width="3.0" stroke-linecap="butt" d="m421.71964 119.61203l-4.9552 -13.614296l-4.9552 13.614296z" fill-rule="evenodd"/><path fill="#000000" fill-opacity="0.0" d="m384.63242 69.47544l0 0c0 -17.742691 14.39035 -32.125984 32.141724 -32.125984l0 0c8.524506 0 16.69989 3.3846931 22.72763 9.409485c6.0277405 6.024788 9.414093 14.196159 9.414093 22.7165l0 0c0 17.742691 -14.39032 32.125984 -32.141724 32.125984l0 0c-17.751373 0 -32.141724 -14.383293 -32.141724 -32.125984z" fill-rule="evenodd"/><path stroke="#000000" stroke-width="3.0" stroke-linejoin="round" stroke-linecap="butt" d="m384.63242 69.47544l0 0c0 -17.742691 14.39035 -32.125984 32.141724 -32.125984l0 0c8.524506 0 16.69989 3.3846931 22.72763 9.409485c6.0277405 6.024788 9.414093 14.196159 9.414093 22.7165l0 0c0 17.742691 -14.39032 32.125984 -32.141724 32.125984l0 0c-17.751373 0 -32.141724 -14.383293 -32.141724 -32.125984z" fill-rule="evenodd"/><path fill="#000000" d="m404.60904 65.247314l3.890625 0l3.296875 9.8125l3.234375 -9.8125l3.78125 0l-4.875 13.3125l-0.875 2.40625q-0.484375 1.203125 -0.921875 1.84375q-0.4375 0.640625 -1.0 1.03125q-0.5625 0.40625 -1.390625 0.625q-0.828125 0.21875 -1.859375 0.21875q-1.0625 0 -2.078125 -0.21875l-0.328125 -2.859375q0.859375 0.15625 1.546875 0.15625q1.28125 0 1.890625 -0.75q0.609375 -0.734375 0.9375 -1.90625l-5.25 -13.859375z" fill-rule="nonzero"/><path fill="#000000" d="m424.77774 69.07544l0 -2.5625l-5.203125 0l0 -2.125l5.515625 -8.078125l2.046875 0l0 8.0625l1.578125 0l0 2.140625l-1.578125 0l0 2.5625l-2.359375 0zm0 -4.703125l0 -4.34375l-2.921875 4.34375l2.921875 0z" fill-rule="nonzero"/><path fill="#93c47d" fill-opacity="0.7333" d="m641.7228 174.8091l0 0c0 -5.9143524 4.7944946 -10.708878 10.708862 -10.708878l127.96808 0c2.840149 0 5.564026 1.1282501 7.5723267 3.1365662c2.0083008 2.0083008 3.1365356 4.732147 3.1365356 7.5723114l0 42.834213c0 5.9143524 -4.7944946 10.708878 -10.708862 10.708878l-127.96808 0c-5.9143677 0 -10.708862 -4.794525 -10.708862 -10.708878z" fill-rule="evenodd"/><path stroke="#000000" stroke-width="1.0" stroke-linejoin="round" stroke-linecap="butt" d="m641.7228 174.8091l0 0c0 -5.9143524 4.7944946 -10.708878 10.708862 -10.708878l127.96808 0c2.840149 0 5.564026 1.1282501 7.5723267 3.1365662c2.0083008 2.0083008 3.1365356 4.732147 3.1365356 7.5723114l0 42.834213c0 5.9143524 -4.7944946 10.708878 -10.708862 10.708878l-127.96808 0c-5.9143677 0 -10.708862 -4.794525 -10.708862 -10.708878z" fill-rule="evenodd"/><path fill="#000000" fill-opacity="0.0" d="m716.4209 303.85892l0 -75.49606" fill-rule="evenodd"/><path stroke="#000000" stroke-width="3.0" stroke-linejoin="round" stroke-linecap="butt" d="m716.42096 303.85892l0 -57.496063" fill-rule="evenodd"/><path fill="#000000" stroke="#000000" stroke-width="3.0" stroke-linecap="butt" d="m721.3761 246.36285l-4.955139 -13.614288l-4.9552 13.614288z" fill-rule="evenodd"/><path fill="#000000" fill-opacity="0.0" d="m662.1532 303.85892l108.53546 0l0 64.25198l-108.53546 0z" fill-rule="evenodd"/><path stroke="#000000" stroke-width="3.0" stroke-linejoin="round" stroke-linecap="butt" d="m662.1532 303.85892l108.53546 0l0 64.25198l-108.53546 0z" fill-rule="evenodd"/><path fill="#000000" d="m672.1134 345.5849l4.984375 -7.125l-4.78125 -6.703125l4.46875 0l2.453125 3.8125l2.578125 -3.8125l4.28125 0l-4.671875 6.546875l5.109375 7.28125l-4.484375 0l-2.8125 -4.28125l-2.84375 4.28125l-4.28125 0z" fill-rule="nonzero"/><path fill="#000000" d="m695.7665 333.31927l0 2.265625l-8.546875 0q0.140625 -1.28125 0.828125 -2.421875q0.703125 -1.15625 2.75 -3.0625q1.65625 -1.53125 2.015625 -2.078125q0.515625 -0.75 0.515625 -1.5q0 -0.8125 -0.4375 -1.25q-0.4375 -0.4375 -1.21875 -0.4375q-0.765625 0 -1.21875 0.46875q-0.4375 0.453125 -0.515625 1.515625l-2.421875 -0.234375q0.21875 -2.015625 1.359375 -2.890625q1.140625 -0.875 2.859375 -0.875q1.875 0 2.953125 1.015625q1.078125 1.015625 1.078125 2.515625q0 0.859375 -0.3125 1.640625q-0.296875 0.78125 -0.96875 1.625q-0.4375 0.5625 -1.59375 1.625q-1.15625 1.0625 -1.46875 1.40625q-0.296875 0.34375 -0.5 0.671875l4.84375 0z" fill-rule="nonzero"/><path fill="#000000" d="m698.4905 341.92865l3.65625 0l0 2.609375q0 1.59375 -0.28125 2.5q-0.265625 0.921875 -1.03125 1.65625q-0.765625 0.734375 -1.9375 1.140625l-0.71875 -1.5q1.109375 -0.375 1.578125 -1.015625q0.46875 -0.625 0.5 -1.734375l-1.765625 0l0 -3.65625zm5.76532 -10.171875l3.890625 0l3.296875 9.8125l3.234375 -9.8125l3.78125 0l-4.875 13.3125l-0.875 2.40625q-0.484375 1.203125 -0.921875 1.84375q-0.4375 0.640625 -1.0 1.03125q-0.5625 0.40625 -1.390625 0.625q-0.828125 0.21875 -1.859375 0.21875q-1.0625 0 -2.078125 -0.21875l-0.328125 -2.859375q0.859375 0.15625 1.546875 0.15625q1.28125 0 1.890625 -0.75q0.609375 -0.734375 0.9375 -1.90625l-5.25 -13.859375z" fill-rule="nonzero"/><path fill="#000000" d="m719.5651 332.2099l2.359375 -0.28125q0.109375 0.890625 0.59375 1.375q0.5 0.484375 1.203125 0.484375q0.765625 0 1.28125 -0.578125q0.515625 -0.578125 0.515625 -1.546875q0 -0.921875 -0.5 -1.453125q-0.5 -0.546875 -1.203125 -0.546875q-0.46875 0 -1.125 0.1875l0.265625 -1.984375q1.0 0.03125 1.515625 -0.421875q0.515625 -0.46875 0.515625 -1.21875q0 -0.640625 -0.390625 -1.015625q-0.375 -0.390625 -1.0 -0.390625q-0.625 0 -1.078125 0.4375q-0.4375 0.4375 -0.53125 1.265625l-2.25 -0.390625q0.234375 -1.140625 0.703125 -1.828125q0.484375 -0.703125 1.328125 -1.09375q0.84375 -0.390625 1.890625 -0.390625q1.796875 0 2.890625 1.140625q0.890625 0.9375 0.890625 2.125q0 1.671875 -1.828125 2.671875q1.09375 0.234375 1.734375 1.046875q0.65625 0.8125 0.65625 1.96875q0 1.671875 -1.21875 2.859375q-1.21875 1.171875 -3.046875 1.171875q-1.71875 0 -2.859375 -0.984375q-1.140625 -1.0 -1.3125 -2.609375z" fill-rule="nonzero"/><path fill="#000000" d="m730.6016 341.92865l3.65625 0l0 2.609375q0 1.59375 -0.28125 2.5q-0.265625 0.921875 -1.03125 1.65625q-0.765625 0.734375 -1.9375 1.140625l-0.71875 -1.5q1.109375 -0.375 1.578125 -1.015625q0.46875 -0.625 0.5 -1.734375l-1.765625 0l0 -3.65625zm5.76532 -10.171875l3.890625 0l3.296875 9.8125l3.234375 -9.8125l3.78125 0l-4.875 13.3125l-0.875 2.40625q-0.484375 1.203125 -0.921875 1.84375q-0.4375 0.640625 -1.0 1.03125q-0.5625 0.40625 -1.390625 0.625q-0.828125 0.21875 -1.859375 0.21875q-1.0625 0 -2.078125 -0.21875l-0.328125 -2.859375q0.859375 0.15625 1.546875 0.15625q1.28125 0 1.890625 -0.75q0.609375 -0.734375 0.9375 -1.90625l-5.25 -13.859375z" fill-rule="nonzero"/><path fill="#000000" d="m756.53564 335.5849l0 -2.5625l-5.203125 0l0 -2.125l5.515625 -8.078125l2.046875 0l0 8.0625l1.578125 0l0 2.140625l-1.578125 0l0 2.5625l-2.359375 0zm0 -4.703125l0 -4.34375l-2.921875 4.34375l2.921875 0z" fill-rule="nonzero"/><path fill="#000000" fill-opacity="0.0" d="m716.41565 164.10022l0 -62.488182" fill-rule="evenodd"/><path stroke="#000000" stroke-width="3.0" stroke-linejoin="round" stroke-linecap="butt" d="m716.4157 164.10022l0 -44.48819" fill-rule="evenodd"/><path fill="#000000" stroke="#000000" stroke-width="3.0" stroke-linecap="butt" d="m721.37085 119.61203l-4.955139 -13.614296l-4.9552 13.614296z" fill-rule="evenodd"/><path fill="#000000" fill-opacity="0.0" d="m684.2837 69.47544l0 0c0 -17.742691 14.39032 -32.125984 32.141724 -32.125984l0 0c8.524475 0 16.69989 3.3846931 22.7276 9.409485c6.027771 6.024788 9.414124 14.196159 9.414124 22.7165l0 0c0 17.742691 -14.390381 32.125984 -32.141724 32.125984l0 0c-17.751404 0 -32.141724 -14.383293 -32.141724 -32.125984z" fill-rule="evenodd"/><path stroke="#000000" stroke-width="3.0" stroke-linejoin="round" stroke-linecap="butt" d="m684.2837 69.47544l0 0c0 -17.742691 14.39032 -32.125984 32.141724 -32.125984l0 0c8.524475 0 16.69989 3.3846931 22.7276 9.409485c6.027771 6.024788 9.414124 14.196159 9.414124 22.7165l0 0c0 17.742691 -14.390381 32.125984 -32.141724 32.125984l0 0c-17.751404 0 -32.141724 -14.383293 -32.141724 -32.125984z" fill-rule="evenodd"/><path fill="#000000" d="m704.2603 65.247314l3.890625 0l3.296875 9.8125l3.234375 -9.8125l3.78125 0l-4.875 13.3125l-0.875 2.40625q-0.484375 1.203125 -0.921875 1.84375q-0.4375 0.640625 -1.0 1.03125q-0.5625 0.40625 -1.390625 0.625q-0.828125 0.21875 -1.859375 0.21875q-1.0625 0 -2.078125 -0.21875l-0.328125 -2.859375q0.859375 0.15625 1.546875 0.15625q1.28125 0 1.890625 -0.75q0.609375 -0.734375 0.9375 -1.90625l-5.25 -13.859375z" fill-rule="nonzero"/><path fill="#000000" d="m719.69464 65.809814l2.421875 -0.25q0.109375 0.8125 0.609375 1.296875q0.515625 0.484375 1.1875 0.484375q0.765625 0 1.28125 -0.609375q0.53125 -0.625 0.53125 -1.875q0 -1.171875 -0.53125 -1.75q-0.515625 -0.59375 -1.359375 -0.59375q-1.046875 0 -1.875 0.921875l-1.984375 -0.28125l1.25 -6.625l6.453125 0l0 2.28125l-4.59375 0l-0.390625 2.15625q0.8125 -0.40625 1.671875 -0.40625q1.625 0 2.75 1.1875q1.125 1.171875 1.125 3.0625q0 1.5625 -0.90625 2.796875q-1.25 1.6875 -3.453125 1.6875q-1.75 0 -2.875 -0.9375q-1.109375 -0.953125 -1.3125 -2.546875z" fill-rule="nonzero"/><path fill="#93c47d" fill-opacity="0.6" d="m941.374 174.8091l0 0c0 -5.9143524 4.7944946 -10.708878 10.708862 -10.708878l127.96814 0c2.840088 0 5.563965 1.1282501 7.5722656 3.1365662c2.0083008 2.0083008 3.1365967 4.732147 3.1365967 7.5723114l0 42.834213c0 5.9143524 -4.7945557 10.708878 -10.708862 10.708878l-127.96814 0c-5.9143677 0 -10.708862 -4.794525 -10.708862 -10.708878z" fill-rule="evenodd"/><path stroke="#000000" stroke-width="1.0" stroke-linejoin="round" stroke-linecap="butt" d="m941.374 174.8091l0 0c0 -5.9143524 4.7944946 -10.708878 10.708862 -10.708878l127.96814 0c2.840088 0 5.563965 1.1282501 7.5722656 3.1365662c2.0083008 2.0083008 3.1365967 4.732147 3.1365967 7.5723114l0 42.834213c0 5.9143524 -4.7945557 10.708878 -10.708862 10.708878l-127.96814 0c-5.9143677 0 -10.708862 -4.794525 -10.708862 -10.708878z" fill-rule="evenodd"/><path fill="#000000" fill-opacity="0.0" d="m1016.0722 303.85892l0 -75.49606" fill-rule="evenodd"/><path stroke="#000000" stroke-width="3.0" stroke-linejoin="round" stroke-linecap="butt" d="m1016.0722 303.85892l0 -57.496063" fill-rule="evenodd"/><path fill="#000000" stroke="#000000" stroke-width="3.0" stroke-linecap="butt" d="m1021.0274 246.36285l-4.9552 -13.614288l-4.9552 13.614288z" fill-rule="evenodd"/><path fill="#000000" fill-opacity="0.0" d="m961.80444 303.85892l108.5354 0l0 64.25198l-108.5354 0z" fill-rule="evenodd"/><path stroke="#000000" stroke-width="3.0" stroke-linejoin="round" stroke-linecap="butt" d="m961.80444 303.85892l108.5354 0l0 64.25198l-108.5354 0z" fill-rule="evenodd"/><path fill="#000000" d="m971.79596 331.75677l3.890625 0l3.296875 9.8125l3.234375 -9.8125l3.78125 0l-4.875 13.3125l-0.875 2.40625q-0.484375 1.203125 -0.921875 1.84375q-0.4375 0.640625 -1.0 1.03125q-0.5625 0.40625 -1.390625 0.625q-0.828125 0.21875 -1.859375 0.21875q-1.0625 0 -2.078125 -0.21875l-0.328125 -2.859375q0.859375 0.15625 1.546875 0.15625q1.28125 0 1.890625 -0.75q0.609375 -0.734375 0.9375 -1.90625l-5.25 -13.859375z" fill-rule="nonzero"/><path fill="#000000" d="m987.1052 332.2099l2.359375 -0.28125q0.109375 0.890625 0.59375 1.375q0.5 0.484375 1.203125 0.484375q0.765625 0 1.28125 -0.578125q0.515625 -0.578125 0.515625 -1.546875q0 -0.921875 -0.5 -1.453125q-0.5 -0.546875 -1.203125 -0.546875q-0.46875 0 -1.125 0.1875l0.265625 -1.984375q1.0 0.03125 1.515625 -0.421875q0.515625 -0.46875 0.515625 -1.21875q0 -0.640625 -0.390625 -1.015625q-0.375 -0.390625 -1.0 -0.390625q-0.625 0 -1.078125 0.4375q-0.4375 0.4375 -0.53125 1.265625l-2.25 -0.390625q0.234375 -1.140625 0.703125 -1.828125q0.484375 -0.703125 1.328125 -1.09375q0.84375 -0.390625 1.890625 -0.390625q1.796875 0 2.890625 1.140625q0.890625 0.9375 0.890625 2.125q0 1.671875 -1.828125 2.671875q1.09375 0.234375 1.734375 1.046875q0.65625 0.8125 0.65625 1.96875q0 1.671875 -1.21875 2.859375q-1.21875 1.171875 -3.046875 1.171875q-1.71875 0 -2.859375 -0.984375q-1.140625 -1.0 -1.3125 -2.609375z" fill-rule="nonzero"/><path fill="#000000" d="m998.1417 341.92865l3.65625 0l0 2.609375q0 1.59375 -0.28125 2.5q-0.265625 0.921875 -1.03125 1.65625q-0.765625 0.734375 -1.9375 1.140625l-0.71875 -1.5q1.109375 -0.375 1.578125 -1.015625q0.46875 -0.625 0.5 -1.734375l-1.765625 0l0 -3.65625zm5.765381 -10.171875l3.890625 0l3.296875 9.8125l3.234375 -9.8125l3.78125 0l-4.875 13.3125l-0.875 2.40625q-0.484375 1.203125 -0.921875 1.84375q-0.4375 0.640625 -1.0 1.03125q-0.5625 0.40625 -1.390625 0.625q-0.828125 0.21875 -1.859375 0.21875q-1.0625 0 -2.078125 -0.21875l-0.328125 -2.859375q0.859375 0.15625 1.546875 0.15625q1.28125 0 1.890625 -0.75q0.609375 -0.734375 0.9375 -1.90625l-5.25 -13.859375z" fill-rule="nonzero"/><path fill="#000000" d="m1024.0758 335.5849l0 -2.5625l-5.203186 0l0 -2.125l5.515686 -8.078125l2.046875 0l0 8.0625l1.578125 0l0 2.140625l-1.578125 0l0 2.5625l-2.359375 0zm0 -4.703125l0 -4.34375l-2.921936 4.34375l2.921936 0z" fill-rule="nonzero"/><path fill="#000000" d="m1030.2529 341.92865l3.65625 0l0 2.609375q0 1.59375 -0.28125 2.5q-0.265625 0.921875 -1.03125 1.65625q-0.765625 0.734375 -1.9375 1.140625l-0.71875 -1.5q1.109375 -0.375 1.578125 -1.015625q0.46875 -0.625 0.5 -1.734375l-1.765625 0l0 -3.65625zm5.765259 -10.171875l3.890625 0l3.296875 9.8125l3.234375 -9.8125l3.78125 0l-4.875 13.3125l-0.875 2.40625q-0.484375 1.203125 -0.921875 1.84375q-0.4375 0.640625 -1.0 1.03125q-0.5625 0.40625 -1.390625 0.625q-0.828125 0.21875 -1.859375 0.21875q-1.0625 0 -2.078125 -0.21875l-0.328125 -2.859375q0.859375 0.15625 1.546875 0.15625q1.28125 0 1.890625 -0.75q0.609375 -0.734375 0.9375 -1.90625l-5.25 -13.859375z" fill-rule="nonzero"/><path fill="#000000" d="m1051.4525 332.31927l2.421875 -0.25q0.109375 0.8125 0.609375 1.296875q0.515625 0.484375 1.1875 0.484375q0.765625 0 1.28125 -0.609375q0.53125 -0.625 0.53125 -1.875q0 -1.171875 -0.53125 -1.75q-0.515625 -0.59375 -1.359375 -0.59375q-1.046875 0 -1.875 0.921875l-1.984375 -0.28125l1.25 -6.625l6.453125 0l0 2.28125l-4.59375 0l-0.390625 2.15625q0.8125 -0.40625 1.671875 -0.40625q1.625 0 2.75 1.1875q1.125 1.171875 1.125 3.0625q0 1.5625 -0.90625 2.796875q-1.25 1.6875 -3.453125 1.6875q-1.75 0 -2.875 -0.9375q-1.109375 -0.953125 -1.3125 -2.546875z" fill-rule="nonzero"/><path fill="#000000" fill-opacity="0.0" d="m1016.06696 164.10022l0 -62.488182" fill-rule="evenodd"/><path stroke="#000000" stroke-width="3.0" stroke-linejoin="round" stroke-linecap="butt" d="m1016.06696 164.10022l0 -44.48819" fill-rule="evenodd"/><path fill="#000000" stroke="#000000" stroke-width="3.0" stroke-linecap="butt" d="m1021.02216 119.61203l-4.9552 -13.614296l-4.9552 13.614296z" fill-rule="evenodd"/><path fill="#000000" fill-opacity="0.0" d="m983.93494 69.47544l0 0c0 -17.742691 14.39032 -32.125984 32.141724 -32.125984l0 0c8.524536 0 16.69983 3.3846931 22.727661 9.409485c6.02771 6.024788 9.4140625 14.196159 9.4140625 22.7165l0 0c0 17.742691 -14.390381 32.125984 -32.141724 32.125984l0 0c-17.751404 0 -32.141724 -14.383293 -32.141724 -32.125984z" fill-rule="evenodd"/><path stroke="#000000" stroke-width="3.0" stroke-linejoin="round" stroke-linecap="butt" d="m983.93494 69.47544l0 0c0 -17.742691 14.39032 -32.125984 32.141724 -32.125984l0 0c8.524536 0 16.69983 3.3846931 22.727661 9.409485c6.02771 6.024788 9.4140625 14.196159 9.4140625 22.7165l0 0c0 17.742691 -14.390381 32.125984 -32.141724 32.125984l0 0c-17.751404 0 -32.141724 -14.383293 -32.141724 -32.125984z" fill-rule="evenodd"/><path fill="#000000" d="m1003.91156 65.247314l3.890625 0l3.296875 9.8125l3.234375 -9.8125l3.78125 0l-4.875 13.3125l-0.875 2.40625q-0.484375 1.203125 -0.921875 1.84375q-0.4375 0.640625 -1.0 1.03125q-0.5625 0.40625 -1.390625 0.625q-0.828125 0.21875 -1.859375 0.21875q-1.0625 0 -2.078125 -0.21875l-0.328125 -2.859375q0.859375 0.15625 1.546875 0.15625q1.28125 0 1.890625 -0.75q0.609375 -0.734375 0.9375 -1.90625l-5.25 -13.859375z" fill-rule="nonzero"/><path fill="#000000" d="m1027.5646 59.466064l-2.359375 0.265625q-0.09375 -0.734375 -0.453125 -1.078125q-0.359375 -0.34375 -0.95306396 -0.34375q-0.765625 0 -1.296875 0.703125q-0.53125 0.6875 -0.671875 2.875q0.90625 -1.078125 2.265564 -1.078125q1.515625 0 2.609375 1.171875q1.09375 1.15625 1.09375 3.0q0 1.953125 -1.15625 3.140625q-1.140625 1.171875 -2.937439 1.171875q-1.921875 0 -3.171875 -1.5q-1.234375 -1.5 -1.234375 -4.90625q0 -3.5 1.296875 -5.03125q1.296875 -1.546875 3.359375 -1.546875q1.453064 0 2.390564 0.8125q0.953125 0.8125 1.21875 2.34375zm-5.531189 5.328125q0 1.1875 0.546875 1.84375q0.546875 0.640625 1.25 0.640625q0.67181396 0 1.124939 -0.53125q0.453125 -0.53125 0.453125 -1.734375q0 -1.25 -0.484375 -1.828125q-0.484375 -0.578125 -1.218689 -0.578125q-0.703125 0 -1.1875 0.5625q-0.484375 0.546875 -0.484375 1.625z" fill-rule="nonzero"/><path fill="#000000" fill-opacity="0.0" d="m149.24518 69.47171c53.31389 0 79.97031 66.62991 106.62779 133.25984c26.657486 66.62993 53.316025 133.25984 106.632034 133.25984" fill-rule="evenodd"/><path stroke="#000000" stroke-width="3.0" stroke-linejoin="round" stroke-linecap="butt" stroke-dasharray="12.0,9.0" d="m149.24518 69.47171c53.313904 0 79.97031 66.62993 106.62779 133.25984c13.328751 33.314957 26.65776 66.62993 43.319046 91.616135c8.330688 12.493103 17.494415 22.904022 27.907745 30.19168c5.206665 3.6438293 10.725708 6.506836 16.609253 8.458862c0.18383789 0.06100464 0.3680725 0.12112427 0.5526428 0.18035889l0.44293213 0.13967896" fill-rule="evenodd"/><path fill="#000000" stroke="#000000" stroke-width="3.0" stroke-linecap="butt" d="m343.96872 338.21854l14.199219 -2.8784485l-12.7274475 -6.922058z" fill-rule="evenodd"/><path fill="#000000" fill-opacity="0.0" d="m448.91586 69.47544c53.309235 0 79.964874 66.62992 106.61844 133.25986c26.653564 66.62991 53.304993 133.25983 106.609924 133.25983" fill-rule="evenodd"/><path stroke="#000000" stroke-width="3.0" stroke-linejoin="round" stroke-linecap="butt" stroke-dasharray="12.0,9.0" d="m448.9159 69.47544c53.309204 0 79.964905 66.62992 106.61841 133.25983c13.326782 33.314957 26.653015 66.62993 43.31067 91.616135c8.328857 12.493134 17.49054 22.904053 27.901611 30.19168c5.2055054 3.6438293 10.723328 6.506836 16.60559 8.458893c0.18383789 0.06097412 0.368042 0.12112427 0.55255127 0.18032837l0.43927002 0.1385498" fill-rule="evenodd"/><path fill="#000000" stroke="#000000" stroke-width="3.0" stroke-linecap="butt" d="m643.6078 338.22107l14.199402 -2.877533l-12.72699 -6.9228516z" fill-rule="evenodd"/><path fill="#000000" fill-opacity="0.0" d="m748.56714 69.47544c53.309204 0 79.964905 66.62992 106.61841 133.25986c26.653564 66.62991 53.304993 133.25983 106.609924 133.25983" fill-rule="evenodd"/><path stroke="#000000" stroke-width="3.0" stroke-linejoin="round" stroke-linecap="butt" stroke-dasharray="12.0,9.0" d="m748.5671 69.47544c53.309265 0 79.964905 66.62992 106.61847 133.25983c13.326782 33.314957 26.653015 66.62993 43.31067 91.616135c8.328857 12.493134 17.490479 22.904053 27.901611 30.19168c5.2054443 3.6438293 10.723328 6.506836 16.60559 8.458893c0.18383789 0.06097412 0.36798096 0.12112427 0.55249023 0.18032837l0.43933105 0.1385498" fill-rule="evenodd"/><path fill="#000000" stroke="#000000" stroke-width="3.0" stroke-linecap="butt" d="m943.25903 338.22107l14.199402 -2.877533l-12.727051 -6.9228516z" fill-rule="evenodd"/></g></svg>