<svg version="1.1" viewBox="0.0 0.0 515.0157480314961 512.0" fill="none" stroke="none" stroke-linecap="square" stroke-miterlimit="10" xmlns:xlink="http://www.w3.org/1999/xlink" xmlns="http://www.w3.org/2000/svg"><clipPath id="p.0"><path d="m0 0l515.01575 0l0 512.0l-515.01575 0l0 -512.0z" clip-rule="nonzero"/></clipPath><g clip-path="url(#p.0)"><path fill="#000000" fill-opacity="0.0" d="m0 0l515.01575 0l0 512.0l-515.01575 0z" fill-rule="evenodd"/><path fill="#f3f3f3" d="m19.010498 114.79527l377.95276 0l0 377.95276l-377.95276 0z" fill-rule="evenodd"/><path stroke="#000000" stroke-width="1.0" stroke-linejoin="round" stroke-linecap="butt" d="m19.010498 114.79527l377.95276 0l0 377.95276l-377.95276 0z" fill-rule="evenodd"/><path fill="#0000ff" fill-opacity="0.1351" d="m64.45407 181.83989l0 0c0 -10.436874 8.460754 -18.897629 18.897636 -18.897629l0 0c5.011963 0 9.818649 1.9909973 13.362648 5.5349884c3.543991 3.543991 5.5349884 8.3506775 5.5349884 13.36264l0 0c0 10.43689 -8.460762 18.897644 -18.897636 18.897644l0 0c-10.436882 0 -18.897636 -8.460754 -18.897636 -18.897644z" fill-rule="evenodd"/><path stroke="#0000ff" stroke-width="2.0" stroke-linejoin="round" stroke-linecap="butt" d="m64.45407 181.83989l0 0c0 -10.436874 8.460754 -18.897629 18.897636 -18.897629l0 0c5.011963 0 9.818649 1.9909973 13.362648 5.5349884c3.543991 3.543991 5.5349884 8.3506775 5.5349884 13.36264l0 0c0 10.43689 -8.460762 18.897644 -18.897636 18.897644l0 0c-10.436882 0 -18.897636 -8.460754 -18.897636 -18.897644z" fill-rule="evenodd"/><path fill="#000000" d="m81.461945 181.83989l0 0c0 -1.0436859 0.84607697 -1.8897552 1.8897629 -1.8897552l0 0c0.5011978 0 0.9818649 0.19909668 1.3362656 0.5534973c0.35440063 0.35440063 0.5534973 0.83506775 0.5534973 1.3362579l0 0c0 1.0436859 -0.84607697 1.8897705 -1.8897629 1.8897705l0 0c-1.0436859 0 -1.8897629 -0.8460846 -1.8897629 -1.8897705z" fill-rule="evenodd"/><path stroke="#000000" stroke-width="1.0" stroke-linejoin="round" stroke-linecap="butt" d="m81.461945 181.83989l0 0c0 -1.0436859 0.84607697 -1.8897552 1.8897629 -1.8897552l0 0c0.5011978 0 0.9818649 0.19909668 1.3362656 0.5534973c0.35440063 0.35440063 0.5534973 0.83506775 0.5534973 1.3362579l0 0c0 1.0436859 -0.84607697 1.8897705 -1.8897629 1.8897705l0 0c-1.0436859 0 -1.8897629 -0.8460846 -1.8897629 -1.8897705z" fill-rule="evenodd"/><path fill="#0000ff" fill-opacity="0.3514" d="m119.49606 233.34645l0 0c0 -10.436874 8.460762 -18.897629 18.897644 -18.897629l0 0c5.011963 0 9.818649 1.9909973 13.36264 5.5349884c3.543991 3.543991 5.5349884 8.3506775 5.5349884 13.36264l0 0c0 10.43689 -8.460754 18.897644 -18.897629 18.897644l0 0c-10.436882 0 -18.897644 -8.460754 -18.897644 -18.897644z" fill-rule="evenodd"/><path stroke="#0000ff" stroke-width="2.0" stroke-linejoin="round" stroke-linecap="butt" d="m119.49606 233.34645l0 0c0 -10.436874 8.460762 -18.897629 18.897644 -18.897629l0 0c5.011963 0 9.818649 1.9909973 13.36264 5.5349884c3.543991 3.543991 5.5349884 8.3506775 5.5349884 13.36264l0 0c0 10.43689 -8.460754 18.897644 -18.897629 18.897644l0 0c-10.436882 0 -18.897644 -8.460754 -18.897644 -18.897644z" fill-rule="evenodd"/><path fill="#000000" d="m136.50394 233.34645l0 0c0 -1.0436859 0.84606934 -1.8897552 1.8897705 -1.8897552l0 0c0.5011902 0 0.9818573 0.19909668 1.3362579 0.5534973c0.35440063 0.35440063 0.5534973 0.83506775 0.5534973 1.3362579l0 0c0 1.0437012 -0.84606934 1.8897705 -1.8897552 1.8897705l0 0c-1.0437012 0 -1.8897705 -0.84606934 -1.8897705 -1.8897705z" fill-rule="evenodd"/><path stroke="#000000" stroke-width="1.0" stroke-linejoin="round" stroke-linecap="butt" d="m136.50394 233.34645l0 0c0 -1.0436859 0.84606934 -1.8897552 1.8897705 -1.8897552l0 0c0.5011902 0 0.9818573 0.19909668 1.3362579 0.5534973c0.35440063 0.35440063 0.5534973 0.83506775 0.5534973 1.3362579l0 0c0 1.0437012 -0.84606934 1.8897705 -1.8897552 1.8897705l0 0c-1.0437012 0 -1.8897705 -0.84606934 -1.8897705 -1.8897705z" fill-rule="evenodd"/><path fill="#0000ff" fill-opacity="0.6919" d="m165.08661 277.13385l0 0c0 -10.436859 8.46077 -18.897644 18.897644 -18.897644l0 0c5.011963 0 9.818649 1.9909973 13.36264 5.5350037c3.5440063 3.5440063 5.5350037 8.3506775 5.5350037 13.36264l0 0c0 10.43689 -8.46077 18.897644 -18.897644 18.897644l0 0c-10.436874 0 -18.897644 -8.460754 -18.897644 -18.897644z" fill-rule="evenodd"/><path stroke="#0000ff" stroke-width="2.0" stroke-linejoin="round" stroke-linecap="butt" d="m165.08661 277.13385l0 0c0 -10.436859 8.46077 -18.897644 18.897644 -18.897644l0 0c5.011963 0 9.818649 1.9909973 13.36264 5.5350037c3.5440063 3.5440063 5.5350037 8.3506775 5.5350037 13.36264l0 0c0 10.43689 -8.46077 18.897644 -18.897644 18.897644l0 0c-10.436874 0 -18.897644 -8.460754 -18.897644 -18.897644z" fill-rule="evenodd"/><path fill="#000000" d="m182.09448 277.13385l0 0c0 -1.0436707 0.8460846 -1.8897705 1.8897705 -1.8897705l0 0c0.5011902 0 0.9818573 0.1991272 1.3362579 0.55352783c0.35440063 0.35440063 0.5534973 0.8350525 0.5534973 1.3362427l0 0c0 1.0437012 -0.84606934 1.8897705 -1.8897552 1.8897705l0 0c-1.0436859 0 -1.8897705 -0.84606934 -1.8897705 -1.8897705z" fill-rule="evenodd"/><path stroke="#000000" stroke-width="1.0" stroke-linejoin="round" stroke-linecap="butt" d="m182.09448 277.13385l0 0c0 -1.0436707 0.8460846 -1.8897705 1.8897705 -1.8897705l0 0c0.5011902 0 0.9818573 0.1991272 1.3362579 0.55352783c0.35440063 0.35440063 0.5534973 0.8350525 0.5534973 1.3362427l0 0c0 1.0437012 -0.84606934 1.8897705 -1.8897552 1.8897705l0 0c-1.0436859 0 -1.8897705 -0.84606934 -1.8897705 -1.8897705z" fill-rule="evenodd"/><path fill="#0000ff" d="m205.8819 314.92914l0 0c0 -10.43689 8.460754 -18.897644 18.897629 -18.897644l0 0c5.011963 0 9.818649 1.9909973 13.362656 5.5350037c3.543991 3.5439758 5.5349884 8.3506775 5.5349884 13.36264l0 0c0 10.436859 -8.46077 18.897644 -18.897644 18.897644l0 0c-10.436874 0 -18.897629 -8.460785 -18.897629 -18.897644z" fill-rule="evenodd"/><path stroke="#0000ff" stroke-width="2.0" stroke-linejoin="round" stroke-linecap="butt" d="m205.8819 314.92914l0 0c0 -10.43689 8.460754 -18.897644 18.897629 -18.897644l0 0c5.011963 0 9.818649 1.9909973 13.362656 5.5350037c3.543991 3.5439758 5.5349884 8.3506775 5.5349884 13.36264l0 0c0 10.436859 -8.46077 18.897644 -18.897644 18.897644l0 0c-10.436874 0 -18.897629 -8.460785 -18.897629 -18.897644z" fill-rule="evenodd"/><path fill="#000000" d="m222.88977 314.92914l0 0c0 -1.0437012 0.84606934 -1.8897705 1.8897552 -1.8897705l0 0c0.50120544 0 0.98187256 0.19909668 1.3362732 0.5534973c0.35438538 0.35440063 0.5534973 0.835083 0.5534973 1.3362732l0 0c0 1.0436707 -0.8460846 1.8897705 -1.8897705 1.8897705l0 0c-1.0436859 0 -1.8897552 -0.84609985 -1.8897552 -1.8897705z" fill-rule="evenodd"/><path stroke="#000000" stroke-width="1.0" stroke-linejoin="round" stroke-linecap="butt" d="m222.88977 314.92914l0 0c0 -1.0437012 0.84606934 -1.8897705 1.8897552 -1.8897705l0 0c0.50120544 0 0.98187256 0.19909668 1.3362732 0.5534973c0.35438538 0.35440063 0.5534973 0.835083 0.5534973 1.3362732l0 0c0 1.0436707 -0.8460846 1.8897705 -1.8897705 1.8897705l0 0c-1.0436859 0 -1.8897552 -0.84609985 -1.8897552 -1.8897705z" fill-rule="evenodd"/><path fill="#000000" fill-opacity="0.0" d="m18.897638 493.84253l0 -454.01575" fill-rule="evenodd"/><path stroke="#000000" stroke-width="3.0" stroke-linejoin="round" stroke-linecap="butt" d="m18.897638 493.84253l0 -436.01575" fill-rule="evenodd"/><path fill="#000000" stroke="#000000" stroke-width="3.0" stroke-linecap="butt" d="m23.852835 57.82677l-4.9551964 -13.614292l-4.9551983 13.614292z" fill-rule="evenodd"/><path fill="#000000" fill-opacity="0.0" d="m19.010498 493.84253l454.01575 0" fill-rule="evenodd"/><path stroke="#000000" stroke-width="3.0" stroke-linejoin="round" stroke-linecap="butt" d="m19.010498 493.84253l436.01575 0" fill-rule="evenodd"/><path fill="#000000" stroke="#000000" stroke-width="3.0" stroke-linecap="butt" d="m455.02625 498.79773l13.614288 -4.9552l-13.614288 -4.9552z" fill-rule="evenodd"/><path fill="#000000" fill-opacity="0.0" d="m473.1391 477.68503l37.795288 0l0 32.314972l-37.795288 0z" fill-rule="evenodd"/><path fill="#000000" d="m497.8871 503.2069q-0.109375 0 -0.28125 -0.03125q-0.171875 -0.03125 -0.28125 -0.125q-0.109375 0 -0.375 -0.078125q-0.265625 -0.09375 -0.46875 -0.1875q-0.265625 -0.109375 -0.71875 -0.4375q-0.453125 -0.34375 -0.90625 -0.734375q-0.453125 -0.40625 -0.765625 -0.75q-0.3125 -0.34375 -0.3125 -0.515625q0 -0.125 -0.125 -0.125q0 0 -0.078125 -0.09375q-0.078125 -0.09375 -0.078125 -0.203125q0 -0.265625 -0.28125 -0.265625q0 0 -0.453125 0.375q-0.453125 0.375 -0.984375 0.90625q-0.734375 0.75 -1.09375 1.078125q-0.359375 0.328125 -0.578125 0.328125q-0.21875 0 -0.484375 -0.15625q-0.265625 -0.15625 -0.46875 -0.375q-0.1875 -0.234375 -0.1875 -0.453125q0 0 0.53125 -0.609375q0.546875 -0.609375 1.296875 -1.25l1.703125 -1.6875l-0.28125 -1.015625q-0.1875 -0.421875 -0.390625 -0.890625q-0.203125 -0.46875 -0.3125 -0.78125q-0.3125 -0.453125 -0.328125 -0.5625q-0.015625 -0.125 0.203125 -0.453125l0 0l0 0q0.203125 -0.21875 0.34375 -0.28125q0.15625 -0.0625 0.484375 0.15625q0.15625 0 0.421875 0.4375q0.265625 0.4375 0.484375 0.953125q0.234375 0.515625 0.234375 0.734375q0 0.421875 0.3125 0.34375q0.328125 -0.078125 0.96875 -0.5q0.3125 -0.296875 0.5 -0.5q0.1875 -0.203125 0.1875 -0.203125q0.078125 -0.078125 0.484375 -0.34375q0.40625 -0.28125 0.828125 -0.578125q0.421875 -0.296875 0.5625 -0.34375q0.203125 -0.171875 0.46875 -0.015625q0.265625 0.140625 0.453125 0.421875q0.1875 0.28125 0.1875 0.578125q0 0.3125 -0.15625 0.5q-0.15625 0.1875 -0.6875 0.484375q-0.484375 0.34375 -0.84375 0.609375q-0.359375 0.265625 -0.75 0.578125q-0.375 0.296875 -0.96875 0.8125l-0.6875 0.5625l0.421875 0.71875q0.109375 0.1875 0.296875 0.53125q0.203125 0.34375 0.390625 0.453125q0.171875 0.203125 0.625 0.578125q0.453125 0.375 0.890625 0.6875q0.4375 0.296875 0.484375 0.296875q0.109375 0 0.234375 0.09375q0.140625 0.078125 0.328125 0.1875q0.21875 0.203125 0.28125 0.46875q0.0625 0.265625 0 0.46875q-0.0625 0.203125 -0.28125 0.203125z" fill-rule="nonzero"/><path fill="#000000" fill-opacity="0.0" d="m0 -2.3149607l37.795277 0l0 32.31496l-37.795277 0z" fill-rule="evenodd"/><path fill="#000000" d="m16.462137 28.581913q-0.640625 0.1875 -1.40625 0.0625q-0.75 -0.109375 -1.328125 -0.453125q-0.578125 -0.34375 -0.65625 -0.78125q-0.03125 -0.15625 0.09375 -0.34375q0.125 -0.1875 0.296875 -0.25q0.171875 -0.0625 0.296875 0.09375q0.21875 0.140625 0.78125 0.328125q0.5625 0.203125 1.25 0.078125q0.609375 -0.140625 1.203125 -0.734375q0.609375 -0.578125 0.984375 -1.078125q0.21875 -0.328125 0.71875 -1.15625q0.5 -0.828125 1.046875 -1.828125q0.546875 -1.0 0.921875 -1.84375q0.078125 -0.21875 0.1875 -0.5q0.109375 -0.296875 0.265625 -0.484375q0.171875 -0.328125 0.28125 -0.609375q0.125 -0.28125 0.15625 -0.375q0.015625 -0.140625 0.234375 -0.53125q0.21875 -0.40625 0.40625 -0.8125q0.125 -0.390625 0.390625 -1.15625q0.265625 -0.78125 0.53125 -1.265625q0.328125 -0.609375 0.515625 -1.0q0.203125 -0.390625 0.453125 -0.46875l0 0l0 0q0.234375 -0.1875 0.328125 -0.1875q0.09375 0 0.390625 0.15625q0.3125 0.328125 0.390625 0.640625q0.078125 0.296875 -0.0625 0.734375q-0.140625 0.4375 -0.546875 1.1875q-0.21875 0.640625 -0.46875 1.171875q-0.25 0.515625 -0.375 0.671875q-0.140625 0.3125 -0.3125 0.703125q-0.171875 0.390625 -0.3125 0.703125q-0.46875 1.078125 -0.828125 1.75q-0.34375 0.65625 -0.609375 1.21875q-0.265625 0.5625 -0.5625 1.296875q-0.609375 0.984375 -1.1875 1.875q-0.5625 0.90625 -1.203125 1.671875q-0.265625 0.25 -0.671875 0.5625q-0.390625 0.328125 -0.8125 0.59375q-0.40625 0.265625 -0.78125 0.359375zm3.59375 -6.390625q-0.40625 -0.046875 -0.796875 -0.46875q-0.375 -0.4375 -0.59375 -0.90625q-0.203125 -0.484375 -0.15625 -0.703125q0 -0.140625 0 -0.21875q0 -0.078125 0 -0.078125q-0.15625 0 -0.28125 -0.390625q-0.109375 -0.40625 -0.171875 -1.046875q-0.046875 -0.640625 -0.0625 -1.359375q-0.015625 -0.71875 0.03125 -1.359375q0.109375 -0.453125 0.109375 -1.0q0 -0.546875 0.03125 -0.859375q-0.03125 -0.4375 0.078125 -0.578125q0.109375 -0.140625 0.21875 -0.234375l0 0l0 0q0.734375 -0.3125 0.984375 0.390625q0.265625 0.703125 0.125 2.625q-0.046875 1.078125 0 2.140625q0.0625 1.0625 0.3125 1.859375q0.25 0.796875 0.703125 1.09375q0.1875 0.109375 0.1875 0.296875q0 0.1875 -0.109375 0.390625q-0.109375 0.1875 -0.28125 0.3125q-0.171875 0.125 -0.328125 0.09375z" fill-rule="nonzero"/><path fill="#000000" fill-opacity="0.0" d="m257.98425 360.7244l0 0c0 -10.436859 8.460754 -18.897614 18.897644 -18.897614l0 0c5.011963 0 9.818634 1.9909973 13.36264 5.534973c3.5440063 3.5440063 5.5350037 8.3506775 5.5350037 13.36264l0 0c0 10.43689 -8.460785 18.897644 -18.897644 18.897644l0 0c-10.43689 0 -18.897644 -8.460754 -18.897644 -18.897644z" fill-rule="evenodd"/><path stroke="#0000ff" stroke-width="2.0" stroke-linejoin="round" stroke-linecap="butt" d="m257.98425 360.7244l0 0c0 -10.436859 8.460754 -18.897614 18.897644 -18.897614l0 0c5.011963 0 9.818634 1.9909973 13.36264 5.534973c3.5440063 3.5440063 5.5350037 8.3506775 5.5350037 13.36264l0 0c0 10.43689 -8.460785 18.897644 -18.897644 18.897644l0 0c-10.43689 0 -18.897644 -8.460754 -18.897644 -18.897644z" fill-rule="evenodd"/><path fill="#000000" d="m276.81613 364.36316q0 -0.328125 0 -0.5q0 -0.96875 0.265625 -1.671875q0.203125 -0.515625 0.640625 -1.0625q0.328125 -0.390625 1.171875 -1.140625q0.859375 -0.75 1.109375 -1.1875q0.265625 -0.453125 0.265625 -0.984375q0 -0.953125 -0.75 -1.671875q-0.734375 -0.734375 -1.828125 -0.734375q-1.046875 0 -1.75 0.65625q-0.703125 0.65625 -0.921875 2.046875l-1.6875 -0.203125q0.234375 -1.859375 1.359375 -2.84375q1.125 -1.0 2.96875 -1.0q1.96875 0 3.125 1.0625q1.171875 1.0625 1.171875 2.578125q0 0.875 -0.40625 1.609375q-0.40625 0.734375 -1.609375 1.796875q-0.796875 0.703125 -1.046875 1.046875q-0.25 0.34375 -0.375 0.78125q-0.109375 0.4375 -0.125 1.421875l-1.578125 0zm-0.09375 3.28125l0 -1.875l1.859375 0l0 1.875l-1.859375 0z" fill-rule="nonzero"/></g></svg>