<svg version="1.1" viewBox="0.0 0.0 713.0 510.0" fill="none" stroke="none" stroke-linecap="square" stroke-miterlimit="10" xmlns:xlink="http://www.w3.org/1999/xlink" xmlns="http://www.w3.org/2000/svg"><clipPath id="p.0"><path d="m0 0l713.0 0l0 510.0l-713.0 0l0 -510.0z" clip-rule="nonzero"/></clipPath><g clip-path="url(#p.0)"><path fill="#000000" fill-opacity="0.0" d="m0 0l713.0 0l0 510.0l-713.0 0z" fill-rule="evenodd"/><path fill="#f3f3f3" d="m19.010498 114.79527l377.95276 0l0 377.95276l-377.95276 0z" fill-rule="evenodd"/><path stroke="#000000" stroke-width="1.0" stroke-linejoin="round" stroke-linecap="butt" d="m19.010498 114.79527l377.95276 0l0 377.95276l-377.95276 0z" fill-rule="evenodd"/><path fill="#0000ff" fill-opacity="0.0627" d="m64.45407 181.83989l0 0c0 -10.436874 8.460754 -18.897629 18.897636 -18.897629l0 0c5.011963 0 9.818649 1.9909973 13.362648 5.5349884c3.543991 3.543991 5.5349884 8.3506775 5.5349884 13.36264l0 0c0 10.43689 -8.460762 18.897644 -18.897636 18.897644l0 0c-10.436882 0 -18.897636 -8.460754 -18.897636 -18.897644z" fill-rule="evenodd"/><path stroke="#0000ff" stroke-width="2.0" stroke-linejoin="round" stroke-linecap="butt" d="m64.45407 181.83989l0 0c0 -10.436874 8.460754 -18.897629 18.897636 -18.897629l0 0c5.011963 0 9.818649 1.9909973 13.362648 5.5349884c3.543991 3.543991 5.5349884 8.3506775 5.5349884 13.36264l0 0c0 10.43689 -8.460762 18.897644 -18.897636 18.897644l0 0c-10.436882 0 -18.897636 -8.460754 -18.897636 -18.897644z" fill-rule="evenodd"/><path fill="#000000" d="m81.461945 181.83989l0 0c0 -1.0436859 0.84607697 -1.8897552 1.8897629 -1.8897552l0 0c0.5011978 0 0.9818649 0.19909668 1.3362656 0.5534973c0.35440063 0.35440063 0.5534973 0.83506775 0.5534973 1.3362579l0 0c0 1.0436859 -0.84607697 1.8897705 -1.8897629 1.8897705l0 0c-1.0436859 0 -1.8897629 -0.8460846 -1.8897629 -1.8897705z" fill-rule="evenodd"/><path stroke="#000000" stroke-width="1.0" stroke-linejoin="round" stroke-linecap="butt" d="m81.461945 181.83989l0 0c0 -1.0436859 0.84607697 -1.8897552 1.8897629 -1.8897552l0 0c0.5011978 0 0.9818649 0.19909668 1.3362656 0.5534973c0.35440063 0.35440063 0.5534973 0.83506775 0.5534973 1.3362579l0 0c0 1.0436859 -0.84607697 1.8897705 -1.8897629 1.8897705l0 0c-1.0436859 0 -1.8897629 -0.8460846 -1.8897629 -1.8897705z" fill-rule="evenodd"/><path fill="#0000ff" fill-opacity="0.1892" d="m119.49606 233.34645l0 0c0 -10.436874 8.460762 -18.897629 18.897644 -18.897629l0 0c5.011963 0 9.818649 1.9909973 13.36264 5.5349884c3.543991 3.543991 5.5349884 8.3506775 5.5349884 13.36264l0 0c0 10.43689 -8.460754 18.897644 -18.897629 18.897644l0 0c-10.436882 0 -18.897644 -8.460754 -18.897644 -18.897644z" fill-rule="evenodd"/><path stroke="#0000ff" stroke-width="2.0" stroke-linejoin="round" stroke-linecap="butt" d="m119.49606 233.34645l0 0c0 -10.436874 8.460762 -18.897629 18.897644 -18.897629l0 0c5.011963 0 9.818649 1.9909973 13.36264 5.5349884c3.543991 3.543991 5.5349884 8.3506775 5.5349884 13.36264l0 0c0 10.43689 -8.460754 18.897644 -18.897629 18.897644l0 0c-10.436882 0 -18.897644 -8.460754 -18.897644 -18.897644z" fill-rule="evenodd"/><path fill="#000000" d="m136.50394 233.34645l0 0c0 -1.0436859 0.84606934 -1.8897552 1.8897705 -1.8897552l0 0c0.5011902 0 0.9818573 0.19909668 1.3362579 0.5534973c0.35440063 0.35440063 0.5534973 0.83506775 0.5534973 1.3362579l0 0c0 1.0437012 -0.84606934 1.8897705 -1.8897552 1.8897705l0 0c-1.0437012 0 -1.8897705 -0.84606934 -1.8897705 -1.8897705z" fill-rule="evenodd"/><path stroke="#000000" stroke-width="1.0" stroke-linejoin="round" stroke-linecap="butt" d="m136.50394 233.34645l0 0c0 -1.0436859 0.84606934 -1.8897552 1.8897705 -1.8897552l0 0c0.5011902 0 0.9818573 0.19909668 1.3362579 0.5534973c0.35440063 0.35440063 0.5534973 0.83506775 0.5534973 1.3362579l0 0c0 1.0437012 -0.84606934 1.8897705 -1.8897552 1.8897705l0 0c-1.0437012 0 -1.8897705 -0.84606934 -1.8897705 -1.8897705z" fill-rule="evenodd"/><path fill="#0000ff" fill-opacity="0.6919" d="m221.08661 333.13385l0 0c0 -10.436859 8.46077 -18.897644 18.897644 -18.897644l0 0c5.011963 0 9.818649 1.9909973 13.36264 5.5350037c3.5440063 3.5440063 5.5350037 8.3506775 5.5350037 13.36264l0 0c0 10.43689 -8.46077 18.897644 -18.897644 18.897644l0 0c-10.436874 0 -18.897644 -8.460754 -18.897644 -18.897644z" fill-rule="evenodd"/><path stroke="#0000ff" stroke-width="2.0" stroke-linejoin="round" stroke-linecap="butt" d="m221.08661 333.13385l0 0c0 -10.436859 8.46077 -18.897644 18.897644 -18.897644l0 0c5.011963 0 9.818649 1.9909973 13.36264 5.5350037c3.5440063 3.5440063 5.5350037 8.3506775 5.5350037 13.36264l0 0c0 10.43689 -8.46077 18.897644 -18.897644 18.897644l0 0c-10.436874 0 -18.897644 -8.460754 -18.897644 -18.897644z" fill-rule="evenodd"/><path fill="#000000" d="m238.09448 333.13385l0 0c0 -1.0436707 0.8460846 -1.8897705 1.8897705 -1.8897705l0 0c0.5011902 0 0.9818573 0.1991272 1.3362579 0.55352783c0.35440063 0.35440063 0.5534973 0.8350525 0.5534973 1.3362427l0 0c0 1.0437012 -0.84606934 1.8897705 -1.8897552 1.8897705l0 0c-1.0436859 0 -1.8897705 -0.84606934 -1.8897705 -1.8897705z" fill-rule="evenodd"/><path stroke="#000000" stroke-width="1.0" stroke-linejoin="round" stroke-linecap="butt" d="m238.09448 333.13385l0 0c0 -1.0436707 0.8460846 -1.8897705 1.8897705 -1.8897705l0 0c0.5011902 0 0.9818573 0.1991272 1.3362579 0.55352783c0.35440063 0.35440063 0.5534973 0.8350525 0.5534973 1.3362427l0 0c0 1.0437012 -0.84606934 1.8897705 -1.8897552 1.8897705l0 0c-1.0436859 0 -1.8897705 -0.84606934 -1.8897705 -1.8897705z" fill-rule="evenodd"/><path fill="#0000ff" d="m261.8819 370.92914l0 0c0 -10.43689 8.460754 -18.897644 18.897644 -18.897644l0 0c5.011963 0 9.818634 1.9909973 13.36264 5.5350037c3.5439758 3.5439758 5.534973 8.3506775 5.534973 13.36264l0 0c0 10.436859 -8.460754 18.897644 -18.897614 18.897644l0 0c-10.43689 0 -18.897644 -8.460785 -18.897644 -18.897644z" fill-rule="evenodd"/><path stroke="#0000ff" stroke-width="2.0" stroke-linejoin="round" stroke-linecap="butt" d="m261.8819 370.92914l0 0c0 -10.43689 8.460754 -18.897644 18.897644 -18.897644l0 0c5.011963 0 9.818634 1.9909973 13.36264 5.5350037c3.5439758 3.5439758 5.534973 8.3506775 5.534973 13.36264l0 0c0 10.436859 -8.460754 18.897644 -18.897614 18.897644l0 0c-10.43689 0 -18.897644 -8.460785 -18.897644 -18.897644z" fill-rule="evenodd"/><path fill="#000000" d="m278.88977 370.92914l0 0c0 -1.0437012 0.84606934 -1.8897705 1.8897705 -1.8897705l0 0c0.5011902 0 0.98184204 0.19909668 1.3362427 0.5534973c0.35440063 0.35440063 0.5534973 0.835083 0.5534973 1.3362732l0 0c0 1.0436707 -0.84606934 1.8897705 -1.88974 1.8897705l0 0c-1.0437012 0 -1.8897705 -0.84609985 -1.8897705 -1.8897705z" fill-rule="evenodd"/><path stroke="#000000" stroke-width="1.0" stroke-linejoin="round" stroke-linecap="butt" d="m278.88977 370.92914l0 0c0 -1.0437012 0.84606934 -1.8897705 1.8897705 -1.8897705l0 0c0.5011902 0 0.98184204 0.19909668 1.3362427 0.5534973c0.35440063 0.35440063 0.5534973 0.835083 0.5534973 1.3362732l0 0c0 1.0436707 -0.84606934 1.8897705 -1.88974 1.8897705l0 0c-1.0437012 0 -1.8897705 -0.84609985 -1.8897705 -1.8897705z" fill-rule="evenodd"/><path fill="#000000" fill-opacity="0.0" d="m18.897638 493.84253l0 -454.01575" fill-rule="evenodd"/><path stroke="#000000" stroke-width="3.0" stroke-linejoin="round" stroke-linecap="butt" d="m18.897638 493.84253l0 -436.01575" fill-rule="evenodd"/><path fill="#000000" stroke="#000000" stroke-width="3.0" stroke-linecap="butt" d="m23.852835 57.82677l-4.9551964 -13.614292l-4.9551983 13.614292z" fill-rule="evenodd"/><path fill="#000000" fill-opacity="0.0" d="m19.010498 493.84253l454.01575 0" fill-rule="evenodd"/><path stroke="#000000" stroke-width="3.0" stroke-linejoin="round" stroke-linecap="butt" d="m19.010498 493.84253l436.01575 0" fill-rule="evenodd"/><path fill="#000000" stroke="#000000" stroke-width="3.0" stroke-linecap="butt" d="m455.02625 498.79773l13.614288 -4.9552l-13.614288 -4.9552z" fill-rule="evenodd"/><path fill="#000000" fill-opacity="0.0" d="m473.1391 477.68503l37.795288 0l0 32.314972l-37.795288 0z" fill-rule="evenodd"/><path fill="#000000" d="m497.8871 503.2069q-0.109375 0 -0.28125 -0.03125q-0.171875 -0.03125 -0.28125 -0.125q-0.109375 0 -0.375 -0.078125q-0.265625 -0.09375 -0.46875 -0.1875q-0.265625 -0.109375 -0.71875 -0.4375q-0.453125 -0.34375 -0.90625 -0.734375q-0.453125 -0.40625 -0.765625 -0.75q-0.3125 -0.34375 -0.3125 -0.515625q0 -0.125 -0.125 -0.125q0 0 -0.078125 -0.09375q-0.078125 -0.09375 -0.078125 -0.203125q0 -0.265625 -0.28125 -0.265625q0 0 -0.453125 0.375q-0.453125 0.375 -0.984375 0.90625q-0.734375 0.75 -1.09375 1.078125q-0.359375 0.328125 -0.578125 0.328125q-0.21875 0 -0.484375 -0.15625q-0.265625 -0.15625 -0.46875 -0.375q-0.1875 -0.234375 -0.1875 -0.453125q0 0 0.53125 -0.609375q0.546875 -0.609375 1.296875 -1.25l1.703125 -1.6875l-0.28125 -1.015625q-0.1875 -0.421875 -0.390625 -0.890625q-0.203125 -0.46875 -0.3125 -0.78125q-0.3125 -0.453125 -0.328125 -0.5625q-0.015625 -0.125 0.203125 -0.453125l0 0l0 0q0.203125 -0.21875 0.34375 -0.28125q0.15625 -0.0625 0.484375 0.15625q0.15625 0 0.421875 0.4375q0.265625 0.4375 0.484375 0.953125q0.234375 0.515625 0.234375 0.734375q0 0.421875 0.3125 0.34375q0.328125 -0.078125 0.96875 -0.5q0.3125 -0.296875 0.5 -0.5q0.1875 -0.203125 0.1875 -0.203125q0.078125 -0.078125 0.484375 -0.34375q0.40625 -0.28125 0.828125 -0.578125q0.421875 -0.296875 0.5625 -0.34375q0.203125 -0.171875 0.46875 -0.015625q0.265625 0.140625 0.453125 0.421875q0.1875 0.28125 0.1875 0.578125q0 0.3125 -0.15625 0.5q-0.15625 0.1875 -0.6875 0.484375q-0.484375 0.34375 -0.84375 0.609375q-0.359375 0.265625 -0.75 0.578125q-0.375 0.296875 -0.96875 0.8125l-0.6875 0.5625l0.421875 0.71875q0.109375 0.1875 0.296875 0.53125q0.203125 0.34375 0.390625 0.453125q0.171875 0.203125 0.625 0.578125q0.453125 0.375 0.890625 0.6875q0.4375 0.296875 0.484375 0.296875q0.109375 0 0.234375 0.09375q0.140625 0.078125 0.328125 0.1875q0.21875 0.203125 0.28125 0.46875q0.0625 0.265625 0 0.46875q-0.0625 0.203125 -0.28125 0.203125z" fill-rule="nonzero"/><path fill="#000000" fill-opacity="0.0" d="m0 -2.3149607l37.795277 0l0 32.31496l-37.795277 0z" fill-rule="evenodd"/><path fill="#000000" d="m16.462137 28.581913q-0.640625 0.1875 -1.40625 0.0625q-0.75 -0.109375 -1.328125 -0.453125q-0.578125 -0.34375 -0.65625 -0.78125q-0.03125 -0.15625 0.09375 -0.34375q0.125 -0.1875 0.296875 -0.25q0.171875 -0.0625 0.296875 0.09375q0.21875 0.140625 0.78125 0.328125q0.5625 0.203125 1.25 0.078125q0.609375 -0.140625 1.203125 -0.734375q0.609375 -0.578125 0.984375 -1.078125q0.21875 -0.328125 0.71875 -1.15625q0.5 -0.828125 1.046875 -1.828125q0.546875 -1.0 0.921875 -1.84375q0.078125 -0.21875 0.1875 -0.5q0.109375 -0.296875 0.265625 -0.484375q0.171875 -0.328125 0.28125 -0.609375q0.125 -0.28125 0.15625 -0.375q0.015625 -0.140625 0.234375 -0.53125q0.21875 -0.40625 0.40625 -0.8125q0.125 -0.390625 0.390625 -1.15625q0.265625 -0.78125 0.53125 -1.265625q0.328125 -0.609375 0.515625 -1.0q0.203125 -0.390625 0.453125 -0.46875l0 0l0 0q0.234375 -0.1875 0.328125 -0.1875q0.09375 0 0.390625 0.15625q0.3125 0.328125 0.390625 0.640625q0.078125 0.296875 -0.0625 0.734375q-0.140625 0.4375 -0.546875 1.1875q-0.21875 0.640625 -0.46875 1.171875q-0.25 0.515625 -0.375 0.671875q-0.140625 0.3125 -0.3125 0.703125q-0.171875 0.390625 -0.3125 0.703125q-0.46875 1.078125 -0.828125 1.75q-0.34375 0.65625 -0.609375 1.21875q-0.265625 0.5625 -0.5625 1.296875q-0.609375 0.984375 -1.1875 1.875q-0.5625 0.90625 -1.203125 1.671875q-0.265625 0.25 -0.671875 0.5625q-0.390625 0.328125 -0.8125 0.59375q-0.40625 0.265625 -0.78125 0.359375zm3.59375 -6.390625q-0.40625 -0.046875 -0.796875 -0.46875q-0.375 -0.4375 -0.59375 -0.90625q-0.203125 -0.484375 -0.15625 -0.703125q0 -0.140625 0 -0.21875q0 -0.078125 0 -0.078125q-0.15625 0 -0.28125 -0.390625q-0.109375 -0.40625 -0.171875 -1.046875q-0.046875 -0.640625 -0.0625 -1.359375q-0.015625 -0.71875 0.03125 -1.359375q0.109375 -0.453125 0.109375 -1.0q0 -0.546875 0.03125 -0.859375q-0.03125 -0.4375 0.078125 -0.578125q0.109375 -0.140625 0.21875 -0.234375l0 0l0 0q0.734375 -0.3125 0.984375 0.390625q0.265625 0.703125 0.125 2.625q-0.046875 1.078125 0 2.140625q0.0625 1.0625 0.3125 1.859375q0.25 0.796875 0.703125 1.09375q0.1875 0.109375 0.1875 0.296875q0 0.1875 -0.109375 0.390625q-0.109375 0.1875 -0.28125 0.3125q-0.171875 0.125 -0.328125 0.09375z" fill-rule="nonzero"/><path fill="#ff0000" d="m314.54724 418.3701l0 0c0 -10.43689 8.460754 -18.897644 18.897644 -18.897644l0 0c5.011963 0 9.818665 1.9909973 13.36264 5.534973c3.5440063 3.5440063 5.5350037 8.350708 5.5350037 13.362671l0 0c0 10.436859 -8.460785 18.897644 -18.897644 18.897644l0 0c-10.43689 0 -18.897644 -8.460785 -18.897644 -18.897644z" fill-rule="evenodd"/><path stroke="#0000ff" stroke-width="2.0" stroke-linejoin="round" stroke-linecap="butt" d="m314.54724 418.3701l0 0c0 -10.43689 8.460754 -18.897644 18.897644 -18.897644l0 0c5.011963 0 9.818665 1.9909973 13.36264 5.534973c3.5440063 3.5440063 5.5350037 8.350708 5.5350037 13.362671l0 0c0 10.436859 -8.460785 18.897644 -18.897644 18.897644l0 0c-10.43689 0 -18.897644 -8.460785 -18.897644 -18.897644z" fill-rule="evenodd"/><path fill="#000000" d="m331.5551 418.3701l0 0c0 -1.0437012 0.84606934 -1.8897705 1.8897705 -1.8897705l0 0c0.5011902 0 0.98187256 0.19909668 1.3362732 0.5534973c0.35440063 0.35440063 0.5534973 0.835083 0.5534973 1.3362732l0 0c0 1.0436707 -0.84609985 1.8897705 -1.8897705 1.8897705l0 0c-1.0437012 0 -1.8897705 -0.84609985 -1.8897705 -1.8897705z" fill-rule="evenodd"/><path stroke="#000000" stroke-width="1.0" stroke-linejoin="round" stroke-linecap="butt" d="m331.5551 418.3701l0 0c0 -1.0437012 0.84606934 -1.8897705 1.8897705 -1.8897705l0 0c0.5011902 0 0.98187256 0.19909668 1.3362732 0.5534973c0.35440063 0.35440063 0.5534973 0.835083 0.5534973 1.3362732l0 0c0 1.0436707 -0.84609985 1.8897705 -1.8897705 1.8897705l0 0c-1.0437012 0 -1.8897705 -0.84609985 -1.8897705 -1.8897705z" fill-rule="evenodd"/><path fill="#000000" fill-opacity="0.0" d="m416.5013 131.39633l37.795288 0l0 45.259842l-37.795288 0z" fill-rule="evenodd"/><path fill="#000000" d="m416.64194 149.31633l3.53125 -5.03125l-3.265625 -4.640625l2.046875 0l1.484375 2.265625q0.421875 0.640625 0.671875 1.078125q0.40625 -0.59375 0.734375 -1.0625l1.640625 -2.28125l1.953125 0l-3.34375 4.546875l3.59375 5.125l-2.015625 0l-1.984375 -3.0l-0.515625 -0.8125l-2.546875 3.8125l-1.984375 0z" fill-rule="nonzero"/><path fill="#000000" d="m429.03256 141.33195l0.15625 0.96875q-0.453125 0.09375 -0.828125 0.09375q-0.59375 0 -0.921875 -0.1875q-0.328125 -0.1875 -0.46875 -0.484375q-0.125 -0.3125 -0.125 -1.296875l0 -3.703125l-0.796875 0l0 -0.859375l0.796875 0l0 -1.59375l1.09375 -0.65625l0 2.25l1.09375 0l0 0.859375l-1.09375 0l0 3.765625q0 0.46875 0.046875 0.609375q0.0625 0.125 0.1875 0.203125q0.140625 0.078125 0.390625 0.078125q0.171875 0 0.46875 -0.046875zm0.64297485 -1.6875l0 -1.09375l3.359375 0l0 1.09375l-3.359375 0zm4.5635986 2.671875l0 -6.453125l0.984375 0l0 0.921875q0.71875 -1.0625 2.0625 -1.0625q0.578125 0 1.0625 0.21875q0.5 0.203125 0.734375 0.546875q0.25 0.328125 0.34375 0.796875q0.0625 0.3125 0.0625 1.0625l0 3.96875l-1.09375 0l0 -3.921875q0 -0.671875 -0.125 -1.0q-0.125 -0.328125 -0.453125 -0.515625q-0.328125 -0.203125 -0.765625 -0.203125q-0.703125 0 -1.21875 0.4375q-0.5 0.4375 -0.5 1.6875l0 3.515625l-1.09375 0z" fill-rule="nonzero"/><path fill="#000000" d="m417.65756 175.43507l-0.1875 -1.53125q0.546875 0.140625 0.9375 0.140625q0.546875 0 0.875 -0.1875q0.328125 -0.171875 0.546875 -0.5q0.15625 -0.25 0.5 -1.21875q0.046875 -0.140625 0.140625 -0.40625l-3.671875 -9.6875l1.765625 0l2.015625 5.59375q0.390625 1.078125 0.703125 2.25q0.28125 -1.125 0.671875 -2.203125l2.078125 -5.640625l1.640625 0l-3.6875 9.828125q-0.59375 1.609375 -0.921875 2.203125q-0.4375 0.8125 -1.0 1.1875q-0.5625 0.375 -1.34375 0.375q-0.484375 0 -1.0625 -0.203125z" fill-rule="nonzero"/><path fill="#000000" d="m429.03256 163.73195l0.15625 0.96875q-0.453125 0.09375 -0.828125 0.09375q-0.59375 0 -0.921875 -0.1875q-0.328125 -0.1875 -0.46875 -0.484375q-0.125 -0.3125 -0.125 -1.296875l0 -3.703125l-0.796875 0l0 -0.859375l0.796875 0l0 -1.59375l1.09375 -0.65625l0 2.25l1.09375 0l0 0.859375l-1.09375 0l0 3.765625q0 0.46875 0.046875 0.609375q0.0625 0.125 0.1875 0.203125q0.140625 0.078125 0.390625 0.078125q0.171875 0 0.46875 -0.046875zm0.64297485 -1.6875l0 -1.09375l3.359375 0l0 1.09375l-3.359375 0zm4.5635986 2.671875l0 -6.453125l0.984375 0l0 0.921875q0.71875 -1.0625 2.0625 -1.0625q0.578125 0 1.0625 0.21875q0.5 0.203125 0.734375 0.546875q0.25 0.328125 0.34375 0.796875q0.0625 0.3125 0.0625 1.0625l0 3.96875l-1.09375 0l0 -3.921875q0 -0.671875 -0.125 -1.0q-0.125 -0.328125 -0.453125 -0.515625q-0.328125 -0.203125 -0.765625 -0.203125q-0.703125 0 -1.21875 0.4375q-0.5 0.4375 -0.5 1.6875l0 3.515625l-1.09375 0z" fill-rule="nonzero"/><path fill="#000000" fill-opacity="0.0" d="m416.5013 182.44882l76.50394 0l0 45.259842l-76.50394 0z" fill-rule="evenodd"/><path fill="#000000" d="m416.64194 200.36882l3.53125 -5.03125l-3.265625 -4.640625l2.046875 0l1.484375 2.265625q0.421875 0.640625 0.671875 1.078125q0.40625 -0.59375 0.734375 -1.0625l1.640625 -2.28125l1.953125 0l-3.34375 4.546875l3.59375 5.125l-2.015625 0l-1.984375 -3.0l-0.515625 -0.8125l-2.546875 3.8125l-1.984375 0z" fill-rule="nonzero"/><path fill="#000000" d="m429.03256 192.38445l0.15625 0.96875q-0.453125 0.09375 -0.828125 0.09375q-0.59375 0 -0.921875 -0.1875q-0.328125 -0.1875 -0.46875 -0.484375q-0.125 -0.3125 -0.125 -1.296875l0 -3.703125l-0.796875 0l0 -0.859375l0.796875 0l0 -1.59375l1.09375 -0.65625l0 2.25l1.09375 0l0 0.859375l-1.09375 0l0 3.765625q0 0.46875 0.046875 0.609375q0.0625 0.125 0.1875 0.203125q0.140625 0.078125 0.390625 0.078125q0.171875 0 0.46875 -0.046875zm0.64297485 -1.6875l0 -1.09375l3.359375 0l0 1.09375l-3.359375 0zm4.5635986 2.671875l0 -6.453125l0.984375 0l0 0.921875q0.71875 -1.0625 2.0625 -1.0625q0.578125 0 1.0625 0.21875q0.5 0.203125 0.734375 0.546875q0.25 0.328125 0.34375 0.796875q0.0625 0.3125 0.0625 1.0625l0 3.96875l-1.09375 0l0 -3.921875q0 -0.671875 -0.125 -1.0q-0.125 -0.328125 -0.453125 -0.515625q-0.328125 -0.203125 -0.765625 -0.203125q-0.703125 0 -1.21875 0.4375q-0.5 0.4375 -0.5 1.6875l0 3.515625l-1.09375 0zm9.213898 -1.4375l0 -2.4375l-2.421875 0l0 -1.03125l2.421875 0l0 -2.421875l1.03125 0l0 2.421875l2.4375 0l0 1.03125l-2.4375 0l0 2.4375l-1.03125 0zm8.794434 1.4375l-1.09375 0l0 -6.96875q-0.40625 0.375 -1.046875 0.75q-0.640625 0.375 -1.140625 0.578125l0 -1.0625q0.90625 -0.4375 1.59375 -1.046875q0.6875 -0.609375 0.96875 -1.1875l0.71875 0l0 8.9375z" fill-rule="nonzero"/><path fill="#000000" d="m417.65756 226.48756l-0.1875 -1.53125q0.546875 0.140625 0.9375 0.140625q0.546875 0 0.875 -0.1875q0.328125 -0.171875 0.546875 -0.5q0.15625 -0.25 0.5 -1.21875q0.046875 -0.140625 0.140625 -0.40625l-3.671875 -9.6875l1.765625 0l2.015625 5.59375q0.390625 1.078125 0.703125 2.25q0.28125 -1.125 0.671875 -2.203125l2.078125 -5.640625l1.640625 0l-3.6875 9.828125q-0.59375 1.609375 -0.921875 2.203125q-0.4375 0.8125 -1.0 1.1875q-0.5625 0.375 -1.34375 0.375q-0.484375 0 -1.0625 -0.203125zm12.984375 -5.1875l0.234375 1.453125q-0.6875 0.140625 -1.234375 0.140625q-0.890625 0 -1.390625 -0.28125q-0.484375 -0.28125 -0.6875 -0.734375q-0.203125 -0.46875 -0.203125 -1.9375l0 -5.578125l-1.203125 0l0 -1.265625l1.203125 0l0 -2.390625l1.625 -0.984375l0 3.375l1.65625 0l0 1.265625l-1.65625 0l0 5.671875q0 0.6875 0.078125 0.890625q0.09375 0.203125 0.28125 0.328125q0.203125 0.109375 0.578125 0.109375q0.265625 0 0.71875 -0.0625z" fill-rule="nonzero"/><path fill="#000000" d="m431.40338 213.09694l0 -1.09375l3.359375 0l0 1.09375l-3.359375 0zm4.563568 2.671875l0 -6.453125l0.984375 0l0 0.921875q0.71875 -1.0625 2.0625 -1.0625q0.578125 0 1.0625 0.21875q0.5 0.203125 0.734375 0.546875q0.25 0.328125 0.34375 0.796875q0.0625 0.3125 0.0625 1.0625l0 3.96875l-1.09375 0l0 -3.921875q0 -0.671875 -0.125 -1.0q-0.125 -0.328125 -0.453125 -0.515625q-0.328125 -0.203125 -0.765625 -0.203125q-0.703125 0 -1.21875 0.4375q-0.5 0.4375 -0.5 1.6875l0 3.515625l-1.09375 0zm9.213928 -1.4375l0 -2.4375l-2.421875 0l0 -1.03125l2.421875 0l0 -2.421875l1.03125 0l0 2.421875l2.4375 0l0 1.03125l-2.4375 0l0 2.4375l-1.03125 0zm8.794434 1.4375l-1.09375 0l0 -6.96875q-0.40625 0.375 -1.046875 0.75q-0.640625 0.375 -1.140625 0.578125l0 -1.0625q0.90625 -0.4375 1.59375 -1.046875q0.6875 -0.609375 0.96875 -1.1875l0.71875 0l0 8.9375z" fill-rule="nonzero"/><path fill="#000000" fill-opacity="0.0" d="m416.5013 265.5013l44.503937 0l0 45.259857l-44.503937 0z" fill-rule="evenodd"/><path fill="#000000" d="m416.64194 283.42133l3.53125 -5.03125l-3.265625 -4.640625l2.046875 0l1.484375 2.265625q0.421875 0.640625 0.671875 1.078125q0.40625 -0.59375 0.734375 -1.0625l1.640625 -2.28125l1.953125 0l-3.34375 4.546875l3.59375 5.125l-2.015625 0l-1.984375 -3.0l-0.515625 -0.8125l-2.546875 3.8125l-1.984375 0z" fill-rule="nonzero"/><path fill="#000000" d="m429.03256 275.43695l0.15625 0.96875q-0.453125 0.09375 -0.828125 0.09375q-0.59375 0 -0.921875 -0.1875q-0.328125 -0.1875 -0.46875 -0.484375q-0.125 -0.3125 -0.125 -1.296875l0 -3.703125l-0.796875 0l0 -0.859375l0.796875 0l0 -1.59375l1.09375 -0.65625l0 2.25l1.09375 0l0 0.859375l-1.09375 0l0 3.765625q0 0.46875 0.046875 0.609375q0.0625 0.125 0.1875 0.203125q0.140625 0.078125 0.390625 0.078125q0.171875 0 0.46875 -0.046875zm0.64297485 -1.6875l0 -1.09375l3.359375 0l0 1.09375l-3.359375 0zm10.016724 1.625l0 1.046875l-5.890625 0q-0.015625 -0.390625 0.125 -0.765625q0.234375 -0.59375 0.71875 -1.171875q0.5 -0.59375 1.4375 -1.359375q1.453125 -1.1875 1.953125 -1.875q0.515625 -0.703125 0.515625 -1.3125q0 -0.65625 -0.46875 -1.09375q-0.453125 -0.453125 -1.203125 -0.453125q-0.796875 0 -1.265625 0.46875q-0.46875 0.46875 -0.484375 1.3125l-1.125 -0.109375q0.125 -1.265625 0.875 -1.921875q0.75 -0.65625 2.015625 -0.65625q1.28125 0 2.03125 0.71875q0.75 0.703125 0.75 1.75q0 0.53125 -0.21875 1.046875q-0.21875 0.515625 -0.734375 1.09375q-0.5 0.5625 -1.671875 1.5625q-0.984375 0.828125 -1.265625 1.125q-0.28125 0.296875 -0.46875 0.59375l4.375 0z" fill-rule="nonzero"/><path fill="#000000" d="m417.65756 309.54007l-0.1875 -1.53125q0.546875 0.140625 0.9375 0.140625q0.546875 0 0.875 -0.1875q0.328125 -0.171875 0.546875 -0.5q0.15625 -0.25 0.5 -1.21875q0.046875 -0.140625 0.140625 -0.40625l-3.671875 -9.6875l1.765625 0l2.015625 5.59375q0.390625 1.078125 0.703125 2.25q0.28125 -1.125 0.671875 -2.203125l2.078125 -5.640625l1.640625 0l-3.6875 9.828125q-0.59375 1.609375 -0.921875 2.203125q-0.4375 0.8125 -1.0 1.1875q-0.5625 0.375 -1.34375 0.375q-0.484375 0 -1.0625 -0.203125z" fill-rule="nonzero"/><path fill="#000000" d="m429.03256 297.83694l0.15625 0.96875q-0.453125 0.09375 -0.828125 0.09375q-0.59375 0 -0.921875 -0.1875q-0.328125 -0.1875 -0.46875 -0.484375q-0.125 -0.3125 -0.125 -1.296875l0 -3.703125l-0.796875 0l0 -0.859375l0.796875 0l0 -1.59375l1.09375 -0.65625l0 2.25l1.09375 0l0 0.859375l-1.09375 0l0 3.765625q0 0.46875 0.046875 0.609375q0.0625 0.125 0.1875 0.203125q0.140625 0.078125 0.390625 0.078125q0.171875 0 0.46875 -0.046875zm0.64297485 -1.6875l0 -1.09375l3.359375 0l0 1.09375l-3.359375 0zm10.016724 1.625l0 1.046875l-5.890625 0q-0.015625 -0.390625 0.125 -0.765625q0.234375 -0.59375 0.71875 -1.171875q0.5 -0.59375 1.4375 -1.359375q1.453125 -1.1875 1.953125 -1.875q0.515625 -0.703125 0.515625 -1.3125q0 -0.65625 -0.46875 -1.09375q-0.453125 -0.453125 -1.203125 -0.453125q-0.796875 0 -1.265625 0.46875q-0.46875 0.46875 -0.484375 1.3125l-1.125 -0.109375q0.125 -1.265625 0.875 -1.921875q0.75 -0.65625 2.015625 -0.65625q1.28125 0 2.03125 0.71875q0.75 0.703125 0.75 1.75q0 0.53125 -0.21875 1.046875q-0.21875 0.515625 -0.734375 1.09375q-0.5 0.5625 -1.671875 1.5625q-0.984375 0.828125 -1.265625 1.125q-0.28125 0.296875 -0.46875 0.59375l4.375 0z" fill-rule="nonzero"/><path fill="#000000" fill-opacity="0.0" d="m416.5013 322.14566l26.519684 0l0 45.259857l-26.519684 0z" fill-rule="evenodd"/><path fill="#000000" d="m416.64194 340.06567l3.53125 -5.03125l-3.265625 -4.640625l2.046875 0l1.484375 2.265625q0.421875 0.640625 0.671875 1.078125q0.40625 -0.59375 0.734375 -1.0625l1.640625 -2.28125l1.953125 0l-3.34375 4.546875l3.59375 5.125l-2.015625 0l-1.984375 -3.0l-0.515625 -0.8125l-2.546875 3.8125l-1.984375 0z" fill-rule="nonzero"/><path fill="#000000" d="m429.03256 332.0813l0.15625 0.96875q-0.453125 0.09375 -0.828125 0.09375q-0.59375 0 -0.921875 -0.1875q-0.328125 -0.1875 -0.46875 -0.484375q-0.125 -0.3125 -0.125 -1.296875l0 -3.703125l-0.796875 0l0 -0.859375l0.796875 0l0 -1.59375l1.09375 -0.65625l0 2.25l1.09375 0l0 0.859375l-1.09375 0l0 3.765625q0 0.46875 0.046875 0.609375q0.0625 0.125 0.1875 0.203125q0.140625 0.078125 0.390625 0.078125q0.171875 0 0.46875 -0.046875zm0.64297485 -1.6875l0 -1.09375l3.359375 0l0 1.09375l-3.359375 0zm8.391724 2.671875l-1.09375 0l0 -6.96875q-0.40625 0.375 -1.046875 0.75q-0.640625 0.375 -1.140625 0.578125l0 -1.0625q0.90625 -0.4375 1.59375 -1.046875q0.6875 -0.609375 0.96875 -1.1875l0.71875 0l0 8.9375z" fill-rule="nonzero"/><path fill="#000000" d="m417.65756 366.18442l-0.1875 -1.53125q0.546875 0.140625 0.9375 0.140625q0.546875 0 0.875 -0.1875q0.328125 -0.171875 0.546875 -0.5q0.15625 -0.25 0.5 -1.21875q0.046875 -0.140625 0.140625 -0.40625l-3.671875 -9.6875l1.765625 0l2.015625 5.59375q0.390625 1.078125 0.703125 2.25q0.28125 -1.125 0.671875 -2.203125l2.078125 -5.640625l1.640625 0l-3.6875 9.828125q-0.59375 1.609375 -0.921875 2.203125q-0.4375 0.8125 -1.0 1.1875q-0.5625 0.375 -1.34375 0.375q-0.484375 0 -1.0625 -0.203125z" fill-rule="nonzero"/><path fill="#000000" d="m429.03256 354.4813l0.15625 0.96875q-0.453125 0.09375 -0.828125 0.09375q-0.59375 0 -0.921875 -0.1875q-0.328125 -0.1875 -0.46875 -0.484375q-0.125 -0.3125 -0.125 -1.296875l0 -3.703125l-0.796875 0l0 -0.859375l0.796875 0l0 -1.59375l1.09375 -0.65625l0 2.25l1.09375 0l0 0.859375l-1.09375 0l0 3.765625q0 0.46875 0.046875 0.609375q0.0625 0.125 0.1875 0.203125q0.140625 0.078125 0.390625 0.078125q0.171875 0 0.46875 -0.046875zm0.64297485 -1.6875l0 -1.09375l3.359375 0l0 1.09375l-3.359375 0zm8.391724 2.671875l-1.09375 0l0 -6.96875q-0.40625 0.375 -1.046875 0.75q-0.640625 0.375 -1.140625 0.578125l0 -1.0625q0.90625 -0.4375 1.59375 -1.046875q0.6875 -0.609375 0.96875 -1.1875l0.71875 0l0 8.9375z" fill-rule="nonzero"/><path fill="#cfe2f3" d="m482.58792 140.84514l0 0c0 -5.2184296 4.230377 -9.448807 9.448822 -9.448807l0 0c2.5059814 0 4.9093323 0.99549866 6.6813354 2.7674866c1.7720032 1.7720032 2.7674866 4.1753387 2.7674866 6.68132l0 0c0 5.218445 -4.230377 9.448822 -9.448822 9.448822l0 0c-5.218445 0 -9.448822 -4.230377 -9.448822 -9.448822z" fill-rule="evenodd"/><path stroke="#000000" stroke-width="1.0" stroke-linejoin="round" stroke-linecap="butt" d="m482.58792 140.84514l0 0c0 -5.2184296 4.230377 -9.448807 9.448822 -9.448807l0 0c2.5059814 0 4.9093323 0.99549866 6.6813354 2.7674866c1.7720032 1.7720032 2.7674866 4.1753387 2.7674866 6.68132l0 0c0 5.218445 -4.230377 9.448822 -9.448822 9.448822l0 0c-5.218445 0 -9.448822 -4.230377 -9.448822 -9.448822z" fill-rule="evenodd"/><path fill="#cfe2f3" d="m482.58792 165.31584l0 0c0 -5.218445 4.230377 -9.448822 9.448822 -9.448822l0 0c2.5059814 0 4.9093323 0.99549866 6.6813354 2.7674866c1.7720032 1.7720032 2.7674866 4.175354 2.7674866 6.6813354l0 0c0 5.2184296 -4.230377 9.448807 -9.448822 9.448807l0 0c-5.218445 0 -9.448822 -4.230377 -9.448822 -9.448807z" fill-rule="evenodd"/><path stroke="#000000" stroke-width="1.0" stroke-linejoin="round" stroke-linecap="butt" d="m482.58792 165.31584l0 0c0 -5.218445 4.230377 -9.448822 9.448822 -9.448822l0 0c2.5059814 0 4.9093323 0.99549866 6.6813354 2.7674866c1.7720032 1.7720032 2.7674866 4.175354 2.7674866 6.6813354l0 0c0 5.2184296 -4.230377 9.448807 -9.448822 9.448807l0 0c-5.218445 0 -9.448822 -4.230377 -9.448822 -9.448807z" fill-rule="evenodd"/><path fill="#cfe2f3" d="m482.58792 189.78653l0 0c0 -5.218445 4.230377 -9.448822 9.448822 -9.448822l0 0c2.5059814 0 4.9093323 0.99549866 6.6813354 2.7675018c1.7720032 1.7719879 2.7674866 4.1753387 2.7674866 6.68132l0 0c0 5.2184296 -4.230377 9.448822 -9.448822 9.448822l0 0c-5.218445 0 -9.448822 -4.2303925 -9.448822 -9.448822z" fill-rule="evenodd"/><path stroke="#000000" stroke-width="1.0" stroke-linejoin="round" stroke-linecap="butt" d="m482.58792 189.78653l0 0c0 -5.218445 4.230377 -9.448822 9.448822 -9.448822l0 0c2.5059814 0 4.9093323 0.99549866 6.6813354 2.7675018c1.7720032 1.7719879 2.7674866 4.1753387 2.7674866 6.68132l0 0c0 5.2184296 -4.230377 9.448822 -9.448822 9.448822l0 0c-5.218445 0 -9.448822 -4.2303925 -9.448822 -9.448822z" fill-rule="evenodd"/><path fill="#cfe2f3" d="m482.58792 214.25722l0 0c0 -5.218445 4.230377 -9.448822 9.448822 -9.448822l0 0c2.5059814 0 4.9093323 0.99549866 6.6813354 2.7675018c1.7720032 1.7719879 2.7674866 4.1753387 2.7674866 6.68132l0 0c0 5.218445 -4.230377 9.448822 -9.448822 9.448822l0 0c-5.218445 0 -9.448822 -4.230377 -9.448822 -9.448822z" fill-rule="evenodd"/><path stroke="#000000" stroke-width="1.0" stroke-linejoin="round" stroke-linecap="butt" d="m482.58792 214.25722l0 0c0 -5.218445 4.230377 -9.448822 9.448822 -9.448822l0 0c2.5059814 0 4.9093323 0.99549866 6.6813354 2.7675018c1.7720032 1.7719879 2.7674866 4.1753387 2.7674866 6.68132l0 0c0 5.218445 -4.230377 9.448822 -9.448822 9.448822l0 0c-5.218445 0 -9.448822 -4.230377 -9.448822 -9.448822z" fill-rule="evenodd"/><path fill="#cfe2f3" d="m482.58792 277.28348l0 0c0 -5.218445 4.230377 -9.448822 9.448822 -9.448822l0 0c2.5059814 0 4.9093323 0.9954834 6.6813354 2.7674866c1.7720032 1.7720032 2.7674866 4.175354 2.7674866 6.6813354l0 0c0 5.2184143 -4.230377 9.4487915 -9.448822 9.4487915l0 0c-5.218445 0 -9.448822 -4.230377 -9.448822 -9.4487915z" fill-rule="evenodd"/><path stroke="#000000" stroke-width="1.0" stroke-linejoin="round" stroke-linecap="butt" d="m482.58792 277.28348l0 0c0 -5.218445 4.230377 -9.448822 9.448822 -9.448822l0 0c2.5059814 0 4.9093323 0.9954834 6.6813354 2.7674866c1.7720032 1.7720032 2.7674866 4.175354 2.7674866 6.6813354l0 0c0 5.2184143 -4.230377 9.4487915 -9.448822 9.4487915l0 0c-5.218445 0 -9.448822 -4.230377 -9.448822 -9.4487915z" fill-rule="evenodd"/><path fill="#cfe2f3" d="m482.58792 301.75415l0 0c0 -5.218445 4.230377 -9.448822 9.448822 -9.448822l0 0c2.5059814 0 4.9093323 0.9955139 6.6813354 2.767517c1.7720032 1.7719727 2.7674866 4.1753235 2.7674866 6.681305l0 0c0 5.218445 -4.230377 9.448822 -9.448822 9.448822l0 0c-5.218445 0 -9.448822 -4.230377 -9.448822 -9.448822z" fill-rule="evenodd"/><path stroke="#000000" stroke-width="1.0" stroke-linejoin="round" stroke-linecap="butt" d="m482.58792 301.75415l0 0c0 -5.218445 4.230377 -9.448822 9.448822 -9.448822l0 0c2.5059814 0 4.9093323 0.9955139 6.6813354 2.767517c1.7720032 1.7719727 2.7674866 4.1753235 2.7674866 6.681305l0 0c0 5.218445 -4.230377 9.448822 -9.448822 9.448822l0 0c-5.218445 0 -9.448822 -4.230377 -9.448822 -9.448822z" fill-rule="evenodd"/><path fill="#cfe2f3" d="m482.58792 326.22485l0 0c0 -5.218445 4.230377 -9.448822 9.448822 -9.448822l0 0c2.5059814 0 4.9093323 0.9954834 6.6813354 2.7674866c1.7720032 1.7720032 2.7674866 4.175354 2.7674866 6.6813354l0 0c0 5.218445 -4.230377 9.448822 -9.448822 9.448822l0 0c-5.218445 0 -9.448822 -4.230377 -9.448822 -9.448822z" fill-rule="evenodd"/><path stroke="#000000" stroke-width="1.0" stroke-linejoin="round" stroke-linecap="butt" d="m482.58792 326.22485l0 0c0 -5.218445 4.230377 -9.448822 9.448822 -9.448822l0 0c2.5059814 0 4.9093323 0.9954834 6.6813354 2.7674866c1.7720032 1.7720032 2.7674866 4.175354 2.7674866 6.6813354l0 0c0 5.218445 -4.230377 9.448822 -9.448822 9.448822l0 0c-5.218445 0 -9.448822 -4.230377 -9.448822 -9.448822z" fill-rule="evenodd"/><path fill="#cfe2f3" d="m482.58792 350.69553l0 0c0 -5.2184143 4.230377 -9.448822 9.448822 -9.448822l0 0c2.5059814 0 4.9093323 0.9955139 6.6813354 2.767517c1.7720032 1.7720032 2.7674866 4.1753235 2.7674866 6.681305l0 0c0 5.218445 -4.230377 9.448822 -9.448822 9.448822l0 0c-5.218445 0 -9.448822 -4.230377 -9.448822 -9.448822z" fill-rule="evenodd"/><path stroke="#000000" stroke-width="1.0" stroke-linejoin="round" stroke-linecap="butt" d="m482.58792 350.69553l0 0c0 -5.2184143 4.230377 -9.448822 9.448822 -9.448822l0 0c2.5059814 0 4.9093323 0.9955139 6.6813354 2.767517c1.7720032 1.7720032 2.7674866 4.1753235 2.7674866 6.681305l0 0c0 5.218445 -4.230377 9.448822 -9.448822 9.448822l0 0c-5.218445 0 -9.448822 -4.230377 -9.448822 -9.448822z" fill-rule="evenodd"/><path fill="#f4cccc" d="m607.2152 233.15573l0 0c0 -5.218445 4.2304077 -9.448822 9.448853 -9.448822l0 0c2.5059814 0 4.9093018 0.99549866 6.6812744 2.7675018c1.7720337 1.7719879 2.767517 4.1753387 2.767517 6.68132l0 0c0 5.218445 -4.2303467 9.448822 -9.4487915 9.448822l0 0c-5.218445 0 -9.448853 -4.230377 -9.448853 -9.448822z" fill-rule="evenodd"/><path stroke="#000000" stroke-width="1.0" stroke-linejoin="round" stroke-linecap="butt" d="m607.2152 233.15573l0 0c0 -5.218445 4.2304077 -9.448822 9.448853 -9.448822l0 0c2.5059814 0 4.9093018 0.99549866 6.6812744 2.7675018c1.7720337 1.7719879 2.767517 4.1753387 2.767517 6.68132l0 0c0 5.218445 -4.2303467 9.448822 -9.4487915 9.448822l0 0c-5.218445 0 -9.448853 -4.230377 -9.448853 -9.448822z" fill-rule="evenodd"/><path fill="#f4cccc" d="m607.2152 257.62643l0 0c0 -5.218445 4.2304077 -9.448837 9.448853 -9.448837l0 0c2.5059814 0 4.9093018 0.99549866 6.6812744 2.7675018c1.7720337 1.7720032 2.767517 4.1753387 2.767517 6.6813354l0 0c0 5.2184143 -4.2303467 9.4487915 -9.4487915 9.4487915l0 0c-5.218445 0 -9.448853 -4.230377 -9.448853 -9.4487915z" fill-rule="evenodd"/><path stroke="#000000" stroke-width="1.0" stroke-linejoin="round" stroke-linecap="butt" d="m607.2152 257.62643l0 0c0 -5.218445 4.2304077 -9.448837 9.448853 -9.448837l0 0c2.5059814 0 4.9093018 0.99549866 6.6812744 2.7675018c1.7720337 1.7720032 2.767517 4.1753387 2.767517 6.6813354l0 0c0 5.2184143 -4.2303467 9.4487915 -9.4487915 9.4487915l0 0c-5.218445 0 -9.448853 -4.230377 -9.448853 -9.4487915z" fill-rule="evenodd"/><path fill="#000000" fill-opacity="0.0" d="m646.50134 223.70473l26.519653 0l0 45.259842l-26.519653 0z" fill-rule="evenodd"/><path fill="#000000" d="m646.64197 241.62473l3.53125 -5.03125l-3.265625 -4.640625l2.046875 0l1.484375 2.265625q0.421875 0.640625 0.671875 1.078125q0.40625 -0.59375 0.734375 -1.0625l1.640625 -2.28125l1.953125 0l-3.34375 4.546875l3.59375 5.125l-2.015625 0l-1.984375 -3.0l-0.515625 -0.8125l-2.546875 3.8125l-1.984375 0z" fill-rule="nonzero"/><path fill="#000000" d="m659.0326 233.64035l0.15625 0.96875q-0.453125 0.09375 -0.828125 0.09375q-0.59375 0 -0.921875 -0.1875q-0.328125 -0.1875 -0.46875 -0.484375q-0.125 -0.3125 -0.125 -1.296875l0 -3.703125l-0.796875 0l0 -0.859375l0.796875 0l0 -1.59375l1.09375 -0.65625l0 2.25l1.09375 0l0 0.859375l-1.09375 0l0 3.765625q0 0.46875 0.046875 0.609375q0.0625 0.125 0.1875 0.203125q0.140625 0.078125 0.390625 0.078125q0.171875 0 0.46875 -0.046875z" fill-rule="nonzero"/><path fill="#000000" d="m647.6576 267.74347l-0.1875 -1.53125q0.546875 0.140625 0.9375 0.140625q0.546875 0 0.875 -0.1875q0.328125 -0.171875 0.546875 -0.5q0.15625 -0.25 0.5 -1.21875q0.046875 -0.140625 0.140625 -0.40625l-3.671875 -9.6875l1.765625 0l2.015625 5.59375q0.390625 1.078125 0.703125 2.25q0.28125 -1.125 0.671875 -2.203125l2.078125 -5.640625l1.640625 0l-3.6875 9.828125q-0.59375 1.609375 -0.921875 2.203125q-0.4375 0.8125 -1.0 1.1875q-0.5625 0.375 -1.34375 0.375q-0.484375 0 -1.0625 -0.203125z" fill-rule="nonzero"/><path fill="#000000" d="m659.0326 256.04034l0.15625 0.96875q-0.453125 0.09375 -0.828125 0.09375q-0.59375 0 -0.921875 -0.1875q-0.328125 -0.1875 -0.46875 -0.484375q-0.125 -0.3125 -0.125 -1.296875l0 -3.703125l-0.796875 0l0 -0.859375l0.796875 0l0 -1.59375l1.09375 -0.65625l0 2.25l1.09375 0l0 0.859375l-1.09375 0l0 3.765625q0 0.46875 0.046875 0.609375q0.0625 0.125 0.1875 0.203125q0.140625 0.078125 0.390625 0.078125q0.171875 0 0.46875 -0.046875z" fill-rule="nonzero"/><path fill="#000000" fill-opacity="0.0" d="m84.68797 180.50363c0 -13.244095 165.9055 -26.48819 331.81104 -26.48819" fill-rule="evenodd"/><path stroke="#000000" stroke-width="1.0" stroke-linejoin="round" stroke-linecap="butt" stroke-dasharray="1.0,3.0" d="m84.68797 180.50363c0 -6.622055 41.47638 -13.244095 103.69095 -18.210632c31.107285 -2.483261 67.39911 -4.552658 106.28322 -6.001236c19.442047 -0.7242737 39.532135 -1.2933655 59.94629 -1.681366c10.207092 -0.1940155 20.495178 -0.34275818 30.823792 -0.4429779c5.164276 -0.050125122 10.338684 -0.08811951 15.518188 -0.113586426c2.5897522 -0.01272583 5.1807556 -0.022323608 7.7723694 -0.028747559c1.2958374 -0.0032043457 2.5918274 -0.0056152344 3.8878784 -0.007232666l0.46124268 -2.746582E-4" fill-rule="evenodd"/><path fill="#000000" stroke="#000000" stroke-width="1.0" stroke-linecap="butt" d="m413.0719 154.01758l-1.1239014 1.1252747l3.0890808 -1.1264954l-3.0904846 -1.1226654z" fill-rule="evenodd"/><path fill="#000000" fill-opacity="0.0" d="m139.72997 232.0102c0 -13.464569 138.37794 -26.929138 276.75592 -26.929138" fill-rule="evenodd"/><path stroke="#000000" stroke-width="1.0" stroke-linejoin="round" stroke-linecap="butt" stroke-dasharray="1.0,3.0" d="m139.72997 232.0102c0 -6.7322845 34.594482 -13.464569 86.48622 -18.513779c25.945862 -2.5246124 56.216034 -4.6284485 88.64838 -6.1011353c16.216156 -0.7363434 32.97287 -1.3148956 49.999817 -1.7093811c8.513489 -0.19721985 17.094574 -0.3484497 25.709412 -0.45033264c4.3074036 -0.050949097 8.6232605 -0.08958435 12.943359 -0.11546326c2.1600647 -0.012954712 4.3211365 -0.022705078 6.4827576 -0.02923584l3.0588684 -0.006942749" fill-rule="evenodd"/><path fill="#000000" stroke="#000000" stroke-width="1.0" stroke-linecap="butt" d="m413.05878 205.08394l-1.1236572 1.1255188l3.0888367 -1.1271667l-3.0907288 -1.121994z" fill-rule="evenodd"/><path fill="#000000" fill-opacity="0.0" d="m239.98425 331.24408c0 -21.559052 88.25195 -43.118103 176.50394 -43.118103" fill-rule="evenodd"/><path stroke="#000000" stroke-width="1.0" stroke-linejoin="round" stroke-linecap="butt" stroke-dasharray="1.0,3.0" d="m239.98425 331.24408c0 -10.7795105 22.062988 -21.559052 55.15747 -29.643677c16.547241 -4.042328 35.852356 -7.410919 56.536438 -9.768951c10.3420105 -1.1790161 21.028778 -2.1053772 31.887909 -2.7369995c5.429596 -0.3157959 10.902222 -0.55792236 16.396393 -0.72109985c2.7471313 -0.08157349 5.4996033 -0.1434021 8.254822 -0.18487549c1.3775635 -0.020721436 2.7557983 -0.036346436 4.13443 -0.046783447l0.7093811 -0.0040283203" fill-rule="evenodd"/><path fill="#000000" stroke="#000000" stroke-width="1.0" stroke-linecap="butt" d="m413.06113 288.13766l-1.120758 1.1283875l3.0859375 -1.1351013l-3.0935974 -1.1140442z" fill-rule="evenodd"/><path fill="#000000" fill-opacity="0.0" d="m280.77954 369.03937c0 -12.125977 67.858246 -24.251953 135.71652 -24.251953" fill-rule="evenodd"/><path stroke="#000000" stroke-width="1.0" stroke-linejoin="round" stroke-linecap="butt" stroke-dasharray="1.0,3.0" d="m280.77954 369.03937c0 -6.0629883 16.964539 -12.125977 42.411407 -16.673218c12.723419 -2.2736206 27.567413 -4.1683044 43.47171 -5.4945984c7.952118 -0.663147 16.169373 -1.1841736 24.519104 -1.5394592c4.1748657 -0.1776123 8.382874 -0.31375122 12.607452 -0.4055481c2.1122742 -0.045898438 4.2286987 -0.08065796 6.3471985 -0.104003906c0.52963257 -0.0058288574 1.0593567 -0.010955811 1.5892334 -0.015319824l1.3433228 -0.009277344" fill-rule="evenodd"/><path fill="#000000" stroke="#000000" stroke-width="1.0" stroke-linecap="butt" d="m413.069 344.79794l-1.1211243 1.1280212l3.0863037 -1.1340637l-3.0932312 -1.1150818z" fill-rule="evenodd"/><path fill="#000000" fill-opacity="0.0" d="m333.4449 420.25986c0 12.499695 96.38779 34.92755 182.28882 24.99942c85.901 -9.928101 161.31525 -52.21219 182.28882 -99.46036c20.973572 -47.24814 -12.49353 -99.46034 -24.98706 -99.46034" fill-rule="evenodd"/><path stroke="#000000" stroke-width="1.0" stroke-linejoin="round" stroke-linecap="butt" stroke-dasharray="1.0,3.0" d="m333.4449 420.25986c0 12.499695 96.38779 34.92755 182.28882 24.99942c85.901 -9.928131 161.31525 -52.21219 182.28876 -99.46036c10.486816 -23.624054 7.3634644 -48.489136 0.05670166 -67.44821c-3.6533813 -9.479553 -8.3526 -17.482574 -12.919373 -23.115723c-2.2833862 -2.816574 -4.5336304 -5.04068 -6.6034546 -6.560623c-0.51745605 -0.37998962 -1.0236206 -0.7159729 -1.5162354 -1.0061951c-0.123168945 -0.0725708 -0.24542236 -0.14227295 -0.36688232 -0.20907593l-0.34191895 -0.18132019" fill-rule="evenodd"/><path fill="#000000" stroke="#000000" stroke-width="1.0" stroke-linecap="butt" d="m676.3313 247.27777l1.3897095 -0.77334595l-3.279663 0.23478699l2.66333 1.9282684z" fill-rule="evenodd"/><path fill="#000000" fill-opacity="0.0" d="m482.58792 140.84514l0 209.85826" fill-rule="evenodd"/><path stroke="#000000" stroke-width="1.0" stroke-linejoin="round" stroke-linecap="butt" d="m482.58792 140.84514l0 209.85826" fill-rule="evenodd"/><path fill="#000000" fill-opacity="0.0" d="m626.11285 233.15573l0 24.472443" fill-rule="evenodd"/><path stroke="#000000" stroke-width="1.0" stroke-linejoin="round" stroke-linecap="butt" d="m626.11285 233.15573l0 24.472443" fill-rule="evenodd"/><path fill="#000000" fill-opacity="0.0" d="m501.48557 140.84514l0 209.85826" fill-rule="evenodd"/><path stroke="#000000" stroke-width="1.0" stroke-linejoin="round" stroke-linecap="butt" d="m501.48557 140.84514l0 209.85826" fill-rule="evenodd"/><path fill="#000000" fill-opacity="0.0" d="m607.2152 233.15573l0 24.472443" fill-rule="evenodd"/><path stroke="#000000" stroke-width="1.0" stroke-linejoin="round" stroke-linecap="butt" d="m607.2152 233.15573l0 24.472443" fill-rule="evenodd"/><path fill="#fff2cc" d="m554.3504 188.54068l0 0c0 -5.2184296 4.2303467 -9.448822 9.4487915 -9.448822l0 0l0 0c2.5059814 0 4.909363 0.99549866 6.6813354 2.7675018c1.7720337 1.7720032 2.767517 4.1753387 2.767517 6.68132l0 115.590546c0 5.218445 -4.2304077 9.448822 -9.448853 9.448822l0 0l0 0c-5.218445 0 -9.4487915 -4.230377 -9.4487915 -9.448822z" fill-rule="evenodd"/><path stroke="#000000" stroke-width="1.0" stroke-linejoin="round" stroke-linecap="butt" d="m554.3504 188.54068l0 0c0 -5.2184296 4.2303467 -9.448822 9.4487915 -9.448822l0 0l0 0c2.5059814 0 4.909363 0.99549866 6.6813354 2.7675018c1.7720337 1.7720032 2.767517 4.1753387 2.767517 6.68132l0 115.590546c0 5.218445 -4.2304077 9.448822 -9.448853 9.448822l0 0l0 0c-5.218445 0 -9.4487915 -4.230377 -9.4487915 -9.448822z" fill-rule="evenodd"/><path fill="#000000" fill-opacity="0.0" d="m502.00394 245.48557l52.346466 0.8503876" fill-rule="evenodd"/><path stroke="#000000" stroke-width="1.0" stroke-linejoin="round" stroke-linecap="butt" d="m502.00394 245.48557l46.34726 0.7529297" fill-rule="evenodd"/><path fill="#000000" stroke="#000000" stroke-width="1.0" stroke-linecap="butt" d="m548.32434 247.89001l4.564331 -1.5778046l-4.510681 -1.7252197z" fill-rule="evenodd"/><path fill="#000000" fill-opacity="0.0" d="m573.24805 246.33595l30.740112 -0.81889343" fill-rule="evenodd"/><path stroke="#000000" stroke-width="1.0" stroke-linejoin="round" stroke-linecap="butt" d="m573.24805 246.33595l24.742249 -0.65911865" fill-rule="evenodd"/><path fill="#000000" stroke="#000000" stroke-width="1.0" stroke-linecap="butt" d="m598.0343 247.32799l4.4924927 -1.7720032l-4.5804443 -1.5302887z" fill-rule="evenodd"/></g></svg>