<svg version="1.1" viewBox="0.0 0.0 1134.3202099737532 392.18110236220474" fill="none" stroke="none" stroke-linecap="square" stroke-miterlimit="10" xmlns:xlink="http://www.w3.org/1999/xlink" xmlns="http://www.w3.org/2000/svg"><clipPath id="p.0"><path d="m0 0l1134.3202 0l0 392.1811l-1134.3202 0l0 -392.1811z" clip-rule="nonzero"/></clipPath><g clip-path="url(#p.0)"><path fill="#000000" fill-opacity="0.0" d="m0 0l1134.3202 0l0 392.1811l-1134.3202 0z" fill-rule="evenodd"/><path fill="#93c47d" d="m42.408142 171.23633l0 0c0 -5.9136505 4.793968 -10.707626 10.70763 -10.707626l127.98268 0c2.8398285 0 5.5633698 1.128128 7.5714264 3.1361847c2.008072 2.008072 3.1362 4.731598 3.1362 7.5714417l0 42.82924c0 5.913666 -4.793976 10.707642 -10.707626 10.707642l-127.98268 0c-5.913662 0 -10.70763 -4.793976 -10.70763 -10.707642z" fill-rule="evenodd"/><path stroke="#000000" stroke-width="1.0" stroke-linejoin="round" stroke-linecap="butt" d="m42.408142 171.23633l0 0c0 -5.9136505 4.793968 -10.707626 10.70763 -10.707626l127.98268 0c2.8398285 0 5.5633698 1.128128 7.5714264 3.1361847c2.008072 2.008072 3.1362 4.731598 3.1362 7.5714417l0 42.82924c0 5.913666 -4.793976 10.707642 -10.707626 10.707642l-127.98268 0c-5.913662 0 -10.70763 -4.793976 -10.70763 -10.707642z" fill-rule="evenodd"/><path fill="#000000" fill-opacity="0.0" d="m117.10711 296.69885l0 -71.925644" fill-rule="evenodd"/><path stroke="#000000" stroke-width="3.0" stroke-linejoin="round" stroke-linecap="butt" d="m117.10711 296.69885l0 -53.925644" fill-rule="evenodd"/><path fill="#000000" stroke="#000000" stroke-width="3.0" stroke-linecap="butt" d="m122.06231 242.77321l-4.9552 -13.614288l-4.9552 13.614288z" fill-rule="evenodd"/><path fill="#000000" fill-opacity="0.0" d="m84.96904 328.8211l0 0c0 -17.740631 14.388702 -32.122253 32.13807 -32.122253l0 0c8.523544 0 16.69799 3.3843079 22.725044 9.408386c6.027054 6.024109 9.413025 14.194519 9.413025 22.713867l0 0c0 17.740631 -14.388702 32.122253 -32.13807 32.122253l0 0c-17.749367 0 -32.13807 -14.381622 -32.13807 -32.122253z" fill-rule="evenodd"/><path stroke="#000000" stroke-width="3.0" stroke-linejoin="round" stroke-linecap="butt" d="m84.96904 328.8211l0 0c0 -17.740631 14.388702 -32.122253 32.13807 -32.122253l0 0c8.523544 0 16.69799 3.3843079 22.725044 9.408386c6.027054 6.024109 9.413025 14.194519 9.413025 22.713867l0 0c0 17.740631 -14.388702 32.122253 -32.13807 32.122253l0 0c-17.749367 0 -32.13807 -14.381622 -32.13807 -32.122253z" fill-rule="evenodd"/><path fill="#000000" d="m106.89289 338.4211l4.984375 -7.125l-4.78125 -6.703125l4.46875 0l2.453125 3.8125l2.578125 -3.8125l4.28125 0l-4.671875 6.546875l5.109375 7.28125l-4.484375 0l-2.8125 -4.28125l-2.84375 4.28125l-4.28125 0z" fill-rule="nonzero"/><path fill="#000000" d="m127.06158 319.20236l0 1.953125l-1.671875 0l0 3.703125q0 1.140625 0.046875 1.328125q0.046875 0.171875 0.21875 0.296875q0.171875 0.125 0.421875 0.125q0.328125 0 0.96875 -0.234375l0.21875 1.890625q-0.859375 0.359375 -1.921875 0.359375q-0.671875 0 -1.203125 -0.21875q-0.515625 -0.21875 -0.765625 -0.5625q-0.25 -0.359375 -0.34375 -0.953125q-0.078125 -0.421875 -0.078125 -1.71875l0 -4.015625l-1.125 0l0 -1.953125l1.125 0l0 -1.828125l2.4375 -1.421875l0 3.25l1.671875 0z" fill-rule="nonzero"/><path fill="#000000" fill-opacity="0.0" d="m117.10711 160.5287l0 -62.506264" fill-rule="evenodd"/><path stroke="#000000" stroke-width="3.0" stroke-linejoin="round" stroke-linecap="butt" d="m117.10711 160.5287l0 -44.506256" fill-rule="evenodd"/><path fill="#000000" stroke="#000000" stroke-width="3.0" stroke-linecap="butt" d="m122.06231 116.022446l-4.9552 -13.614296l-4.9552 13.614296z" fill-rule="evenodd"/><path fill="#000000" fill-opacity="0.0" d="m84.96904 65.900185l0 0c0 -17.740627 14.388702 -32.12225 32.13807 -32.12225l0 0c8.523544 0 16.69799 3.3843002 22.725044 9.40839c6.027054 6.02409 9.413025 14.194511 9.413025 22.71386l0 0c0 17.740631 -14.388702 32.122253 -32.13807 32.122253l0 0c-17.749367 0 -32.13807 -14.381622 -32.13807 -32.122253z" fill-rule="evenodd"/><path stroke="#000000" stroke-width="3.0" stroke-linejoin="round" stroke-linecap="butt" d="m84.96904 65.900185l0 0c0 -17.740627 14.388702 -32.12225 32.13807 -32.12225l0 0c8.523544 0 16.69799 3.3843002 22.725044 9.40839c6.027054 6.02409 9.413025 14.194511 9.413025 22.71386l0 0c0 17.740631 -14.388702 32.122253 -32.13807 32.122253l0 0c-17.749367 0 -32.13807 -14.381622 -32.13807 -32.122253z" fill-rule="evenodd"/><path fill="#000000" d="m106.92414 61.672062l3.890625 0l3.296875 9.812504l3.234375 -9.812504l3.78125 0l-4.875 13.312504l-0.875 2.40625q-0.484375 1.203125 -0.921875 1.84375q-0.4375 0.640625 -1.0 1.03125q-0.5625 0.40625 -1.390625 0.625q-0.828125 0.21875 -1.859375 0.21875q-1.0625 0 -2.078125 -0.21875l-0.328125 -2.859375q0.859375 0.15625 1.546875 0.15625q1.28125 0 1.890625 -0.75q0.609375 -0.734375 0.9375 -1.90625l-5.25 -13.859379z" fill-rule="nonzero"/><path fill="#000000" d="m127.06158 56.281437l0 1.953125l-1.671875 0l0 3.703125q0 1.140625 0.046875 1.328125q0.046875 0.171875 0.21875 0.296875q0.171875 0.125 0.421875 0.125q0.328125 0 0.96875 -0.234375l0.21875 1.8906288q-0.859375 0.359375 -1.921875 0.359375q-0.671875 0 -1.203125 -0.21875q-0.515625 -0.21875 -0.765625 -0.5625q-0.25 -0.359375 -0.34375 -0.9531288q-0.078125 -0.421875 -0.078125 -1.71875l0 -4.015625l-1.125 0l0 -1.953125l1.125 0l0 -1.828125l2.4375 -1.421875l0 3.25l1.671875 0z" fill-rule="nonzero"/></g></svg>