<svg version="1.1" viewBox="0.0 0.0 1134.3202099737532 392.18110236220474" fill="none" stroke="none" stroke-linecap="square" stroke-miterlimit="10" xmlns:xlink="http://www.w3.org/1999/xlink" xmlns="http://www.w3.org/2000/svg"><clipPath id="p.0"><path d="m0 0l1134.3202 0l0 392.1811l-1134.3202 0l0 -392.1811z" clip-rule="nonzero"/></clipPath><g clip-path="url(#p.0)"><path fill="#000000" fill-opacity="0.0" d="m0 0l1134.3202 0l0 392.1811l-1134.3202 0z" fill-rule="evenodd"/><path fill="#93c47d" d="m42.408142 171.37727l0 0c0 -5.991501 4.857071 -10.848572 10.848572 -10.848572l127.70079 0c2.8772125 0 5.6365967 1.1429749 7.671097 3.177475c2.0345001 2.0345001 3.177475 4.793869 3.177475 7.671097l0 43.39299c0 5.991501 -4.857071 10.848572 -10.848572 10.848572l-127.70079 0c-5.991501 0 -10.848572 -4.857071 -10.848572 -10.848572z" fill-rule="evenodd"/><path stroke="#000000" stroke-width="1.0" stroke-linejoin="round" stroke-linecap="butt" d="m42.408142 171.37727l0 0c0 -5.991501 4.857071 -10.848572 10.848572 -10.848572l127.70079 0c2.8772125 0 5.6365967 1.1429749 7.671097 3.177475c2.0345001 2.0345001 3.177475 4.793869 3.177475 7.671097l0 43.39299c0 5.991501 -4.857071 10.848572 -10.848572 10.848572l-127.70079 0c-5.991501 0 -10.848572 -4.857071 -10.848572 -10.848572z" fill-rule="evenodd"/><path fill="#000000" fill-opacity="0.0" d="m117.11078 296.69885l0 -71.08661" fill-rule="evenodd"/><path stroke="#000000" stroke-width="3.0" stroke-linejoin="round" stroke-linecap="butt" d="m117.11078 296.69885l0 -53.08661" fill-rule="evenodd"/><path fill="#000000" stroke="#000000" stroke-width="3.0" stroke-linecap="butt" d="m122.06598 243.61224l-4.9552 -13.614288l-4.9552 13.614288z" fill-rule="evenodd"/><path fill="#000000" fill-opacity="0.0" d="m84.96904 328.82486l0 0c0 -17.742706 14.39035 -32.126007 32.14174 -32.126007l0 0c8.524513 0 16.69989 3.3847046 22.72763 9.409485c6.0277405 6.024811 9.414093 14.196167 9.414093 22.716522l0 0c0 17.742676 -14.390335 32.125977 -32.141724 32.125977l0 0c-17.751389 0 -32.14174 -14.383301 -32.14174 -32.125977z" fill-rule="evenodd"/><path stroke="#000000" stroke-width="3.0" stroke-linejoin="round" stroke-linecap="butt" d="m84.96904 328.82486l0 0c0 -17.742706 14.39035 -32.126007 32.14174 -32.126007l0 0c8.524513 0 16.69989 3.3847046 22.72763 9.409485c6.0277405 6.024811 9.414093 14.196167 9.414093 22.716522l0 0c0 17.742676 -14.390335 32.125977 -32.141724 32.125977l0 0c-17.751389 0 -32.14174 -14.383301 -32.14174 -32.125977z" fill-rule="evenodd"/><path fill="#000000" d="m106.89656 338.42484l4.984375 -7.125l-4.78125 -6.703125l4.46875 0l2.453125 3.8125l2.578125 -3.8125l4.28125 0l-4.671875 6.546875l5.109375 7.28125l-4.484375 0l-2.8125 -4.28125l-2.84375 4.28125l-4.28125 0z" fill-rule="nonzero"/><path fill="#000000" d="m127.06525 319.2061l0 1.953125l-1.671875 0l0 3.703125q0 1.140625 0.046875 1.328125q0.046875 0.171875 0.21875 0.296875q0.171875 0.125 0.421875 0.125q0.328125 0 0.96875 -0.234375l0.21875 1.890625q-0.859375 0.359375 -1.921875 0.359375q-0.671875 0 -1.203125 -0.21875q-0.515625 -0.21875 -0.765625 -0.5625q-0.25 -0.359375 -0.34375 -0.953125q-0.078125 -0.421875 -0.078125 -1.71875l0 -4.015625l-1.125 0l0 -1.953125l1.125 0l0 -1.828125l2.4375 -1.421875l0 3.25l1.671875 0z" fill-rule="nonzero"/><path fill="#000000" fill-opacity="0.0" d="m117.10711 160.5287l0 -62.48819" fill-rule="evenodd"/><path stroke="#000000" stroke-width="3.0" stroke-linejoin="round" stroke-linecap="butt" d="m117.10711 160.5287l0 -44.488197" fill-rule="evenodd"/><path fill="#000000" stroke="#000000" stroke-width="3.0" stroke-linecap="butt" d="m122.06231 116.040504l-4.9552 -13.614288l-4.9552 13.614288z" fill-rule="evenodd"/><path fill="#000000" fill-opacity="0.0" d="m84.96904 65.90392l0 0c0 -17.742695 14.39035 -32.125988 32.14174 -32.125988l0 0c8.524513 0 16.69989 3.3846931 22.72763 9.409485c6.0277405 6.024788 9.414093 14.196159 9.414093 22.716503l0 0c0 17.742691 -14.390335 32.125984 -32.141724 32.125984l0 0c-17.751389 0 -32.14174 -14.383293 -32.14174 -32.125984z" fill-rule="evenodd"/><path stroke="#000000" stroke-width="3.0" stroke-linejoin="round" stroke-linecap="butt" d="m84.96904 65.90392l0 0c0 -17.742695 14.39035 -32.125988 32.14174 -32.125988l0 0c8.524513 0 16.69989 3.3846931 22.72763 9.409485c6.0277405 6.024788 9.414093 14.196159 9.414093 22.716503l0 0c0 17.742691 -14.390335 32.125984 -32.141724 32.125984l0 0c-17.751389 0 -32.14174 -14.383293 -32.14174 -32.125984z" fill-rule="evenodd"/><path fill="#000000" d="m106.92781 61.675793l3.890625 0l3.296875 9.812496l3.234375 -9.812496l3.78125 0l-4.875 13.312496l-0.875 2.40625q-0.484375 1.203125 -0.921875 1.84375q-0.4375 0.640625 -1.0 1.03125q-0.5625 0.40625 -1.390625 0.625q-0.828125 0.21875 -1.859375 0.21875q-1.0625 0 -2.078125 -0.21875l-0.328125 -2.859375q0.859375 0.15625 1.546875 0.15625q1.28125 0 1.890625 -0.75q0.609375 -0.734375 0.9375 -1.90625l-5.25 -13.859371z" fill-rule="nonzero"/><path fill="#000000" d="m127.06525 56.285168l0 1.953125l-1.671875 0l0 3.703125q0 1.140625 0.046875 1.328125q0.046875 0.171875 0.21875 0.296875q0.171875 0.125 0.421875 0.125q0.328125 0 0.96875 -0.234375l0.21875 1.8906212q-0.859375 0.359375 -1.921875 0.359375q-0.671875 0 -1.203125 -0.21875q-0.515625 -0.21875 -0.765625 -0.5625q-0.25 -0.359375 -0.34375 -0.9531212q-0.078125 -0.421875 -0.078125 -1.71875l0 -4.015625l-1.125 0l0 -1.953125l1.125 0l0 -1.828125l2.4375 -1.421875l0 3.25l1.671875 0z" fill-rule="nonzero"/><path fill="#000000" fill-opacity="0.0" d="m206.19423 5.8296742l0.724411 374.4882" fill-rule="evenodd"/><path stroke="#000000" stroke-width="2.0" stroke-linejoin="round" stroke-linecap="butt" stroke-dasharray="8.0,6.0" d="m206.19423 5.8296742l0.724411 374.4882" fill-rule="evenodd"/><path fill="#93c47d" d="m268.6995 171.37727l0 0c0 -5.991501 4.8570557 -10.848572 10.848572 -10.848572l127.700775 0c2.8772278 0 5.6365967 1.1429749 7.671112 3.177475c2.0344849 2.0345001 3.1774597 4.793869 3.1774597 7.671097l0 43.39299c0 5.991501 -4.8570557 10.848572 -10.848572 10.848572l-127.700775 0c-5.991516 0 -10.848572 -4.857071 -10.848572 -10.848572z" fill-rule="evenodd"/><path stroke="#000000" stroke-width="1.0" stroke-linejoin="round" stroke-linecap="butt" d="m268.6995 171.37727l0 0c0 -5.991501 4.8570557 -10.848572 10.848572 -10.848572l127.700775 0c2.8772278 0 5.6365967 1.1429749 7.671112 3.177475c2.0344849 2.0345001 3.1774597 4.793869 3.1774597 7.671097l0 43.39299c0 5.991501 -4.8570557 10.848572 -10.848572 10.848572l-127.700775 0c-5.991516 0 -10.848572 -4.857071 -10.848572 -10.848572z" fill-rule="evenodd"/><path fill="#000000" fill-opacity="0.0" d="m343.39844 296.69885l0 -71.08002" fill-rule="evenodd"/><path stroke="#000000" stroke-width="3.0" stroke-linejoin="round" stroke-linecap="butt" d="m343.39847 296.69885l0 -53.080017" fill-rule="evenodd"/><path fill="#000000" stroke="#000000" stroke-width="3.0" stroke-linecap="butt" d="m348.35367 243.61882l-4.9552 -13.614288l-4.9552 13.614288z" fill-rule="evenodd"/><path fill="#000000" fill-opacity="0.0" d="m311.26038 328.8211l0 0c0 -17.740631 14.388702 -32.122253 32.13806 -32.122253l0 0c8.52356 0 16.697998 3.3843079 22.725067 9.408386c6.0270386 6.024109 9.412994 14.194519 9.412994 22.713867l0 0c0 17.740631 -14.388702 32.122253 -32.13806 32.122253l0 0c-17.74936 0 -32.13806 -14.381622 -32.13806 -32.122253z" fill-rule="evenodd"/><path stroke="#000000" stroke-width="3.0" stroke-linejoin="round" stroke-linecap="butt" d="m311.26038 328.8211l0 0c0 -17.740631 14.388702 -32.122253 32.13806 -32.122253l0 0c8.52356 0 16.697998 3.3843079 22.725067 9.408386c6.0270386 6.024109 9.412994 14.194519 9.412994 22.713867l0 0c0 17.740631 -14.388702 32.122253 -32.13806 32.122253l0 0c-17.74936 0 -32.13806 -14.381622 -32.13806 -32.122253z" fill-rule="evenodd"/><path fill="#000000" d="m331.20212 338.4211l4.984375 -7.125l-4.78125 -6.703125l4.46875 0l2.453125 3.8125l2.578125 -3.8125l4.28125 0l-4.671875 6.546875l5.109375 7.28125l-4.484375 0l-2.8125 -4.28125l-2.84375 4.28125l-4.28125 0z" fill-rule="nonzero"/><path fill="#000000" d="m352.85516 328.4211l-2.4375 0l0 -9.1875q-1.328125 1.25 -3.140625 1.84375l0 -2.203125q0.953125 -0.3125 2.0625 -1.1875q1.125 -0.875 1.546875 -2.03125l1.96875 0l0 12.765625z" fill-rule="nonzero"/><path fill="#000000" fill-opacity="0.0" d="m343.39844 160.5287l0 -62.506264" fill-rule="evenodd"/><path stroke="#000000" stroke-width="3.0" stroke-linejoin="round" stroke-linecap="butt" d="m343.39847 160.5287l0 -44.506256" fill-rule="evenodd"/><path fill="#000000" stroke="#000000" stroke-width="3.0" stroke-linecap="butt" d="m348.35367 116.022446l-4.9552 -13.614296l-4.9552 13.614296z" fill-rule="evenodd"/><path fill="#000000" fill-opacity="0.0" d="m311.26038 65.900185l0 0c0 -17.740627 14.388702 -32.12225 32.13806 -32.12225l0 0c8.52356 0 16.697998 3.3843002 22.725067 9.40839c6.0270386 6.02409 9.412994 14.194511 9.412994 22.71386l0 0c0 17.740631 -14.388702 32.122253 -32.13806 32.122253l0 0c-17.74936 0 -32.13806 -14.381622 -32.13806 -32.122253z" fill-rule="evenodd"/><path stroke="#000000" stroke-width="3.0" stroke-linejoin="round" stroke-linecap="butt" d="m311.26038 65.900185l0 0c0 -17.740627 14.388702 -32.12225 32.13806 -32.12225l0 0c8.52356 0 16.697998 3.3843002 22.725067 9.40839c6.0270386 6.02409 9.412994 14.194511 9.412994 22.71386l0 0c0 17.740631 -14.388702 32.122253 -32.13806 32.122253l0 0c-17.74936 0 -32.13806 -14.381622 -32.13806 -32.122253z" fill-rule="evenodd"/><path fill="#000000" d="m331.23337 61.672062l3.890625 0l3.296875 9.812504l3.234375 -9.812504l3.78125 0l-4.875 13.312504l-0.875 2.40625q-0.484375 1.203125 -0.921875 1.84375q-0.4375 0.640625 -1.0 1.03125q-0.5625 0.40625 -1.390625 0.625q-0.828125 0.21875 -1.859375 0.21875q-1.0625 0 -2.078125 -0.21875l-0.328125 -2.859375q0.859375 0.15625 1.546875 0.15625q1.28125 0 1.890625 -0.75q0.609375 -0.734375 0.9375 -1.90625l-5.25 -13.859379z" fill-rule="nonzero"/><path fill="#000000" d="m352.85516 65.50019l-2.4375 0l0 -9.187504q-1.328125 1.25 -3.140625 1.84375l0 -2.203125q0.953125 -0.3125 2.0625 -1.1875q1.125 -0.875 1.546875 -2.03125l1.96875 0l0 12.765629z" fill-rule="nonzero"/><path fill="#93c47d" d="m473.64697 171.37727l0 0c0 -5.991501 4.857086 -10.848572 10.848602 -10.848572l127.700775 0c2.8771973 0 5.6365967 1.1429749 7.6710815 3.177475c2.034546 2.0345001 3.1774902 4.793869 3.1774902 7.671097l0 43.39299c0 5.991501 -4.8570557 10.848572 -10.848572 10.848572l-127.700775 0c-5.991516 0 -10.848602 -4.857071 -10.848602 -10.848572z" fill-rule="evenodd"/><path stroke="#000000" stroke-width="1.0" stroke-linejoin="round" stroke-linecap="butt" d="m473.64697 171.37727l0 0c0 -5.991501 4.857086 -10.848572 10.848602 -10.848572l127.700775 0c2.8771973 0 5.6365967 1.1429749 7.6710815 3.177475c2.034546 2.0345001 3.1774902 4.793869 3.1774902 7.671097l0 43.39299c0 5.991501 -4.8570557 10.848572 -10.848572 10.848572l-127.700775 0c-5.991516 0 -10.848602 -4.857071 -10.848602 -10.848572z" fill-rule="evenodd"/><path fill="#000000" fill-opacity="0.0" d="m548.34595 296.69885l0 -71.08002" fill-rule="evenodd"/><path stroke="#000000" stroke-width="3.0" stroke-linejoin="round" stroke-linecap="butt" d="m548.34595 296.69885l0 -53.080017" fill-rule="evenodd"/><path fill="#000000" stroke="#000000" stroke-width="3.0" stroke-linecap="butt" d="m553.30115 243.61882l-4.9552 -13.614288l-4.9552 13.614288z" fill-rule="evenodd"/><path fill="#000000" fill-opacity="0.0" d="m516.2079 328.8211l0 0c0 -17.740631 14.388733 -32.122253 32.13806 -32.122253l0 0c8.52356 0 16.697998 3.3843079 22.725037 9.408386c6.0270996 6.024109 9.413025 14.194519 9.413025 22.713867l0 0c0 17.740631 -14.388672 32.122253 -32.13806 32.122253l0 0c-17.749329 0 -32.13806 -14.381622 -32.13806 -32.122253z" fill-rule="evenodd"/><path stroke="#000000" stroke-width="3.0" stroke-linejoin="round" stroke-linecap="butt" d="m516.2079 328.8211l0 0c0 -17.740631 14.388733 -32.122253 32.13806 -32.122253l0 0c8.52356 0 16.697998 3.3843079 22.725037 9.408386c6.0270996 6.024109 9.413025 14.194519 9.413025 22.713867l0 0c0 17.740631 -14.388672 32.122253 -32.13806 32.122253l0 0c-17.749329 0 -32.13806 -14.381622 -32.13806 -32.122253z" fill-rule="evenodd"/><path fill="#000000" d="m536.1496 338.4211l4.984375 -7.125l-4.78125 -6.703125l4.46875 0l2.453125 3.8125l2.578125 -3.8125l4.28125 0l-4.671875 6.546875l5.109375 7.28125l-4.484375 0l-2.8125 -4.28125l-2.84375 4.28125l-4.28125 0z" fill-rule="nonzero"/><path fill="#000000" d="m559.8027 326.1555l0 2.265625l-8.546875 0q0.140625 -1.28125 0.828125 -2.421875q0.703125 -1.15625 2.75 -3.0625q1.65625 -1.53125 2.015625 -2.078125q0.515625 -0.75 0.515625 -1.5q0 -0.8125 -0.4375 -1.25q-0.4375 -0.4375 -1.21875 -0.4375q-0.765625 0 -1.21875 0.46875q-0.4375 0.453125 -0.515625 1.515625l-2.421875 -0.234375q0.21875 -2.015625 1.359375 -2.890625q1.140625 -0.875 2.859375 -0.875q1.875 0 2.953125 1.015625q1.078125 1.015625 1.078125 2.515625q0 0.859375 -0.3125 1.640625q-0.296875 0.78125 -0.96875 1.625q-0.4375 0.5625 -1.59375 1.625q-1.15625 1.0625 -1.46875 1.40625q-0.296875 0.34375 -0.5 0.671875l4.84375 0z" fill-rule="nonzero"/><path fill="#000000" fill-opacity="0.0" d="m548.34595 160.5287l0 -62.506264" fill-rule="evenodd"/><path stroke="#000000" stroke-width="3.0" stroke-linejoin="round" stroke-linecap="butt" d="m548.34595 160.5287l0 -44.506256" fill-rule="evenodd"/><path fill="#000000" stroke="#000000" stroke-width="3.0" stroke-linecap="butt" d="m553.30115 116.022446l-4.9552 -13.614296l-4.9552 13.614296z" fill-rule="evenodd"/><path fill="#000000" fill-opacity="0.0" d="m516.2079 65.900185l0 0c0 -17.740627 14.388733 -32.12225 32.13806 -32.12225l0 0c8.52356 0 16.697998 3.3843002 22.725037 9.40839c6.0270996 6.02409 9.413025 14.194511 9.413025 22.71386l0 0c0 17.740631 -14.388672 32.122253 -32.13806 32.122253l0 0c-17.749329 0 -32.13806 -14.381622 -32.13806 -32.122253z" fill-rule="evenodd"/><path stroke="#000000" stroke-width="3.0" stroke-linejoin="round" stroke-linecap="butt" d="m516.2079 65.900185l0 0c0 -17.740627 14.388733 -32.12225 32.13806 -32.12225l0 0c8.52356 0 16.697998 3.3843002 22.725037 9.40839c6.0270996 6.02409 9.413025 14.194511 9.413025 22.71386l0 0c0 17.740631 -14.388672 32.122253 -32.13806 32.122253l0 0c-17.749329 0 -32.13806 -14.381622 -32.13806 -32.122253z" fill-rule="evenodd"/><path fill="#000000" d="m536.18085 61.672062l3.890625 0l3.296875 9.812504l3.234375 -9.812504l3.78125 0l-4.875 13.312504l-0.875 2.40625q-0.484375 1.203125 -0.921875 1.84375q-0.4375 0.640625 -1.0 1.03125q-0.5625 0.40625 -1.390625 0.625q-0.828125 0.21875 -1.859375 0.21875q-1.0625 0 -2.078125 -0.21875l-0.328125 -2.859375q0.859375 0.15625 1.546875 0.15625q1.28125 0 1.890625 -0.75q0.609375 -0.734375 0.9375 -1.90625l-5.25 -13.859379z" fill-rule="nonzero"/><path fill="#000000" d="m559.8027 63.234562l0 2.2656288l-8.546875 0q0.140625 -1.28125 0.828125 -2.4218788q0.703125 -1.15625 2.75 -3.0625q1.65625 -1.53125 2.015625 -2.078125q0.515625 -0.75 0.515625 -1.5q0 -0.8125 -0.4375 -1.25q-0.4375 -0.4375 -1.21875 -0.4375q-0.765625 0 -1.21875 0.46875q-0.4375 0.453125 -0.515625 1.515625l-2.421875 -0.234375q0.21875 -2.015625 1.359375 -2.890625q1.140625 -0.875 2.859375 -0.875q1.875 0 2.953125 1.015625q1.078125 1.015625 1.078125 2.515625q0 0.859375 -0.3125 1.640625q-0.296875 0.78125 -0.96875 1.625q-0.4375 0.5625 -1.59375 1.625q-1.15625 1.0625 -1.46875 1.40625q-0.296875 0.34375 -0.5 0.671875l4.84375 0z" fill-rule="nonzero"/><path fill="#93c47d" d="m678.5945 171.37727l0 0c0 -5.991501 4.8570557 -10.848572 10.848572 -10.848572l127.700806 0c2.8771973 0 5.6365967 1.1429749 7.6710815 3.177475c2.0344849 2.0345001 3.1774902 4.793869 3.1774902 7.671097l0 43.39299c0 5.991501 -4.8570557 10.848572 -10.848572 10.848572l-127.700806 0c-5.991516 0 -10.848572 -4.857071 -10.848572 -10.848572z" fill-rule="evenodd"/><path stroke="#000000" stroke-width="1.0" stroke-linejoin="round" stroke-linecap="butt" d="m678.5945 171.37727l0 0c0 -5.991501 4.8570557 -10.848572 10.848572 -10.848572l127.700806 0c2.8771973 0 5.6365967 1.1429749 7.6710815 3.177475c2.0344849 2.0345001 3.1774902 4.793869 3.1774902 7.671097l0 43.39299c0 5.991501 -4.8570557 10.848572 -10.848572 10.848572l-127.700806 0c-5.991516 0 -10.848572 -4.857071 -10.848572 -10.848572z" fill-rule="evenodd"/><path fill="#000000" fill-opacity="0.0" d="m753.29346 296.69885l0 -71.08002" fill-rule="evenodd"/><path stroke="#000000" stroke-width="3.0" stroke-linejoin="round" stroke-linecap="butt" d="m753.29346 296.69885l0 -53.080017" fill-rule="evenodd"/><path fill="#000000" stroke="#000000" stroke-width="3.0" stroke-linecap="butt" d="m758.24866 243.61882l-4.9552 -13.614288l-4.9552 13.614288z" fill-rule="evenodd"/><path fill="#000000" fill-opacity="0.0" d="m721.1554 328.8211l0 0c0 -17.740631 14.388672 -32.122253 32.13806 -32.122253l0 0c8.52356 0 16.697998 3.3843079 22.725037 9.408386c6.0270386 6.024109 9.413025 14.194519 9.413025 22.713867l0 0c0 17.740631 -14.388672 32.122253 -32.13806 32.122253l0 0c-17.74939 0 -32.13806 -14.381622 -32.13806 -32.122253z" fill-rule="evenodd"/><path stroke="#000000" stroke-width="3.0" stroke-linejoin="round" stroke-linecap="butt" d="m721.1554 328.8211l0 0c0 -17.740631 14.388672 -32.122253 32.13806 -32.122253l0 0c8.52356 0 16.697998 3.3843079 22.725037 9.408386c6.0270386 6.024109 9.413025 14.194519 9.413025 22.713867l0 0c0 17.740631 -14.388672 32.122253 -32.13806 32.122253l0 0c-17.74939 0 -32.13806 -14.381622 -32.13806 -32.122253z" fill-rule="evenodd"/><path fill="#000000" d="m741.0971 338.4211l4.984375 -7.125l-4.78125 -6.703125l4.46875 0l2.453125 3.8125l2.578125 -3.8125l4.28125 0l-4.671875 6.546875l5.109375 7.28125l-4.484375 0l-2.8125 -4.28125l-2.84375 4.28125l-4.28125 0z" fill-rule="nonzero"/><path fill="#000000" d="m756.4377 325.0461l2.359375 -0.28125q0.109375 0.890625 0.59375 1.375q0.5 0.484375 1.203125 0.484375q0.765625 0 1.28125 -0.578125q0.515625 -0.578125 0.515625 -1.546875q0 -0.921875 -0.5 -1.453125q-0.5 -0.546875 -1.203125 -0.546875q-0.46875 0 -1.125 0.1875l0.265625 -1.984375q1.0 0.03125 1.515625 -0.421875q0.515625 -0.46875 0.515625 -1.21875q0 -0.640625 -0.390625 -1.015625q-0.375 -0.390625 -1.0 -0.390625q-0.625 0 -1.078125 0.4375q-0.4375 0.4375 -0.53125 1.265625l-2.25 -0.390625q0.234375 -1.140625 0.703125 -1.828125q0.484375 -0.703125 1.328125 -1.09375q0.84375 -0.390625 1.890625 -0.390625q1.796875 0 2.890625 1.140625q0.890625 0.9375 0.890625 2.125q0 1.671875 -1.828125 2.671875q1.09375 0.234375 1.734375 1.046875q0.65625 0.8125 0.65625 1.96875q0 1.671875 -1.21875 2.859375q-1.21875 1.171875 -3.046875 1.171875q-1.71875 0 -2.859375 -0.984375q-1.140625 -1.0 -1.3125 -2.609375z" fill-rule="nonzero"/><path fill="#000000" fill-opacity="0.0" d="m753.29346 160.5287l0 -62.506264" fill-rule="evenodd"/><path stroke="#000000" stroke-width="3.0" stroke-linejoin="round" stroke-linecap="butt" d="m753.29346 160.5287l0 -44.506256" fill-rule="evenodd"/><path fill="#000000" stroke="#000000" stroke-width="3.0" stroke-linecap="butt" d="m758.24866 116.022446l-4.9552 -13.614296l-4.9552 13.614296z" fill-rule="evenodd"/><path fill="#000000" fill-opacity="0.0" d="m721.1554 65.900185l0 0c0 -17.740627 14.388672 -32.12225 32.13806 -32.12225l0 0c8.52356 0 16.697998 3.3843002 22.725037 9.40839c6.0270386 6.02409 9.413025 14.194511 9.413025 22.71386l0 0c0 17.740631 -14.388672 32.122253 -32.13806 32.122253l0 0c-17.74939 0 -32.13806 -14.381622 -32.13806 -32.122253z" fill-rule="evenodd"/><path stroke="#000000" stroke-width="3.0" stroke-linejoin="round" stroke-linecap="butt" d="m721.1554 65.900185l0 0c0 -17.740627 14.388672 -32.12225 32.13806 -32.12225l0 0c8.52356 0 16.697998 3.3843002 22.725037 9.40839c6.0270386 6.02409 9.413025 14.194511 9.413025 22.71386l0 0c0 17.740631 -14.388672 32.122253 -32.13806 32.122253l0 0c-17.74939 0 -32.13806 -14.381622 -32.13806 -32.122253z" fill-rule="evenodd"/><path fill="#000000" d="m741.12836 61.672062l3.890625 0l3.296875 9.812504l3.234375 -9.812504l3.78125 0l-4.875 13.312504l-0.875 2.40625q-0.484375 1.203125 -0.921875 1.84375q-0.4375 0.640625 -1.0 1.03125q-0.5625 0.40625 -1.390625 0.625q-0.828125 0.21875 -1.859375 0.21875q-1.0625 0 -2.078125 -0.21875l-0.328125 -2.859375q0.859375 0.15625 1.546875 0.15625q1.28125 0 1.890625 -0.75q0.609375 -0.734375 0.9375 -1.90625l-5.25 -13.859379z" fill-rule="nonzero"/><path fill="#000000" d="m756.4377 62.125187l2.359375 -0.28125q0.109375 0.890625 0.59375 1.375q0.5 0.484375 1.203125 0.484375q0.765625 0 1.28125 -0.578125q0.515625 -0.578125 0.515625 -1.546875q0 -0.921875 -0.5 -1.453125q-0.5 -0.546875 -1.203125 -0.546875q-0.46875 0 -1.125 0.1875l0.265625 -1.984375q1.0 0.03125 1.515625 -0.421875q0.515625 -0.46875 0.515625 -1.21875q0 -0.640625 -0.390625 -1.015625q-0.375 -0.390625 -1.0 -0.390625q-0.625 0 -1.078125 0.4375q-0.4375 0.4375 -0.53125 1.265625l-2.25 -0.390625q0.234375 -1.140625 0.703125 -1.828125q0.484375 -0.703125 1.328125 -1.09375q0.84375 -0.390625 1.890625 -0.390625q1.796875 0 2.890625 1.140625q0.890625 0.9375 0.890625 2.125q0 1.671875 -1.828125 2.671875q1.09375 0.234375 1.734375 1.046875q0.65625 0.8125 0.65625 1.96875q0 1.671875 -1.21875 2.8593788q-1.21875 1.171875 -3.046875 1.171875q-1.71875 0 -2.859375 -0.984375q-1.140625 -1.0000038 -1.3125 -2.6093788z" fill-rule="nonzero"/><path fill="#93c47d" d="m975.82806 171.37727l0 0c0 -5.991501 4.8571167 -10.848572 10.848572 -10.848572l127.700806 0c2.8771973 0 5.6365967 1.1429749 7.6711426 3.177475c2.0344238 2.0345001 3.1774902 4.793869 3.1774902 7.671097l0 43.39299c0 5.991501 -4.8571777 10.848572 -10.848633 10.848572l-127.700806 0c-5.991455 0 -10.848572 -4.857071 -10.848572 -10.848572z" fill-rule="evenodd"/><path stroke="#000000" stroke-width="1.0" stroke-linejoin="round" stroke-linecap="butt" d="m975.82806 171.37727l0 0c0 -5.991501 4.8571167 -10.848572 10.848572 -10.848572l127.700806 0c2.8771973 0 5.6365967 1.1429749 7.6711426 3.177475c2.0344238 2.0345001 3.1774902 4.793869 3.1774902 7.671097l0 43.39299c0 5.991501 -4.8571777 10.848572 -10.848633 10.848572l-127.700806 0c-5.991455 0 -10.848572 -4.857071 -10.848572 -10.848572z" fill-rule="evenodd"/><path fill="#000000" fill-opacity="0.0" d="m1050.5271 296.69885l0 -71.08002" fill-rule="evenodd"/><path stroke="#000000" stroke-width="3.0" stroke-linejoin="round" stroke-linecap="butt" d="m1050.5271 296.69885l0 -53.080017" fill-rule="evenodd"/><path fill="#000000" stroke="#000000" stroke-width="3.0" stroke-linecap="butt" d="m1055.4823 243.61882l-4.9552 -13.614288l-4.9552 13.614288z" fill-rule="evenodd"/><path fill="#000000" fill-opacity="0.0" d="m1018.389 328.8211l0 0c0 -17.740631 14.388733 -32.122253 32.138123 -32.122253l0 0c8.52356 0 16.697998 3.3843079 22.724976 9.408386c6.0270996 6.024109 9.413086 14.194519 9.413086 22.713867l0 0c0 17.740631 -14.388794 32.122253 -32.13806 32.122253l0 0c-17.74939 0 -32.138123 -14.381622 -32.138123 -32.122253z" fill-rule="evenodd"/><path stroke="#000000" stroke-width="3.0" stroke-linejoin="round" stroke-linecap="butt" d="m1018.389 328.8211l0 0c0 -17.740631 14.388733 -32.122253 32.138123 -32.122253l0 0c8.52356 0 16.697998 3.3843079 22.724976 9.408386c6.0270996 6.024109 9.413086 14.194519 9.413086 22.713867l0 0c0 17.740631 -14.388794 32.122253 -32.13806 32.122253l0 0c-17.74939 0 -32.138123 -14.381622 -32.138123 -32.122253z" fill-rule="evenodd"/><path fill="#000000" d="m1037.845 338.4211l4.984375 -7.125l-4.78125 -6.703125l4.46875 0l2.453125 3.8125l2.578125 -3.8125l4.28125 0l-4.671875 6.546875l5.109375 7.28125l-4.484375 0l-2.8125 -4.28125l-2.84375 4.28125l-4.28125 0z" fill-rule="nonzero"/><path fill="#000000" d="m1062.1699 328.4211l-2.4375 0l0 -4.703125q0 -1.484375 -0.15625 -1.921875q-0.15625 -0.4375 -0.515625 -0.6875q-0.34375 -0.25 -0.84375 -0.25q-0.625 0 -1.140625 0.359375q-0.5 0.34375 -0.6875 0.921875q-0.171875 0.5625 -0.171875 2.109375l0 4.171875l-2.4375 0l0 -9.21875l2.25 0l0 1.359375q1.21875 -1.5625 3.046875 -1.5625q0.796875 0 1.46875 0.296875q0.671875 0.28125 1.015625 0.734375q0.34375 0.453125 0.46875 1.03125q0.140625 0.5625 0.140625 1.640625l0 5.71875z" fill-rule="nonzero"/><path fill="#000000" fill-opacity="0.0" d="m1050.5271 160.5287l0 -62.506264" fill-rule="evenodd"/><path stroke="#000000" stroke-width="3.0" stroke-linejoin="round" stroke-linecap="butt" d="m1050.5271 160.5287l0 -44.506256" fill-rule="evenodd"/><path fill="#000000" stroke="#000000" stroke-width="3.0" stroke-linecap="butt" d="m1055.4823 116.022446l-4.9552 -13.614296l-4.9552 13.614296z" fill-rule="evenodd"/><path fill="#000000" fill-opacity="0.0" d="m1018.389 65.900185l0 0c0 -17.740627 14.388733 -32.12225 32.138123 -32.12225l0 0c8.52356 0 16.697998 3.3843002 22.724976 9.40839c6.0270996 6.02409 9.413086 14.194511 9.413086 22.71386l0 0c0 17.740631 -14.388794 32.122253 -32.13806 32.122253l0 0c-17.74939 0 -32.138123 -14.381622 -32.138123 -32.122253z" fill-rule="evenodd"/><path stroke="#000000" stroke-width="3.0" stroke-linejoin="round" stroke-linecap="butt" d="m1018.389 65.900185l0 0c0 -17.740627 14.388733 -32.12225 32.138123 -32.12225l0 0c8.52356 0 16.697998 3.3843002 22.724976 9.40839c6.0270996 6.02409 9.413086 14.194511 9.413086 22.71386l0 0c0 17.740631 -14.388794 32.122253 -32.13806 32.122253l0 0c-17.74939 0 -32.138123 -14.381622 -32.138123 -32.122253z" fill-rule="evenodd"/><path fill="#000000" d="m1037.8762 61.672062l3.890625 0l3.296875 9.812504l3.234375 -9.812504l3.78125 0l-4.875 13.312504l-0.875 2.40625q-0.484375 1.203125 -0.921875 1.84375q-0.4375 0.640625 -1.0 1.03125q-0.5625 0.40625 -1.390625 0.625q-0.828125 0.21875 -1.859375 0.21875q-1.0625 0 -2.078125 -0.21875l-0.328125 -2.859375q0.859375 0.15625 1.546875 0.15625q1.28125 0 1.890625 -0.75q0.609375 -0.734375 0.9375 -1.90625l-5.25 -13.859379z" fill-rule="nonzero"/><path fill="#000000" d="m1062.1699 65.50019l-2.4375 0l0 -4.703129q0 -1.484375 -0.15625 -1.921875q-0.15625 -0.4375 -0.515625 -0.6875q-0.34375 -0.25 -0.84375 -0.25q-0.625 0 -1.140625 0.359375q-0.5 0.34375 -0.6875 0.921875q-0.171875 0.5625 -0.171875 2.109375l0 4.171879l-2.4375 0l0 -9.218754l2.25 0l0 1.359375q1.21875 -1.5625 3.046875 -1.5625q0.796875 0 1.46875 0.296875q0.671875 0.28125 1.015625 0.734375q0.34375 0.453125 0.46875 1.03125q0.140625 0.5625 0.140625 1.640625l0 5.718754z" fill-rule="nonzero"/><path fill="#000000" fill-opacity="0.0" d="m936.647 191.34149l39.18109 1.7322693" fill-rule="evenodd"/><path stroke="#000000" stroke-width="3.0" stroke-linejoin="round" stroke-linecap="butt" stroke-dasharray="3.0,9.0" d="m936.647 191.34149l21.19867 0.9372406" fill-rule="evenodd"/><path fill="#000000" stroke="#000000" stroke-width="3.0" stroke-linecap="butt" d="m957.6268 197.2291l13.819885 -4.3490295l-13.382141 -5.551697z" fill-rule="evenodd"/><path fill="#000000" fill-opacity="0.0" d="m418.0974 193.07376l55.55905 0" fill-rule="evenodd"/><path stroke="#000000" stroke-width="3.0" stroke-linejoin="round" stroke-linecap="butt" d="m418.0974 193.07378l37.55905 0" fill-rule="evenodd"/><path fill="#000000" stroke="#000000" stroke-width="3.0" stroke-linecap="butt" d="m455.65646 198.02898l13.614288 -4.9552l-13.614288 -4.9552z" fill-rule="evenodd"/><path fill="#000000" fill-opacity="0.0" d="m413.73544 164.80418l0 0c0 -15.376999 14.39035 -27.842514 32.141724 -27.842514l0 0c17.751404 0 32.141754 12.465515 32.141754 27.842514l0 0c0 15.376999 -14.39035 27.842514 -32.141754 27.842514l0 0c-17.751373 0 -32.141724 -12.465515 -32.141724 -27.842514z" fill-rule="evenodd"/><path fill="#000000" d="m438.35822 155.32605l0 7.015625q1.765625 -2.078125 4.21875 -2.078125q1.265625 0 2.28125 0.46875q1.015625 0.46875 1.53125 1.203125q0.515625 0.734375 0.703125 1.625q0.1875 0.875 0.1875 2.734375l0 8.109375l-3.65625 0l0 -7.296875q0 -2.171875 -0.21875 -2.75q-0.203125 -0.59375 -0.734375 -0.9375q-0.515625 -0.359375 -1.3125 -0.359375q-0.90625 0 -1.625 0.453125q-0.71875 0.4375 -1.046875 1.328125q-0.328125 0.890625 -0.328125 2.640625l0 6.921875l-3.65625 0l0 -19.078125l3.65625 0z" fill-rule="nonzero"/><path fill="#000000" d="m456.06277 164.40417l-2.4375 0l0 -9.1875q-1.328125 1.25 -3.140625 1.84375l0 -2.203125q0.953125 -0.3125 2.0625 -1.1875q1.125 -0.875 1.546875 -2.03125l1.96875 0l0 12.765625z" fill-rule="nonzero"/><path fill="#000000" fill-opacity="0.0" d="m622.0502 192.96616l55.559082 0" fill-rule="evenodd"/><path stroke="#000000" stroke-width="3.0" stroke-linejoin="round" stroke-linecap="butt" d="m622.0502 192.96617l37.55902 0" fill-rule="evenodd"/><path fill="#000000" stroke="#000000" stroke-width="3.0" stroke-linecap="butt" d="m659.6092 197.92136l13.614319 -4.955185l-13.614319 -4.9552z" fill-rule="evenodd"/><path fill="#000000" fill-opacity="0.0" d="m617.68823 164.91048l0 0c0 -15.376999 14.39032 -27.842514 32.141724 -27.842514l0 0c17.751343 0 32.141724 12.465515 32.141724 27.842514l0 0c0 15.376999 -14.390381 27.84253 -32.141724 27.84253l0 0c-17.751404 0 -32.141724 -12.46553 -32.141724 -27.84253z" fill-rule="evenodd"/><path fill="#000000" d="m642.311 155.43236l0 7.015625q1.765625 -2.078125 4.21875 -2.078125q1.265625 0 2.28125 0.46875q1.015625 0.46875 1.53125 1.203125q0.515625 0.734375 0.703125 1.625q0.1875 0.875 0.1875 2.734375l0 8.109375l-3.65625 0l0 -7.296875q0 -2.171875 -0.21875 -2.75q-0.203125 -0.59375 -0.734375 -0.9375q-0.515625 -0.359375 -1.3125 -0.359375q-0.90625 0 -1.625 0.453125q-0.71875 0.4375 -1.046875 1.328125q-0.328125 0.890625 -0.328125 2.640625l0 6.921875l-3.65625 0l0 -19.078125l3.65625 0z" fill-rule="nonzero"/><path fill="#000000" d="m662.01556 162.24486l0 2.265625l-8.546875 0q0.140625 -1.28125 0.828125 -2.421875q0.703125 -1.15625 2.75 -3.0625q1.65625 -1.53125 2.015625 -2.078125q0.515625 -0.75 0.515625 -1.5q0 -0.8125 -0.4375 -1.25q-0.4375 -0.4375 -1.21875 -0.4375q-0.765625 0 -1.21875 0.46875q-0.4375 0.453125 -0.515625 1.515625l-2.421875 -0.234375q0.21875 -2.015625 1.359375 -2.890625q1.140625 -0.875 2.859375 -0.875q1.875 0 2.953125 1.015625q1.078125 1.015625 1.078125 2.515625q0 0.859375 -0.3125 1.640625q-0.296875 0.78125 -0.96875 1.625q-0.4375 0.5625 -1.59375 1.625q-1.15625 1.0625 -1.46875 1.40625q-0.296875 0.34375 -0.5 0.671875l4.84375 0z" fill-rule="nonzero"/><path fill="#000000" fill-opacity="0.0" d="m905.75195 165.01575l0 0c0 -15.376999 20.848755 -27.842514 46.566956 -27.842514l0 0c25.7182 0 46.566895 12.465515 46.566895 27.842514l0 0c0 15.376999 -20.848694 27.842514 -46.566895 27.842514l0 0c-25.7182 0 -46.566956 -12.465515 -46.566956 -27.842514z" fill-rule="evenodd"/><path fill="#000000" d="m936.416 155.53763l0 7.015625q1.765625 -2.078125 4.21875 -2.078125q1.265625 0 2.28125 0.46875q1.015625 0.46875 1.53125 1.203125q0.515625 0.734375 0.703125 1.625q0.1875 0.875 0.1875 2.734375l0 8.109375l-3.65625 0l0 -7.296875q0 -2.171875 -0.21875 -2.75q-0.203125 -0.59375 -0.734375 -0.9375q-0.515625 -0.359375 -1.3125 -0.359375q-0.90625 0 -1.625 0.453125q-0.71875 0.4375 -1.046875 1.328125q-0.328125 0.890625 -0.328125 2.640625l0 6.921875l-3.65625 0l0 -19.078125l3.65625 0z" fill-rule="nonzero"/><path fill="#000000" d="m956.7925 164.61575l-2.4375 0l0 -4.703125q0 -1.484375 -0.15625 -1.921875q-0.15625 -0.4375 -0.515625 -0.6875q-0.34375 -0.25 -0.84375 -0.25q-0.625 0 -1.140625 0.359375q-0.5 0.34375 -0.6875 0.921875q-0.171875 0.5625 -0.171875 2.109375l0 4.171875l-2.4375 0l0 -9.21875l2.25 0l0 1.359375q1.21875 -1.5625 3.046875 -1.5625q0.796875 0 1.46875 0.296875q0.671875 0.28125 1.015625 0.734375q0.34375 0.453125 0.46875 1.03125q0.140625 0.5625 0.140625 1.640625l0 5.71875zm2.1955566 -3.390625l0 -2.4375l4.796875 0l0 2.4375l-4.796875 0zm11.90033 3.390625l-2.4375 0l0 -9.1875q-1.328125 1.25 -3.140625 1.84375l0 -2.203125q0.953125 -0.3125 2.0625 -1.1875q1.125 -0.875 1.546875 -2.03125l1.96875 0l0 12.765625z" fill-rule="nonzero"/><path fill="#000000" fill-opacity="0.0" d="m832.3546 192.96616l55.559082 0" fill-rule="evenodd"/><path stroke="#000000" stroke-width="3.0" stroke-linejoin="round" stroke-linecap="butt" d="m832.3547 192.96617l37.55902 0" fill-rule="evenodd"/><path fill="#000000" stroke="#000000" stroke-width="3.0" stroke-linecap="butt" d="m869.9137 197.92136l13.614319 -4.955185l-13.614319 -4.9552z" fill-rule="evenodd"/><path fill="#000000" fill-opacity="0.0" d="m827.9927 164.91048l0 0c0 -15.376999 14.39032 -27.842514 32.141724 -27.842514l0 0c17.751404 0 32.141724 12.465515 32.141724 27.842514l0 0c0 15.376999 -14.39032 27.84253 -32.141724 27.84253l0 0c-17.751404 0 -32.141724 -12.46553 -32.141724 -27.84253z" fill-rule="evenodd"/><path fill="#000000" d="m852.6154 155.43236l0 7.015625q1.765625 -2.078125 4.21875 -2.078125q1.265625 0 2.28125 0.46875q1.015625 0.46875 1.53125 1.203125q0.515625 0.734375 0.703125 1.625q0.1875 0.875 0.1875 2.734375l0 8.109375l-3.65625 0l0 -7.296875q0 -2.171875 -0.21875 -2.75q-0.203125 -0.59375 -0.734375 -0.9375q-0.515625 -0.359375 -1.3125 -0.359375q-0.90625 0 -1.625 0.453125q-0.71875 0.4375 -1.046875 1.328125q-0.328125 0.890625 -0.328125 2.640625l0 6.921875l-3.65625 0l0 -19.078125l3.65625 0z" fill-rule="nonzero"/><path fill="#000000" d="m864.0075 161.13548l2.359375 -0.28125q0.109375 0.890625 0.59375 1.375q0.5 0.484375 1.203125 0.484375q0.765625 0 1.28125 -0.578125q0.515625 -0.578125 0.515625 -1.546875q0 -0.921875 -0.5 -1.453125q-0.5 -0.546875 -1.203125 -0.546875q-0.46875 0 -1.125 0.1875l0.265625 -1.984375q1.0 0.03125 1.515625 -0.421875q0.515625 -0.46875 0.515625 -1.21875q0 -0.640625 -0.390625 -1.015625q-0.375 -0.390625 -1.0 -0.390625q-0.625 0 -1.078125 0.4375q-0.4375 0.4375 -0.53125 1.265625l-2.25 -0.390625q0.234375 -1.140625 0.703125 -1.828125q0.484375 -0.703125 1.328125 -1.09375q0.84375 -0.390625 1.890625 -0.390625q1.796875 0 2.890625 1.140625q0.890625 0.9375 0.890625 2.125q0 1.671875 -1.828125 2.671875q1.09375 0.234375 1.734375 1.046875q0.65625 0.8125 0.65625 1.96875q0 1.671875 -1.21875 2.859375q-1.21875 1.171875 -3.046875 1.171875q-1.71875 0 -2.859375 -0.984375q-1.140625 -1.0 -1.3125 -2.609375z" fill-rule="nonzero"/><path fill="#000000" fill-opacity="0.0" d="m223.6916 192.44385l45.00789 0.62991333" fill-rule="evenodd"/><path stroke="#000000" stroke-width="3.0" stroke-linejoin="round" stroke-linecap="butt" d="m223.6916 192.44386l27.009628 0.37800598" fill-rule="evenodd"/><path fill="#000000" stroke="#000000" stroke-width="3.0" stroke-linecap="butt" d="m250.6319 197.7766l13.682312 -4.7641907l-13.543625 -5.145233z" fill-rule="evenodd"/><path fill="#000000" fill-opacity="0.0" d="m206.19476 165.0181l0 0c0 -15.376999 14.39035 -27.84253 32.14174 -27.84253l0 0c17.751389 0 32.14174 12.46553 32.14174 27.84253l0 0c0 15.376999 -14.39035 27.842514 -32.14174 27.842514l0 0c-17.751389 0 -32.14174 -12.465515 -32.14174 -27.842514z" fill-rule="evenodd"/><path fill="#000000" d="m230.81752 155.53996l0 7.015625q1.765625 -2.078125 4.21875 -2.078125q1.265625 0 2.28125 0.46875q1.015625 0.46875 1.53125 1.203125q0.515625 0.734375 0.703125 1.625q0.1875 0.875 0.1875 2.734375l0 8.109375l-3.65625 0l0 -7.296875q0 -2.171875 -0.21875 -2.75q-0.203125 -0.59375 -0.734375 -0.9375q-0.515625 -0.359375 -1.3125 -0.359375q-0.90625 0 -1.625 0.453125q-0.71875 0.4375 -1.046875 1.328125q-0.328125 0.890625 -0.328125 2.640625l0 6.921875l-3.65625 0l0 -19.078125l3.65625 0z" fill-rule="nonzero"/><path fill="#000000" d="m246.41272 151.85246q1.84375 0 2.890625 1.3125q1.234375 1.5625 1.234375 5.1875q0 3.609375 -1.25 5.1875q-1.03125 1.296875 -2.875 1.296875q-1.859375 0 -3.0 -1.421875q-1.125 -1.4375 -1.125 -5.09375q0 -3.59375 1.25 -5.171875q1.03125 -1.296875 2.875 -1.296875zm0 2.015625q-0.4375 0 -0.796875 0.28125q-0.34375 0.28125 -0.53125 1.015625q-0.25 0.9375 -0.25 3.1875q0 2.234375 0.21875 3.078125q0.234375 0.828125 0.578125 1.109375q0.34375 0.28125 0.78125 0.28125q0.4375 0 0.78125 -0.28125q0.359375 -0.296875 0.546875 -1.015625q0.25 -0.9375 0.25 -3.171875q0 -2.25 -0.234375 -3.078125q-0.21875 -0.84375 -0.5625 -1.125q-0.34375 -0.28125 -0.78125 -0.28125z" fill-rule="nonzero"/></g></svg>