<svg version="1.1" viewBox="0.0 0.0 319.1916010498688 365.06299212598424" fill="none" stroke="none" stroke-linecap="square" stroke-miterlimit="10" xmlns:xlink="http://www.w3.org/1999/xlink" xmlns="http://www.w3.org/2000/svg"><clipPath id="p.0"><path d="m0 0l319.1916 0l0 365.063l-319.1916 0l0 -365.063z" clip-rule="nonzero"/></clipPath><g clip-path="url(#p.0)"><path fill="#000000" fill-opacity="0.0" d="m0 0l319.1916 0l0 365.063l-319.1916 0z" fill-rule="evenodd"/><path fill="#93c47d" d="m82.40814 155.37932l0 0c0 -5.99263 4.8579865 -10.850616 10.850609 -10.850616l127.68461 0c2.8777618 0 5.6376495 1.1431885 7.6725464 3.17807c2.0348816 2.0348816 3.17807 4.7947845 3.17807 7.6725464l0 43.40114c0 5.99263 -4.8579865 10.850601 -10.850616 10.850601l-127.68461 0c-5.9926224 0 -10.850609 -4.857971 -10.850609 -10.850601z" fill-rule="evenodd"/><path stroke="#000000" stroke-width="1.0" stroke-linejoin="round" stroke-linecap="butt" d="m82.40814 155.37932l0 0c0 -5.99263 4.8579865 -10.850616 10.850609 -10.850616l127.68461 0c2.8777618 0 5.6376495 1.1431885 7.6725464 3.17807c2.0348816 2.0348816 3.17807 4.7947845 3.17807 7.6725464l0 43.40114c0 5.99263 -4.8579865 10.850601 -10.850616 10.850601l-127.68461 0c-5.9926224 0 -10.850609 -4.857971 -10.850609 -10.850601z" fill-rule="evenodd"/><path fill="#000000" fill-opacity="0.0" d="m157.11078 280.69885l0 -71.055115" fill-rule="evenodd"/><path stroke="#000000" stroke-width="3.0" stroke-linejoin="round" stroke-linecap="butt" d="m157.11078 280.69885l0 -53.055115" fill-rule="evenodd"/><path fill="#000000" stroke="#000000" stroke-width="3.0" stroke-linecap="butt" d="m162.06598 227.64374l-4.9552 -13.614288l-4.9552 13.614288z" fill-rule="evenodd"/><path fill="#000000" fill-opacity="0.0" d="m124.96904 312.82486l0 0c0 -17.742706 14.39035 -32.126007 32.14174 -32.126007l0 0c8.524521 0 16.69989 3.3847046 22.72763 9.409485c6.0277405 6.024811 9.414093 14.196167 9.414093 22.716522l0 0c0 17.742676 -14.390335 32.125977 -32.141724 32.125977l0 0c-17.751389 0 -32.14174 -14.383301 -32.14174 -32.125977z" fill-rule="evenodd"/><path stroke="#000000" stroke-width="3.0" stroke-linejoin="round" stroke-linecap="butt" d="m124.96904 312.82486l0 0c0 -17.742706 14.39035 -32.126007 32.14174 -32.126007l0 0c8.524521 0 16.69989 3.3847046 22.72763 9.409485c6.0277405 6.024811 9.414093 14.196167 9.414093 22.716522l0 0c0 17.742676 -14.390335 32.125977 -32.141724 32.125977l0 0c-17.751389 0 -32.14174 -14.383301 -32.14174 -32.125977z" fill-rule="evenodd"/><path fill="#000000" d="m146.89656 322.42484l4.984375 -7.125l-4.78125 -6.703125l4.46875 0l2.453125 3.8125l2.578125 -3.8125l4.28125 0l-4.671875 6.546875l5.109375 7.28125l-4.484375 0l-2.8125 -4.28125l-2.84375 4.28125l-4.28125 0z" fill-rule="nonzero"/><path fill="#000000" d="m167.06525 303.2061l0 1.953125l-1.671875 0l0 3.703125q0 1.140625 0.046875 1.328125q0.046875 0.171875 0.21875 0.296875q0.171875 0.125 0.421875 0.125q0.328125 0 0.96875 -0.234375l0.21875 1.890625q-0.859375 0.359375 -1.921875 0.359375q-0.671875 0 -1.203125 -0.21875q-0.515625 -0.21875 -0.765625 -0.5625q-0.25 -0.359375 -0.34375 -0.953125q-0.078125 -0.421875 -0.078125 -1.71875l0 -4.015625l-1.125 0l0 -1.953125l1.125 0l0 -1.828125l2.4375 -1.421875l0 3.25l1.671875 0z" fill-rule="nonzero"/><path fill="#000000" fill-opacity="0.0" d="m157.10106 144.5287l0 -62.48819" fill-rule="evenodd"/><path stroke="#000000" stroke-width="3.0" stroke-linejoin="round" stroke-linecap="butt" d="m157.10106 144.5287l0 -44.488197" fill-rule="evenodd"/><path fill="#000000" stroke="#000000" stroke-width="3.0" stroke-linecap="butt" d="m162.05626 100.04051l-4.9552 -13.614288l-4.9552 13.614288z" fill-rule="evenodd"/><path fill="#000000" fill-opacity="0.0" d="m124.96904 49.90392l0 0c0 -17.742691 14.39035 -32.125984 32.14174 -32.125984l0 0c8.524521 0 16.69989 3.3846931 22.72763 9.409483c6.0277405 6.02479 9.414093 14.196161 9.414093 22.716501l0 0c0 17.742695 -14.390335 32.125988 -32.141724 32.125988l0 0c-17.751389 0 -32.14174 -14.383293 -32.14174 -32.125988z" fill-rule="evenodd"/><path stroke="#000000" stroke-width="3.0" stroke-linejoin="round" stroke-linecap="butt" d="m124.96904 49.90392l0 0c0 -17.742691 14.39035 -32.125984 32.14174 -32.125984l0 0c8.524521 0 16.69989 3.3846931 22.72763 9.409483c6.0277405 6.02479 9.414093 14.196161 9.414093 22.716501l0 0c0 17.742695 -14.390335 32.125988 -32.141724 32.125988l0 0c-17.751389 0 -32.14174 -14.383293 -32.14174 -32.125988z" fill-rule="evenodd"/><path fill="#000000" d="m146.92781 45.675793l3.890625 0l3.296875 9.8125l3.234375 -9.8125l3.78125 0l-4.875 13.3125l-0.875 2.40625q-0.484375 1.203125 -0.921875 1.84375q-0.4375 0.640625 -1.0 1.0312462q-0.5625 0.40625 -1.390625 0.625q-0.828125 0.21875 -1.859375 0.21875q-1.0625 0 -2.078125 -0.21875l-0.328125 -2.8593712q0.859375 0.15625 1.546875 0.15625q1.28125 0 1.890625 -0.75q0.609375 -0.734375 0.9375 -1.90625l-5.25 -13.859375z" fill-rule="nonzero"/><path fill="#000000" d="m167.06525 40.285168l0 1.953125l-1.671875 0l0 3.703125q0 1.140625 0.046875 1.328125q0.046875 0.171875 0.21875 0.296875q0.171875 0.125 0.421875 0.125q0.328125 0 0.96875 -0.234375l0.21875 1.890625q-0.859375 0.359375 -1.921875 0.359375q-0.671875 0 -1.203125 -0.21875q-0.515625 -0.21875 -0.765625 -0.5625q-0.25 -0.359375 -0.34375 -0.953125q-0.078125 -0.421875 -0.078125 -1.71875l0 -4.015625l-1.125 0l0 -1.953125l1.125 0l0 -1.828125l2.4375 -1.421875l0 3.25l1.671875 0z" fill-rule="nonzero"/><path fill="#000000" fill-opacity="0.0" d="m232.80185 177.01689l65.65286 0l0 71.88161l-278.484 0l0 -71.81862l62.437447 0" fill-rule="evenodd"/><path stroke="#000000" stroke-width="3.0" stroke-linejoin="round" stroke-linecap="butt" d="m232.80183 177.01689l65.65288 0l0 71.88161l-278.484 0l0 -71.8186l44.437447 0" fill-rule="evenodd"/><path fill="#000000" stroke="#000000" stroke-width="3.0" stroke-linecap="butt" d="m64.40814 182.03508l13.614296 -4.955185l-13.614296 -4.9552z" fill-rule="evenodd"/><path fill="#000000" fill-opacity="0.0" d="m231.80632 204.91704l0 0c0 -15.376999 14.390335 -27.842514 32.14174 -27.842514l0 0c17.751373 0 32.141724 12.465515 32.141724 27.842514l0 0c0 15.376999 -14.39035 27.84253 -32.141724 27.84253l0 0c-17.751404 0 -32.14174 -12.46553 -32.14174 -27.84253z" fill-rule="evenodd"/><path fill="#000000" d="m258.4112 195.43892l0 7.015625q1.765625 -2.078125 4.21875 -2.078125q1.265625 0 2.28125 0.46875q1.015625 0.46875 1.53125 1.203125q0.515625 0.734375 0.703125 1.625q0.1875 0.875 0.1875 2.734375l0 8.109375l-3.65625 0l0 -7.296875q0 -2.171875 -0.21875 -2.75q-0.203125 -0.59375 -0.734375 -0.9375q-0.515625 -0.359375 -1.3125 -0.359375q-0.90625 0 -1.625 0.453125q-0.71875 0.4375 -1.046875 1.328125q-0.328125 0.890625 -0.328125 2.640625l0 6.921875l-3.65625 0l0 -19.078125l3.65625 0z" fill-rule="nonzero"/><path fill="#000000" d="m274.6314 195.2983l0 1.953125l-1.671875 0l0 3.703125q0 1.140625 0.046875 1.328125q0.046875 0.171875 0.21875 0.296875q0.171875 0.125 0.421875 0.125q0.328125 0 0.96875 -0.234375l0.21875 1.890625q-0.859375 0.359375 -1.921875 0.359375q-0.671875 0 -1.203125 -0.21875q-0.515625 -0.21875 -0.765625 -0.5625q-0.25 -0.359375 -0.34375 -0.953125q-0.078125 -0.421875 -0.078125 -1.71875l0 -4.015625l-1.125 0l0 -1.953125l1.125 0l0 -1.828125l2.4375 -1.421875l0 3.25l1.671875 0z" fill-rule="nonzero"/></g></svg>