<svg version="1.1" viewBox="0.0 0.0 871.0 540.0" fill="none" stroke="none" stroke-linecap="square" stroke-miterlimit="10" xmlns:xlink="http://www.w3.org/1999/xlink" xmlns="http://www.w3.org/2000/svg"><clipPath id="p.0"><path d="m0 0l871.0 0l0 540.0l-871.0 0l0 -540.0z" clip-rule="nonzero"/></clipPath><g clip-path="url(#p.0)"><path fill="#000000" fill-opacity="0.0" d="m0 0l871.0 0l0 540.0l-871.0 0z" fill-rule="evenodd"/><path fill="#d9ead3" d="m131.0 140.16646l0 0c0 -30.46759 24.698868 -55.16646 55.16646 -55.16646l426.675 0c14.6310425 0 28.662842 5.8121643 39.008545 16.157883c10.345764 10.345718 16.157898 24.377518 16.157898 39.008575l0 220.65923c0 30.46759 -24.698853 55.166443 -55.166443 55.166443l-426.675 0c-30.46759 0 -55.16646 -24.698853 -55.16646 -55.166443z" fill-rule="evenodd"/><path stroke="#000000" stroke-width="3.0" stroke-linejoin="round" stroke-linecap="butt" d="m131.0 140.16646l0 0c0 -30.46759 24.698868 -55.16646 55.16646 -55.16646l426.675 0c14.6310425 0 28.662842 5.8121643 39.008545 16.157883c10.345764 10.345718 16.157898 24.377518 16.157898 39.008575l0 220.65923c0 30.46759 -24.698853 55.166443 -55.166443 55.166443l-426.675 0c-30.46759 0 -55.16646 -24.698853 -55.16646 -55.166443z" fill-rule="evenodd"/><path fill="#ead1dc" d="m274.33597 228.21536l0 0c0 -3.8066406 3.0858765 -6.8925323 6.892517 -6.8925323l235.53781 0c1.8280029 0 3.5811157 0.72618103 4.8737183 2.0187836c1.2926025 1.2925873 2.0187988 3.0457306 2.0187988 4.873749l0 27.569275c0 3.8066406 -3.0859375 6.892517 -6.892517 6.892517l-235.53781 0c-3.8066406 0 -6.892517 -3.0858765 -6.892517 -6.892517z" fill-rule="evenodd"/><path stroke="#000000" stroke-width="1.0" stroke-linejoin="round" stroke-linecap="butt" d="m274.33597 228.21536l0 0c0 -3.8066406 3.0858765 -6.8925323 6.892517 -6.8925323l235.53781 0c1.8280029 0 3.5811157 0.72618103 4.8737183 2.0187836c1.2926025 1.2925873 2.0187988 3.0457306 2.0187988 4.873749l0 27.569275c0 3.8066406 -3.0859375 6.892517 -6.892517 6.892517l-235.53781 0c-3.8066406 0 -6.892517 -3.0858765 -6.892517 -6.892517z" fill-rule="evenodd"/><path fill="#000000" fill-opacity="0.0" d="m480.0 242.0l0 0c0 -11.419678 9.9131775 -20.67717 22.141724 -20.67717l0 0c12.228577 0 22.141724 9.257492 22.141724 20.67717l0 0c0 11.419678 -9.913147 20.677155 -22.141724 20.677155l0 0c-12.228546 0 -22.141724 -9.257477 -22.141724 -20.677155z" fill-rule="evenodd"/><path stroke="#000000" stroke-width="1.0" stroke-linejoin="round" stroke-linecap="butt" d="m480.0 242.0l0 0c0 -11.419678 9.9131775 -20.67717 22.141724 -20.67717l0 0c12.228577 0 22.141724 9.257492 22.141724 20.67717l0 0c0 11.419678 -9.913147 20.677155 -22.141724 20.677155l0 0c-12.228546 0 -22.141724 -9.257477 -22.141724 -20.677155z" fill-rule="evenodd"/><path fill="#000000" fill-opacity="0.0" d="m274.33597 242.0l0 0c0 -11.419678 9.215179 -20.67717 20.582672 -20.67717l0 0c5.4588623 0 10.694153 2.178482 14.554138 6.0562134c3.8600159 3.877716 6.028534 9.137024 6.028534 14.620956l0 0c0 11.419678 -9.215179 20.677155 -20.582672 20.677155l0 0c-11.367493 0 -20.582672 -9.257477 -20.582672 -20.677155z" fill-rule="evenodd"/><path stroke="#000000" stroke-width="1.0" stroke-linejoin="round" stroke-linecap="butt" d="m274.33597 242.0l0 0c0 -11.419678 9.215179 -20.67717 20.582672 -20.67717l0 0c5.4588623 0 10.694153 2.178482 14.554138 6.0562134c3.8600159 3.877716 6.028534 9.137024 6.028534 14.620956l0 0c0 11.419678 -9.215179 20.677155 -20.582672 20.677155l0 0c-11.367493 0 -20.582672 -9.257477 -20.582672 -20.677155z" fill-rule="evenodd"/><path fill="#000000" fill-opacity="0.0" d="m332.70078 242.7559l127.49606 -1.5118103" fill-rule="evenodd"/><path stroke="#000000" stroke-width="1.0" stroke-linejoin="round" stroke-linecap="butt" stroke-dasharray="4.0,3.0" d="m332.70078 242.7559l127.49606 -1.5118103" fill-rule="evenodd"/><path fill="#c9daf8" d="m421.84647 347.21536l0 0c0 -3.8066406 3.0858765 -6.892517 6.892517 -6.892517l191.09683 0c1.8280029 0 3.5811768 0.7261658 4.8737793 2.0187683c1.2926025 1.2926025 2.0187378 3.0457458 2.0187378 4.873749l0 27.569275c0 3.8066406 -3.0858765 6.892517 -6.892517 6.892517l-191.09683 0l0 0c-3.8066406 0 -6.892517 -3.0858765 -6.892517 -6.892517z" fill-rule="evenodd"/><path stroke="#000000" stroke-width="1.0" stroke-linejoin="round" stroke-linecap="butt" d="m421.84647 347.21536l0 0c0 -3.8066406 3.0858765 -6.892517 6.892517 -6.892517l191.09683 0c1.8280029 0 3.5811768 0.7261658 4.8737793 2.0187683c1.2926025 1.2926025 2.0187378 3.0457458 2.0187378 4.873749l0 27.569275c0 3.8066406 -3.0858765 6.892517 -6.892517 6.892517l-191.09683 0l0 0c-3.8066406 0 -6.892517 -3.0858765 -6.892517 -6.892517z" fill-rule="evenodd"/><path fill="#000000" fill-opacity="0.0" d="m583.95795 361.0l0 0c0 -11.419678 9.574768 -20.677155 21.385864 -20.677155l0 0c5.671875 0 11.11145 2.1784668 15.12207 6.056183c4.01062 3.877716 6.263733 9.137054 6.263733 14.620972l0 0c0 11.419678 -9.574768 20.677155 -21.385803 20.677155l0 0c-11.811096 0 -21.385864 -9.257477 -21.385864 -20.677155z" fill-rule="evenodd"/><path stroke="#000000" stroke-width="1.0" stroke-linejoin="round" stroke-linecap="butt" d="m583.95795 361.0l0 0c0 -11.419678 9.574768 -20.677155 21.385864 -20.677155l0 0c5.671875 0 11.11145 2.1784668 15.12207 6.056183c4.01062 3.877716 6.263733 9.137054 6.263733 14.620972l0 0c0 11.419678 -9.574768 20.677155 -21.385803 20.677155l0 0c-11.811096 0 -21.385864 -9.257477 -21.385864 -20.677155z" fill-rule="evenodd"/><path fill="#000000" fill-opacity="0.0" d="m421.84778 361.0l0 0c0 -11.419678 10.0401 -20.677155 22.425201 -20.677155l0 0c12.385071 0 22.42517 9.257477 22.42517 20.677155l0 0c0 11.419678 -10.0401 20.677155 -22.42517 20.677155l0 0c-12.385101 0 -22.425201 -9.257477 -22.425201 -20.677155z" fill-rule="evenodd"/><path stroke="#000000" stroke-width="1.0" stroke-linejoin="round" stroke-linecap="butt" d="m421.84778 361.0l0 0c0 -11.419678 10.0401 -20.677155 22.425201 -20.677155l0 0c12.385071 0 22.42517 9.257477 22.42517 20.677155l0 0c0 11.419678 -10.0401 20.677155 -22.42517 20.677155l0 0c-12.385101 0 -22.425201 -9.257477 -22.425201 -20.677155z" fill-rule="evenodd"/><path fill="#000000" fill-opacity="0.0" d="m497.45932 361.25198l51.496063 -0.5039673" fill-rule="evenodd"/><path stroke="#000000" stroke-width="1.0" stroke-linejoin="round" stroke-linecap="butt" stroke-dasharray="4.0,3.0" d="m497.45932 361.25198l51.496063 -0.5039673" fill-rule="evenodd"/><path fill="#ead1dc" d="m171.2664 347.21536l0 0c0 -3.8066406 3.0858917 -6.892517 6.8925323 -6.892517l236.73462 0c1.8280334 0 3.5811462 0.7261658 4.873749 2.0187683c1.2926025 1.2926025 2.0187988 3.0457458 2.0187988 4.873749l0 27.569275c0 3.8066406 -3.085907 6.892517 -6.8925476 6.892517l-236.73462 0c-3.8066406 0 -6.8925323 -3.0858765 -6.8925323 -6.892517z" fill-rule="evenodd"/><path stroke="#000000" stroke-width="1.0" stroke-linejoin="round" stroke-linecap="butt" d="m171.2664 347.21536l0 0c0 -3.8066406 3.0858917 -6.892517 6.8925323 -6.892517l236.73462 0c1.8280334 0 3.5811462 0.7261658 4.873749 2.0187683c1.2926025 1.2926025 2.0187988 3.0457458 2.0187988 4.873749l0 27.569275c0 3.8066406 -3.085907 6.892517 -6.8925476 6.892517l-236.73462 0c-3.8066406 0 -6.8925323 -3.0858765 -6.8925323 -6.892517z" fill-rule="evenodd"/><path fill="#000000" fill-opacity="0.0" d="m378.54327 361.0l0 0c0 -11.419678 9.680511 -20.677155 21.62204 -20.677155l0 0c5.7345276 0 11.234192 2.1784668 15.289093 6.056183c4.0549316 3.877716 6.3329773 9.137054 6.3329773 14.620972l0 0c0 11.419678 -9.680542 20.677155 -21.62207 20.677155l0 0c-11.941528 0 -21.62204 -9.257477 -21.62204 -20.677155z" fill-rule="evenodd"/><path stroke="#000000" stroke-width="1.0" stroke-linejoin="round" stroke-linecap="butt" d="m378.54327 361.0l0 0c0 -11.419678 9.680511 -20.677155 21.62204 -20.677155l0 0c5.7345276 0 11.234192 2.1784668 15.289093 6.056183c4.0549316 3.877716 6.3329773 9.137054 6.3329773 14.620972l0 0c0 11.419678 -9.680542 20.677155 -21.62207 20.677155l0 0c-11.941528 0 -21.62204 -9.257477 -21.62204 -20.677155z" fill-rule="evenodd"/><path fill="#000000" fill-opacity="0.0" d="m171.26772 361.0l0 0c0 -11.419678 9.680527 -20.677155 21.622055 -20.677155l0 0c5.7345123 0 11.234177 2.1784668 15.289093 6.056183c4.0549164 3.877716 6.332947 9.137054 6.332947 14.620972l0 0c0 11.419678 -9.680511 20.677155 -21.62204 20.677155l0 0c-11.941528 0 -21.622055 -9.257477 -21.622055 -20.677155z" fill-rule="evenodd"/><path stroke="#000000" stroke-width="1.0" stroke-linejoin="round" stroke-linecap="butt" d="m171.26772 361.0l0 0c0 -11.419678 9.680527 -20.677155 21.622055 -20.677155l0 0c5.7345123 0 11.234177 2.1784668 15.289093 6.056183c4.0549164 3.877716 6.332947 9.137054 6.332947 14.620972l0 0c0 11.419678 -9.680511 20.677155 -21.62204 20.677155l0 0c-11.941528 0 -21.622055 -9.257477 -21.622055 -20.677155z" fill-rule="evenodd"/><path fill="#000000" fill-opacity="0.0" d="m229.63124 361.75592l127.49605 -1.5118408" fill-rule="evenodd"/><path stroke="#000000" stroke-width="1.0" stroke-linejoin="round" stroke-linecap="butt" stroke-dasharray="4.0,3.0" d="m229.63124 361.75592l127.49605 -1.5118408" fill-rule="evenodd"/><path fill="#fce5cd" d="m328.16272 109.21536l0 0c0 -3.8066406 3.085907 -6.8925247 6.8925476 -6.8925247l127.88422 0c1.8280334 0 3.5811768 0.7261734 4.873749 2.0187683c1.2926025 1.2926025 2.0187988 3.0457458 2.0187988 4.8737564l0 27.569275c0 3.8066406 -3.085907 6.8925323 -6.8925476 6.8925323l-127.88422 0c-3.8066406 0 -6.8925476 -3.0858917 -6.8925476 -6.8925323z" fill-rule="evenodd"/><path stroke="#000000" stroke-width="1.0" stroke-linejoin="round" stroke-linecap="butt" d="m328.16272 109.21536l0 0c0 -3.8066406 3.085907 -6.8925247 6.8925476 -6.8925247l127.88422 0c1.8280334 0 3.5811768 0.7261734 4.873749 2.0187683c1.2926025 1.2926025 2.0187988 3.0457458 2.0187988 4.8737564l0 27.569275c0 3.8066406 -3.085907 6.8925323 -6.8925476 6.8925323l-127.88422 0c-3.8066406 0 -6.8925476 -3.0858917 -6.8925476 -6.8925323z" fill-rule="evenodd"/><path fill="#000000" fill-opacity="0.0" d="m428.02362 123.0l0 0c0 -11.419685 9.363251 -20.677162 20.913391 -20.677162l0 0c5.54657 0 10.865967 2.1784744 14.787994 6.056198c3.9220276 3.8777237 6.1253967 9.137039 6.1253967 14.620964l0 0c0 11.419678 -9.363251 20.67717 -20.913391 20.67717l0 0c-11.55014 0 -20.913391 -9.257492 -20.913391 -20.67717z" fill-rule="evenodd"/><path stroke="#000000" stroke-width="1.0" stroke-linejoin="round" stroke-linecap="butt" d="m428.02362 123.0l0 0c0 -11.419685 9.363251 -20.677162 20.913391 -20.677162l0 0c5.54657 0 10.865967 2.1784744 14.787994 6.056198c3.9220276 3.8777237 6.1253967 9.137039 6.1253967 14.620964l0 0c0 11.419678 -9.363251 20.67717 -20.913391 20.67717l0 0c-11.55014 0 -20.913391 -9.257492 -20.913391 -20.67717z" fill-rule="evenodd"/><path fill="#000000" fill-opacity="0.0" d="m328.16272 123.0l0 0c0 -11.419685 9.828583 -20.677162 21.952759 -20.677162l0 0c5.822235 0 11.406006 2.1784744 15.522949 6.056198c4.1169434 3.8777237 6.4298096 9.137039 6.4298096 14.620964l0 0c0 11.419678 -9.828583 20.67717 -21.952759 20.67717l0 0c-12.124176 0 -21.952759 -9.257492 -21.952759 -20.67717z" fill-rule="evenodd"/><path stroke="#000000" stroke-width="1.0" stroke-linejoin="round" stroke-linecap="butt" d="m328.16272 123.0l0 0c0 -11.419685 9.828583 -20.677162 21.952759 -20.677162l0 0c5.822235 0 11.406006 2.1784744 15.522949 6.056198c4.1169434 3.8777237 6.4298096 9.137039 6.4298096 14.620964l0 0c0 11.419678 -9.828583 20.67717 -21.952759 20.67717l0 0c-12.124176 0 -21.952759 -9.257492 -21.952759 -20.67717z" fill-rule="evenodd"/><path fill="#000000" fill-opacity="0.0" d="m376.52625 123.25197l51.496063 -0.50393677" fill-rule="evenodd"/><path stroke="#000000" stroke-width="1.0" stroke-linejoin="round" stroke-linecap="butt" stroke-dasharray="4.0,3.0" d="m376.52625 123.25197l51.496063 -0.50393677" fill-rule="evenodd"/><path fill="#000000" fill-opacity="0.0" d="m184.47769 343.86615l0 0c0 -1.9569092 1.6710052 -3.5433044 3.7322845 -3.5433044l0 0c0.98986816 0 1.9391785 0.37329102 2.6391144 1.0378113c0.6999512 0.66448975 1.0931702 1.5657349 1.0931702 2.5054932l0 0c0 1.9569092 -1.6710052 3.5433044 -3.7322845 3.5433044l0 0c-2.0612793 0 -3.7322845 -1.5863953 -3.7322845 -3.5433044z" fill-rule="evenodd"/><path fill="#000000" fill-opacity="0.0" d="m427.5328 343.86615l0 0c0 -1.9569092 1.67099 -3.5433044 3.7322998 -3.5433044l0 0c0.98983765 0 1.9391785 0.37329102 2.6390991 1.0378113c0.6999512 0.66448975 1.0931702 1.5657349 1.0931702 2.5054932l0 0c0 1.9569092 -1.67099 3.5433044 -3.7322693 3.5433044l0 0c-2.0613098 0 -3.7322998 -1.5863953 -3.7322998 -3.5433044z" fill-rule="evenodd"/><path fill="#000000" fill-opacity="0.0" d="m436.84515 343.86615l0 0c0 -1.9569092 1.67099 -3.5433044 3.7322693 -3.5433044l0 0c0.98986816 0 1.9391785 0.37329102 2.6391296 1.0378113c0.6999512 0.66448975 1.0931702 1.5657349 1.0931702 2.5054932l0 0c0 1.9569092 -1.6710205 3.5433044 -3.7322998 3.5433044l0 0c-2.0612793 0 -3.7322693 -1.5863953 -3.7322693 -3.5433044z" fill-rule="evenodd"/><path fill="#000000" fill-opacity="0.0" d="m632.4147 343.86615l0 0c0 -1.9569092 1.6710205 -3.5433044 3.7322998 -3.5433044l0 0c0.98986816 0 1.939209 0.37329102 2.6391602 1.0378113c0.69989014 0.66448975 1.0931396 1.5657349 1.0931396 2.5054932l0 0c0 1.9569092 -1.6710205 3.5433044 -3.7322998 3.5433044l0 0c-2.0612793 0 -3.7322998 -1.5863953 -3.7322998 -3.5433044z" fill-rule="evenodd"/><path fill="#000000" fill-opacity="0.0" d="m527.4383 203.07874l0 0c0 -1.9569092 1.6710205 -3.5433044 3.7322998 -3.5433044l0 0c0.98986816 0 1.939209 0.37330627 2.6391602 1.0378113c0.69989014 0.664505 1.0931396 1.5657501 1.0931396 2.5054932l0 0c0 1.9569244 -1.6710205 3.5433044 -3.7322998 3.5433044l0 0c-2.0612793 0 -3.7322998 -1.58638 -3.7322998 -3.5433044z" fill-rule="evenodd"/><path fill="#000000" fill-opacity="0.0" d="m285.58005 203.07874l0 0c0 -1.9569092 1.67099 -3.5433044 3.7322998 -3.5433044l0 0c0.98983765 0 1.9391785 0.37330627 2.6390991 1.0378113c0.6999512 0.664505 1.0931702 1.5657501 1.0931702 2.5054932l0 0c0 1.9569244 -1.67099 3.5433044 -3.7322693 3.5433044l0 0c-2.0613098 0 -3.7322998 -1.58638 -3.7322998 -3.5433044z" fill-rule="evenodd"/><path fill="#000000" fill-opacity="0.0" d="m332.3386 108.13386l0 0c0 -1.9569168 1.67099 -3.5433044 3.7322693 -3.5433044l0 0c0.98986816 0 1.9391785 0.37330627 2.6391296 1.0378113c0.6999512 0.6644974 1.0931702 1.5657501 1.0931702 2.5054932l0 0c0 1.9569168 -1.6710205 3.5433044 -3.7322998 3.5433044l0 0c-2.0612793 0 -3.7322693 -1.5863876 -3.7322693 -3.5433044z" fill-rule="evenodd"/><path fill="#000000" fill-opacity="0.0" d="m466.70865 108.13386l0 0c0 -1.9569168 1.6710205 -3.5433044 3.7322998 -3.5433044l0 0c0.98986816 0 1.9391785 0.37330627 2.6391296 1.0378113c0.69992065 0.6644974 1.0931396 1.5657501 1.0931396 2.5054932l0 0c0 1.9569168 -1.67099 3.5433044 -3.7322693 3.5433044l0 0c-2.0612793 0 -3.7322998 -1.5863876 -3.7322998 -3.5433044z" fill-rule="evenodd"/><path fill="#000000" fill-opacity="0.0" d="m192.88977 340.32285l102.01575 -77.63782" fill-rule="evenodd"/><path stroke="#a64d79" stroke-width="1.0" stroke-linejoin="round" stroke-linecap="butt" d="m192.88977 340.32285l102.01575 -77.63782" fill-rule="evenodd"/><path fill="#000000" fill-opacity="0.0" d="m192.88977 340.32285l309.25983 -77.63782" fill-rule="evenodd"/><path stroke="#a64d79" stroke-width="1.0" stroke-linejoin="round" stroke-linecap="butt" d="m192.88977 340.32285l309.25983 -77.63782" fill-rule="evenodd"/><path fill="#000000" fill-opacity="0.0" d="m400.1653 340.32285l101.98425 -77.63782" fill-rule="evenodd"/><path stroke="#a64d79" stroke-width="1.0" stroke-linejoin="round" stroke-linecap="butt" d="m400.1653 340.32285l101.98425 -77.63782" fill-rule="evenodd"/><path fill="#000000" fill-opacity="0.0" d="m444.27298 340.32285l-149.35434 -77.63782" fill-rule="evenodd"/><path stroke="#3d85c6" stroke-width="1.0" stroke-linejoin="round" stroke-linecap="butt" d="m444.27298 340.32285l-149.35434 -77.63782" fill-rule="evenodd"/><path fill="#000000" fill-opacity="0.0" d="m444.27298 340.32285l57.858246 -77.63782" fill-rule="evenodd"/><path stroke="#3d85c6" stroke-width="1.0" stroke-linejoin="round" stroke-linecap="butt" d="m444.27298 340.32285l57.858246 -77.63782" fill-rule="evenodd"/><path fill="#000000" fill-opacity="0.0" d="m605.3438 340.32285l-103.212616 -77.63782" fill-rule="evenodd"/><path stroke="#3d85c6" stroke-width="1.0" stroke-linejoin="round" stroke-linecap="butt" d="m605.3438 340.32285l-103.212616 -77.63782" fill-rule="evenodd"/><path fill="#000000" fill-opacity="0.0" d="m605.3438 340.32285l-310.4252 -77.63782" fill-rule="evenodd"/><path stroke="#3d85c6" stroke-width="1.0" stroke-linejoin="round" stroke-linecap="butt" d="m605.3438 340.32285l-310.4252 -77.63782" fill-rule="evenodd"/><path fill="#000000" fill-opacity="0.0" d="m294.91864 221.32283l55.212585 -77.63779" fill-rule="evenodd"/><path stroke="#e69138" stroke-width="1.0" stroke-linejoin="round" stroke-linecap="butt" d="m294.91864 221.32283l55.212585 -77.63779" fill-rule="evenodd"/><path fill="#000000" fill-opacity="0.0" d="m294.91864 221.32283l154.01575 -77.63779" fill-rule="evenodd"/><path stroke="#e69138" stroke-width="1.0" stroke-linejoin="round" stroke-linecap="butt" d="m294.91864 221.32283l154.01575 -77.63779" fill-rule="evenodd"/><path fill="#000000" fill-opacity="0.0" d="m502.14172 221.32283l-53.19684 -77.63779" fill-rule="evenodd"/><path stroke="#e69138" stroke-width="1.0" stroke-linejoin="round" stroke-linecap="butt" d="m502.14172 221.32283l-53.19684 -77.63779" fill-rule="evenodd"/><path fill="#000000" fill-opacity="0.0" d="m502.14172 221.32283l-152.0315 -77.63779" fill-rule="evenodd"/><path stroke="#e69138" stroke-width="1.0" stroke-linejoin="round" stroke-linecap="butt" d="m502.14172 221.32283l-152.0315 -77.63779" fill-rule="evenodd"/><path fill="#000000" fill-opacity="0.0" d="m400.1653 340.32285l-105.25983 -77.63782" fill-rule="evenodd"/><path stroke="#a64d79" stroke-width="1.0" stroke-linejoin="round" stroke-linecap="butt" d="m400.1653 340.32285l-105.25983 -77.63782" fill-rule="evenodd"/><path fill="#000000" fill-opacity="0.0" d="m754.8399 242.0l24.999634 0l0 194.0l-670.3401 0l0 -75.00787l61.781395 0" fill-rule="evenodd"/><path stroke="#000000" stroke-width="3.0" stroke-linejoin="round" stroke-linecap="butt" stroke-dasharray="12.0,9.0" d="m754.8399 242.0l24.999634 0l0 194.0l-670.3401 0l0 -75.00787l43.781395 0" fill-rule="evenodd"/><path fill="#000000" stroke="#000000" stroke-width="3.0" stroke-linecap="butt" d="m153.28084 365.94733l13.614288 -4.9552l-13.614288 -4.9552z" fill-rule="evenodd"/><path fill="#000000" fill-opacity="0.0" d="m372.08398 32.007874l0 0c0 -14.359404 12.04953 -26.0 26.913391 -26.0l0 0c7.1378784 0 13.983398 2.7392783 19.03064 7.6152234c5.047241 4.875947 7.8827515 11.489148 7.8827515 18.384777l0 0c0 14.3594055 -12.04953 26.0 -26.913391 26.0l0 0c-14.863861 0 -26.913391 -11.6405945 -26.913391 -26.0z" fill-rule="evenodd"/><path stroke="#000000" stroke-width="3.0" stroke-linejoin="round" stroke-linecap="butt" d="m372.08398 32.007874l0 0c0 -14.359404 12.04953 -26.0 26.913391 -26.0l0 0c7.1378784 0 13.983398 2.7392783 19.03064 7.6152234c5.047241 4.875947 7.8827515 11.489148 7.8827515 18.384777l0 0c0 14.3594055 -12.04953 26.0 -26.913391 26.0l0 0c-14.863861 0 -26.913391 -11.6405945 -26.913391 -26.0z" fill-rule="evenodd"/><path fill="#000000" d="m390.83972 28.425375l3.125 0l2.640625 7.859373l2.578125 -7.859373l3.03125 0l-3.90625 10.640623l-0.6875 1.9375q-0.390625 0.96875 -0.75 1.46875q-0.34375 0.515625 -0.796875 0.828125q-0.453125 0.328125 -1.109375 0.5q-0.65625 0.171875 -1.5 0.171875q-0.84375 0 -1.65625 -0.171875l-0.25 -2.296875q0.6875 0.140625 1.234375 0.140625q1.015625 0 1.5 -0.609375q0.5 -0.59375 0.765625 -1.515625l-4.21875 -11.093748z" fill-rule="nonzero"/><path fill="#000000" d="m406.96704 24.112875l0 1.5625l-1.34375 0l0 2.96875q0 0.90625 0.03125 1.0625q0.046875 0.140625 0.1875 0.234375q0.140625 0.09375 0.328125 0.09375q0.265625 0 0.78125 -0.1875l0.171875 1.515625q-0.6875 0.296875 -1.546875 0.296875q-0.515625 0 -0.953125 -0.171875q-0.421875 -0.1875 -0.625 -0.46875q-0.1875 -0.28125 -0.265625 -0.765625q-0.0625 -0.328125 -0.0625 -1.375l0 -3.203125l-0.890625 0l0 -1.5625l0.890625 0l0 -1.46875l1.953125 -1.140625l0 2.609375l1.34375 0z" fill-rule="nonzero"/><path fill="#000000" fill-opacity="0.0" d="m398.99738 102.32284l0 -44.314964" fill-rule="evenodd"/><path stroke="#000000" stroke-width="3.0" stroke-linejoin="round" stroke-linecap="butt" d="m398.99738 102.32284l0 -26.314964" fill-rule="evenodd"/><path fill="#000000" stroke="#000000" stroke-width="3.0" stroke-linecap="butt" d="m403.95258 76.00787l-4.9552 -13.614292l-4.9552 13.614292z" fill-rule="evenodd"/><path fill="#000000" fill-opacity="0.0" d="m524.2887 453.5013l0 -71.811035" fill-rule="evenodd"/><path stroke="#000000" stroke-width="3.0" stroke-linejoin="round" stroke-linecap="butt" d="m524.2887 453.5013l0 -53.811035" fill-rule="evenodd"/><path fill="#000000" stroke="#000000" stroke-width="3.0" stroke-linecap="butt" d="m529.2439 399.69028l-4.9552 -13.614288l-4.9552 13.614288z" fill-rule="evenodd"/><path fill="#000000" fill-opacity="0.0" d="m523.6588 242.0l177.35431 0" fill-rule="evenodd"/><path stroke="#000000" stroke-width="3.0" stroke-linejoin="round" stroke-linecap="butt" d="m523.6588 242.0l159.35431 0" fill-rule="evenodd"/><path fill="#000000" stroke="#000000" stroke-width="3.0" stroke-linecap="butt" d="m683.0131 246.9552l13.614319 -4.9552l-13.614319 -4.9552z" fill-rule="evenodd"/><path fill="#000000" fill-opacity="0.0" d="m701.0131 242.0l0 0c0 -14.3594055 12.049561 -26.0 26.913391 -26.0l0 0c7.1378784 0 13.983398 2.739273 19.03064 7.615219c5.047241 4.875946 7.8827515 11.489151 7.8827515 18.38478l0 0c0 14.3594055 -12.049561 26.0 -26.913391 26.0l0 0c-14.863831 0 -26.913391 -11.6405945 -26.913391 -26.0z" fill-rule="evenodd"/><path stroke="#000000" stroke-width="3.0" stroke-linejoin="round" stroke-linecap="butt" d="m701.0131 242.0l0 0c0 -14.3594055 12.049561 -26.0 26.913391 -26.0l0 0c7.1378784 0 13.983398 2.739273 19.03064 7.615219c5.047241 4.875946 7.8827515 11.489151 7.8827515 18.38478l0 0c0 14.3594055 -12.049561 26.0 -26.913391 26.0l0 0c-14.863831 0 -26.913391 -11.6405945 -26.913391 -26.0z" fill-rule="evenodd"/><path fill="#000000" d="m723.49817 234.21437l0 5.609375q1.40625 -1.65625 3.375 -1.65625q1.015625 0 1.828125 0.375q0.8125 0.375 1.21875 0.96875q0.40625 0.578125 0.5625 1.28125q0.15625 0.703125 0.15625 2.203125l0 6.484375l-2.921875 0l0 -5.84375q0 -1.734375 -0.171875 -2.203125q-0.171875 -0.46875 -0.59375 -0.75q-0.421875 -0.28125 -1.046875 -0.28125q-0.734375 0 -1.3125 0.359375q-0.5625 0.359375 -0.828125 1.078125q-0.265625 0.703125 -0.265625 2.09375l0 5.546875l-2.9375 0l0 -15.265625l2.9375 0z" fill-rule="nonzero"/><path fill="#000000" d="m736.4794 234.105l0 1.5625l-1.34375 0l0 2.96875q0 0.90625 0.03125 1.0625q0.046875 0.140625 0.1875 0.234375q0.140625 0.09375 0.328125 0.09375q0.265625 0 0.78125 -0.1875l0.171875 1.515625q-0.6875 0.296875 -1.546875 0.296875q-0.515625 0 -0.953125 -0.171875q-0.421875 -0.1875 -0.625 -0.46875q-0.1875 -0.28125 -0.265625 -0.765625q-0.0625 -0.328125 -0.0625 -1.375l0 -3.203125l-0.890625 0l0 -1.5625l0.890625 0l0 -1.46875l1.953125 -1.140625l0 2.609375l1.34375 0z" fill-rule="nonzero"/><path fill="#000000" fill-opacity="0.0" d="m497.37534 479.5013l0 0c0 -14.3594055 12.04953 -26.0 26.91336 -26.0l0 0c7.1378784 0 13.983398 2.7392883 19.03064 7.6152344c5.047241 4.875946 7.8827515 11.489136 7.8827515 18.384766l0 0c0 14.3594055 -12.0494995 26.0 -26.913391 26.0l0 0c-14.863831 0 -26.91336 -11.6405945 -26.91336 -26.0z" fill-rule="evenodd"/><path stroke="#000000" stroke-width="3.0" stroke-linejoin="round" stroke-linecap="butt" d="m497.37534 479.5013l0 0c0 -14.3594055 12.04953 -26.0 26.91336 -26.0l0 0c7.1378784 0 13.983398 2.7392883 19.03064 7.6152344c5.047241 4.875946 7.8827515 11.489136 7.8827515 18.384766l0 0c0 14.3594055 -12.0494995 26.0 -26.913391 26.0l0 0c-14.863831 0 -26.91336 -11.6405945 -26.91336 -26.0z" fill-rule="evenodd"/><path fill="#000000" d="m516.1154 486.98132l3.984375 -5.703125l-3.8125 -5.359375l3.5625 0l1.96875 3.046875l2.0625 -3.046875l3.421875 0l-3.734375 5.234375l4.078125 5.828125l-3.578125 0l-2.25 -3.421875l-2.28125 3.421875l-3.421875 0z" fill-rule="nonzero"/><path fill="#000000" d="m532.25836 471.60632l0 1.5625l-1.34375 0l0 2.96875q0 0.90625 0.03125 1.0625q0.046875 0.140625 0.1875 0.234375q0.140625 0.09375 0.328125 0.09375q0.265625 0 0.78125 -0.1875l0.171875 1.515625q-0.6875 0.296875 -1.546875 0.296875q-0.515625 0 -0.953125 -0.171875q-0.421875 -0.1875 -0.625 -0.46875q-0.1875 -0.28125 -0.265625 -0.765625q-0.0625 -0.328125 -0.0625 -1.375l0 -3.203125l-0.890625 0l0 -1.5625l0.890625 0l0 -1.46875l1.953125 -1.140625l0 2.609375l1.34375 0z" fill-rule="nonzero"/><path fill="#000000" fill-opacity="0.0" d="m585.56433 349.6929l26.11023 0l0 22.614197l-26.11023 0z" fill-rule="evenodd"/><path fill="#000000" d="m594.096 367.6129l3.53125 -5.03125l-3.265625 -4.640625l2.046875 0l1.484375 2.265625q0.421875 0.640625 0.671875 1.078125q0.40625 -0.59375 0.734375 -1.0625l1.640625 -2.28125l1.953125 0l-3.34375 4.546875l3.59375 5.125l-2.015625 0l-1.984375 -3.0l-0.515625 -0.8125l-2.546875 3.8125l-1.984375 0z" fill-rule="nonzero"/><path fill="#000000" fill-opacity="0.0" d="m604.09973 349.6929l23.590576 0l0 9.700806l-23.590576 0z" fill-rule="evenodd"/><path fill="#000000" d="m606.16223 356.74792l0.109375 0.609375q-0.296875 0.078125 -0.53125 0.078125q-0.390625 0 -0.609375 -0.125q-0.203125 -0.125 -0.296875 -0.3125q-0.078125 -0.203125 -0.078125 -0.84375l0 -2.390625l-0.515625 0l0 -0.546875l0.515625 0l0 -1.015625l0.703125 -0.421875l0 1.4375l0.703125 0l0 0.546875l-0.703125 0l0 2.4375q0 0.296875 0.03125 0.390625q0.046875 0.078125 0.125 0.125q0.078125 0.046875 0.234375 0.046875q0.125 0 0.3125 -0.015625z" fill-rule="nonzero"/><path fill="#000000" fill-opacity="0.0" d="m604.09973 359.3937l23.590576 0l0 9.700775l-23.590576 0z" fill-rule="evenodd"/><path fill="#000000" d="m604.631 368.66745l0 -5.75l0.640625 0l0 0.546875q0.21875 -0.3125 0.5 -0.46875q0.296875 -0.171875 0.703125 -0.171875q0.53125 0 0.9375 0.28125q0.40625 0.265625 0.609375 0.765625q0.203125 0.5 0.203125 1.09375q0 0.640625 -0.234375 1.15625q-0.21875 0.5 -0.65625 0.78125q-0.4375 0.265625 -0.90625 0.265625q-0.359375 0 -0.640625 -0.140625q-0.28125 -0.15625 -0.453125 -0.390625l0 2.03125l-0.703125 0zm0.640625 -3.640625q0 0.796875 0.3125 1.1875q0.328125 0.375 0.796875 0.375q0.46875 0 0.796875 -0.390625q0.328125 -0.40625 0.328125 -1.234375q0 -0.796875 -0.328125 -1.1875q-0.3125 -0.390625 -0.765625 -0.390625q-0.453125 0 -0.796875 0.421875q-0.34375 0.40625 -0.34375 1.21875z" fill-rule="nonzero"/><path fill="#000000" fill-opacity="0.0" d="m173.87927 349.6929l26.11023 0l0 22.614197l-26.11023 0z" fill-rule="evenodd"/><path fill="#000000" d="m182.9809 367.6129l0 -13.359375l1.640625 0l0 4.796875q1.140625 -1.328125 2.890625 -1.328125q1.078125 0 1.859375 0.421875q0.796875 0.421875 1.140625 1.171875q0.34375 0.75 0.34375 2.171875l0 6.125l-1.640625 0l0 -6.125q0 -1.234375 -0.53125 -1.796875q-0.53125 -0.5625 -1.515625 -0.5625q-0.71875 0 -1.359375 0.390625q-0.640625 0.375 -0.921875 1.015625q-0.265625 0.640625 -0.265625 1.78125l0 5.296875l-1.640625 0z" fill-rule="nonzero"/><path fill="#000000" fill-opacity="0.0" d="m192.4147 349.6929l23.590546 0l0 9.700806l-23.590546 0z" fill-rule="evenodd"/><path fill="#000000" d="m194.4772 356.74792l0.109375 0.609375q-0.296875 0.078125 -0.53125 0.078125q-0.390625 0 -0.609375 -0.125q-0.203125 -0.125 -0.296875 -0.3125q-0.078125 -0.203125 -0.078125 -0.84375l0 -2.390625l-0.515625 0l0 -0.546875l0.515625 0l0 -1.015625l0.703125 -0.421875l0 1.4375l0.703125 0l0 0.546875l-0.703125 0l0 2.4375q0 0.296875 0.03125 0.390625q0.046875 0.078125 0.125 0.125q0.078125 0.046875 0.234375 0.046875q0.125 0 0.3125 -0.015625zm0.41015625 -1.09375l0 -0.703125l2.171875 0l0 0.703125l-2.171875 0zm5.3984375 1.71875l-0.703125 0l0 -4.484375q-0.25 0.25 -0.671875 0.5q-0.40625 0.234375 -0.734375 0.34375l0 -0.671875q0.59375 -0.28125 1.03125 -0.671875q0.4375 -0.390625 0.625 -0.765625l0.453125 0l0 5.75z" fill-rule="nonzero"/><path fill="#000000" fill-opacity="0.0" d="m192.4147 359.3937l23.590546 0l0 9.700775l-23.590546 0z" fill-rule="evenodd"/><path fill="#000000" d="m195.39908 367.0737l-0.703125 0l0 -4.484375q-0.25 0.25 -0.671875 0.5q-0.40625 0.234375 -0.734375 0.34375l0 -0.671875q0.59375 -0.28125 1.03125 -0.671875q0.4375 -0.390625 0.625 -0.765625l0.453125 0l0 5.75z" fill-rule="nonzero"/><path fill="#000000" fill-opacity="0.0" d="m379.72177 349.6929l26.11026 0l0 22.614197l-26.11026 0z" fill-rule="evenodd"/><path fill="#000000" d="m388.82343 367.6129l0 -13.359375l1.640625 0l0 4.796875q1.140625 -1.328125 2.890625 -1.328125q1.078125 0 1.859375 0.421875q0.796875 0.421875 1.140625 1.171875q0.34375 0.75 0.34375 2.171875l0 6.125l-1.640625 0l0 -6.125q0 -1.234375 -0.53125 -1.796875q-0.53125 -0.5625 -1.515625 -0.5625q-0.71875 0 -1.359375 0.390625q-0.640625 0.375 -0.921875 1.015625q-0.265625 0.640625 -0.265625 1.78125l0 5.296875l-1.640625 0z" fill-rule="nonzero"/><path fill="#000000" fill-opacity="0.0" d="m398.25723 349.6929l23.590546 0l0 9.700806l-23.590546 0z" fill-rule="evenodd"/><path fill="#000000" d="m400.31973 356.74792l0.109375 0.609375q-0.296875 0.078125 -0.53125 0.078125q-0.390625 0 -0.609375 -0.125q-0.203125 -0.125 -0.296875 -0.3125q-0.078125 -0.203125 -0.078125 -0.84375l0 -2.390625l-0.515625 0l0 -0.546875l0.515625 0l0 -1.015625l0.703125 -0.421875l0 1.4375l0.703125 0l0 0.546875l-0.703125 0l0 2.4375q0 0.296875 0.03125 0.390625q0.046875 0.078125 0.125 0.125q0.078125 0.046875 0.234375 0.046875q0.125 0 0.3125 -0.015625zm0.41015625 -1.09375l0 -0.703125l2.171875 0l0 0.703125l-2.171875 0zm5.3984375 1.71875l-0.703125 0l0 -4.484375q-0.25 0.25 -0.671875 0.5q-0.40625 0.234375 -0.734375 0.34375l0 -0.671875q0.59375 -0.28125 1.03125 -0.671875q0.4375 -0.390625 0.625 -0.765625l0.453125 0l0 5.75z" fill-rule="nonzero"/><path fill="#000000" fill-opacity="0.0" d="m398.25723 359.3937l23.590546 0l0 9.700775l-23.590546 0z" fill-rule="evenodd"/><path fill="#000000" d="m398.77286 367.0737l0 -4.15625l0.640625 0l0 0.640625q0.234375 -0.453125 0.4375 -0.59375q0.21875 -0.140625 0.453125 -0.140625q0.359375 0 0.734375 0.234375l-0.25 0.65625q-0.25 -0.15625 -0.515625 -0.15625q-0.234375 0 -0.421875 0.140625q-0.171875 0.140625 -0.25 0.375q-0.125 0.375 -0.125 0.828125l0 2.171875l-0.703125 0z" fill-rule="nonzero"/><path fill="#000000" fill-opacity="0.0" d="m485.31235 230.69554l26.11023 0l0 22.614166l-26.11023 0z" fill-rule="evenodd"/><path fill="#000000" d="m494.41397 248.61554l0 -13.359375l1.640625 0l0 4.796875q1.140625 -1.328125 2.890625 -1.328125q1.078125 0 1.859375 0.421875q0.796875 0.421875 1.140625 1.171875q0.34375 0.75 0.34375 2.171875l0 6.125l-1.640625 0l0 -6.125q0 -1.234375 -0.53125 -1.796875q-0.53125 -0.5625 -1.515625 -0.5625q-0.71875 0 -1.359375 0.390625q-0.640625 0.375 -0.921875 1.015625q-0.265625 0.640625 -0.265625 1.78125l0 5.296875l-1.640625 0z" fill-rule="nonzero"/><path fill="#000000" fill-opacity="0.0" d="m503.84778 230.69554l23.590515 0l0 9.70079l-23.590515 0z" fill-rule="evenodd"/><path fill="#000000" d="m505.91028 237.75053l0.109375 0.609375q-0.296875 0.078125 -0.53125 0.078125q-0.390625 0 -0.609375 -0.125q-0.203125 -0.125 -0.296875 -0.3125q-0.078125 -0.203125 -0.078125 -0.84375l0 -2.390625l-0.515625 0l0 -0.546875l0.515625 0l0 -1.015625l0.703125 -0.421875l0 1.4375l0.703125 0l0 0.546875l-0.703125 0l0 2.4375q0 0.296875 0.03125 0.390625q0.046875 0.078125 0.125 0.125q0.078125 0.046875 0.234375 0.046875q0.125 0 0.3125 -0.015625z" fill-rule="nonzero"/><path fill="#000000" fill-opacity="0.0" d="m503.84778 240.39633l23.590515 0l0 9.700775l-23.590515 0z" fill-rule="evenodd"/><path fill="#000000" d="m504.3634 248.07632l0 -4.15625l0.640625 0l0 0.640625q0.234375 -0.453125 0.4375 -0.59375q0.21875 -0.140625 0.453125 -0.140625q0.359375 0 0.734375 0.234375l-0.25 0.65625q-0.25 -0.15625 -0.515625 -0.15625q-0.234375 0 -0.421875 0.140625q-0.171875 0.140625 -0.25 0.375q-0.125 0.375 -0.125 0.828125l0 2.171875l-0.703125 0z" fill-rule="nonzero"/><path fill="#000000" fill-opacity="0.0" d="m278.4672 230.69685l26.11023 0l0 22.614166l-26.11023 0z" fill-rule="evenodd"/><path fill="#000000" d="m287.56882 248.61685l0 -13.359375l1.640625 0l0 4.796875q1.140625 -1.328125 2.890625 -1.328125q1.078125 0 1.859375 0.421875q0.796875 0.421875 1.140625 1.171875q0.34375 0.75 0.34375 2.171875l0 6.125l-1.640625 0l0 -6.125q0 -1.234375 -0.53125 -1.796875q-0.53125 -0.5625 -1.515625 -0.5625q-0.71875 0 -1.359375 0.390625q-0.640625 0.375 -0.921875 1.015625q-0.265625 0.640625 -0.265625 1.78125l0 5.296875l-1.640625 0z" fill-rule="nonzero"/><path fill="#000000" fill-opacity="0.0" d="m297.00262 230.69685l23.590546 0l0 9.70079l-23.590546 0z" fill-rule="evenodd"/><path fill="#000000" d="m299.06512 237.75185l0.109375 0.609375q-0.296875 0.078125 -0.53125 0.078125q-0.390625 0 -0.609375 -0.125q-0.203125 -0.125 -0.296875 -0.3125q-0.078125 -0.203125 -0.078125 -0.84375l0 -2.390625l-0.515625 0l0 -0.546875l0.515625 0l0 -1.015625l0.703125 -0.421875l0 1.4375l0.703125 0l0 0.546875l-0.703125 0l0 2.4375q0 0.296875 0.03125 0.390625q0.046875 0.078125 0.125 0.125q0.078125 0.046875 0.234375 0.046875q0.125 0 0.3125 -0.015625z" fill-rule="nonzero"/><path fill="#000000" fill-opacity="0.0" d="m297.00262 240.39764l23.590546 0l0 9.700775l-23.590546 0z" fill-rule="evenodd"/><path fill="#000000" d="m299.987 248.07764l-0.703125 0l0 -4.484375q-0.25 0.25 -0.671875 0.5q-0.40625 0.234375 -0.734375 0.34375l0 -0.671875q0.59375 -0.28125 1.03125 -0.671875q0.4375 -0.390625 0.625 -0.765625l0.453125 0l0 5.75z" fill-rule="nonzero"/><path fill="#000000" fill-opacity="0.0" d="m430.09448 111.69292l26.11023 0l0 22.614166l-26.11023 0z" fill-rule="evenodd"/><path fill="#000000" d="m439.64178 133.33167l-0.1875 -1.53125q0.546875 0.140625 0.9375 0.140625q0.546875 0 0.875 -0.1875q0.328125 -0.171875 0.546875 -0.5q0.15625 -0.25 0.5 -1.21875q0.046875 -0.140625 0.140625 -0.40625l-3.671875 -9.6875l1.765625 0l2.015625 5.59375q0.390625 1.078125 0.703125 2.25q0.28125 -1.125 0.671875 -2.203125l2.078125 -5.640625l1.640625 0l-3.6875 9.828125q-0.59375 1.609375 -0.921875 2.203125q-0.4375 0.8125 -1.0 1.1875q-0.5625 0.375 -1.34375 0.375q-0.484375 0 -1.0625 -0.203125z" fill-rule="nonzero"/><path fill="#000000" fill-opacity="0.0" d="m448.6299 111.69292l23.590546 0l0 9.700783l-23.590546 0z" fill-rule="evenodd"/><path fill="#000000" d="m450.6924 118.74791l0.109375 0.609375q-0.296875 0.078125 -0.53125 0.078125q-0.390625 0 -0.609375 -0.125q-0.203125 -0.125 -0.296875 -0.3125q-0.078125 -0.203125 -0.078125 -0.84375l0 -2.390625l-0.515625 0l0 -0.546875l0.515625 0l0 -1.015625l0.703125 -0.421875l0 1.4375l0.703125 0l0 0.546875l-0.703125 0l0 2.4375q0 0.296875 0.03125 0.390625q0.046875 0.078125 0.125 0.125q0.078125 0.046875 0.234375 0.046875q0.125 0 0.3125 -0.015625z" fill-rule="nonzero"/><path fill="#000000" fill-opacity="0.0" d="m448.6299 121.3937l23.590546 0l0 9.700783l-23.590546 0z" fill-rule="evenodd"/><path fill="#000000" d="m451.8018 130.66745l0 -2.03125q-0.15625 0.21875 -0.453125 0.375q-0.296875 0.15625 -0.625 0.15625q-0.75 0 -1.28125 -0.59375q-0.53125 -0.59375 -0.53125 -1.609375q0 -0.625 0.21875 -1.125q0.21875 -0.5 0.625 -0.75q0.421875 -0.265625 0.90625 -0.265625q0.765625 0 1.21875 0.65625l0 -0.5625l0.625 0l0 5.75l-0.703125 0zm-2.171875 -3.6875q0 0.8125 0.328125 1.21875q0.34375 0.390625 0.8125 0.390625q0.453125 0 0.78125 -0.375q0.328125 -0.390625 0.328125 -1.171875q0 -0.828125 -0.34375 -1.234375q-0.34375 -0.421875 -0.8125 -0.421875q-0.453125 0 -0.78125 0.390625q-0.3125 0.390625 -0.3125 1.203125z" fill-rule="nonzero"/><path fill="#000000" fill-opacity="0.0" d="m328.16272 111.69292l26.11026 0l0 22.614166l-26.11026 0z" fill-rule="evenodd"/><path fill="#000000" d="m337.71002 133.33167l-0.1875 -1.53125q0.546875 0.140625 0.9375 0.140625q0.546875 0 0.875 -0.1875q0.328125 -0.171875 0.546875 -0.5q0.15625 -0.25 0.5 -1.21875q0.046875 -0.140625 0.140625 -0.40625l-3.671875 -9.6875l1.765625 0l2.015625 5.59375q0.390625 1.078125 0.703125 2.25q0.28125 -1.125 0.671875 -2.203125l2.078125 -5.640625l1.640625 0l-3.6875 9.828125q-0.59375 1.609375 -0.921875 2.203125q-0.4375 0.8125 -1.0 1.1875q-0.5625 0.375 -1.34375 0.375q-0.484375 0 -1.0625 -0.203125z" fill-rule="nonzero"/><path fill="#000000" fill-opacity="0.0" d="m346.69815 111.69292l23.590576 0l0 9.700783l-23.590576 0z" fill-rule="evenodd"/><path fill="#000000" d="m348.76065 118.74791l0.109375 0.609375q-0.296875 0.078125 -0.53125 0.078125q-0.390625 0 -0.609375 -0.125q-0.203125 -0.125 -0.296875 -0.3125q-0.078125 -0.203125 -0.078125 -0.84375l0 -2.390625l-0.515625 0l0 -0.546875l0.515625 0l0 -1.015625l0.703125 -0.421875l0 1.4375l0.703125 0l0 0.546875l-0.703125 0l0 2.4375q0 0.296875 0.03125 0.390625q0.046875 0.078125 0.125 0.125q0.078125 0.046875 0.234375 0.046875q0.125 0 0.3125 -0.015625z" fill-rule="nonzero"/><path fill="#000000" fill-opacity="0.0" d="m346.69815 121.3937l23.590576 0l0 9.700783l-23.590576 0z" fill-rule="evenodd"/><path fill="#000000" d="m349.68253 129.0737l-0.703125 0l0 -4.484375q-0.25 0.25 -0.671875 0.5q-0.40625 0.234375 -0.734375 0.34375l0 -0.671875q0.59375 -0.28125 1.03125 -0.671875q0.4375 -0.390625 0.625 -0.765625l0.453125 0l0 5.75z" fill-rule="nonzero"/><path fill="#000000" fill-opacity="0.0" d="m423.6063 349.6929l26.11023 0l0 22.614197l-26.11023 0z" fill-rule="evenodd"/><path fill="#000000" d="m432.13797 367.6129l3.53125 -5.03125l-3.265625 -4.640625l2.046875 0l1.484375 2.265625q0.421875 0.640625 0.671875 1.078125q0.40625 -0.59375 0.734375 -1.0625l1.640625 -2.28125l1.953125 0l-3.34375 4.546875l3.59375 5.125l-2.015625 0l-1.984375 -3.0l-0.515625 -0.8125l-2.546875 3.8125l-1.984375 0z" fill-rule="nonzero"/><path fill="#000000" fill-opacity="0.0" d="m442.14172 349.6929l23.590546 0l0 9.700806l-23.590546 0z" fill-rule="evenodd"/><path fill="#000000" d="m444.20422 356.74792l0.109375 0.609375q-0.296875 0.078125 -0.53125 0.078125q-0.390625 0 -0.609375 -0.125q-0.203125 -0.125 -0.296875 -0.3125q-0.078125 -0.203125 -0.078125 -0.84375l0 -2.390625l-0.515625 0l0 -0.546875l0.515625 0l0 -1.015625l0.703125 -0.421875l0 1.4375l0.703125 0l0 0.546875l-0.703125 0l0 2.4375q0 0.296875 0.03125 0.390625q0.046875 0.078125 0.125 0.125q0.078125 0.046875 0.234375 0.046875q0.125 0 0.3125 -0.015625z" fill-rule="nonzero"/><path fill="#000000" fill-opacity="0.0" d="m442.14172 359.3937l23.590546 0l0 9.700775l-23.590546 0z" fill-rule="evenodd"/><path fill="#000000" d="m445.1261 367.0737l-0.703125 0l0 -4.484375q-0.25 0.25 -0.671875 0.5q-0.40625 0.234375 -0.734375 0.34375l0 -0.671875q0.59375 -0.28125 1.03125 -0.671875q0.4375 -0.390625 0.625 -0.765625l0.453125 0l0 5.75z" fill-rule="nonzero"/></g></svg>