<svg version="1.1" viewBox="0.0 0.0 1008.0209973753281 394.18110236220474" fill="none" stroke="none" stroke-linecap="square" stroke-miterlimit="10" xmlns:xlink="http://www.w3.org/1999/xlink" xmlns="http://www.w3.org/2000/svg"><clipPath id="p.0"><path d="m0 0l1008.021 0l0 394.1811l-1008.021 0l0 -394.1811z" clip-rule="nonzero"/></clipPath><g clip-path="url(#p.0)"><path fill="#000000" fill-opacity="0.0" d="m0 0l1008.021 0l0 394.1811l-1008.021 0z" fill-rule="evenodd"/><path fill="#000000" fill-opacity="0.0" d="m890.4042 254.07988l0 0c0 -17.742691 14.383301 -32.125977 32.126038 -32.125977l0 0c8.520325 0 16.691711 3.3846893 22.716492 9.409485c6.0247803 6.0247803 9.409485 14.196152 9.409485 22.716492l0 0c0 17.742691 -14.383301 32.12599 -32.125977 32.12599l0 0c-17.742737 0 -32.126038 -14.383301 -32.126038 -32.12599z" fill-rule="evenodd"/><path stroke="#000000" stroke-width="3.0" stroke-linejoin="round" stroke-linecap="butt" d="m890.4042 254.07988l0 0c0 -17.742691 14.383301 -32.125977 32.126038 -32.125977l0 0c8.520325 0 16.691711 3.3846893 22.716492 9.409485c6.0247803 6.0247803 9.409485 14.196152 9.409485 22.716492l0 0c0 17.742691 -14.383301 32.12599 -32.125977 32.12599l0 0c-17.742737 0 -32.126038 -14.383301 -32.126038 -32.12599z" fill-rule="evenodd"/><path fill="#000000" d="m914.52545 244.60176l0 7.015625q1.765625 -2.078125 4.21875 -2.078125q1.265625 0 2.28125 0.46875q1.015625 0.46875 1.53125 1.203125q0.515625 0.734375 0.703125 1.625q0.1875 0.875 0.1875 2.734375l0 8.10936l-3.65625 0l0 -7.296875q0 -2.1718597 -0.21875 -2.7499847q-0.203125 -0.59375 -0.734375 -0.9375q-0.515625 -0.359375 -1.3125 -0.359375q-0.90625 0 -1.625 0.453125q-0.71875 0.4375 -1.046875 1.328125q-0.328125 0.890625 -0.328125 2.6406097l0 6.921875l-3.65625 0l0 -19.07811l3.65625 0z" fill-rule="nonzero"/><path fill="#000000" d="m934.9019 253.67989l-2.4375 0l0 -4.703125q0 -1.484375 -0.15625 -1.921875q-0.15625 -0.4375 -0.515625 -0.6875q-0.34375 -0.25 -0.84375 -0.25q-0.625 0 -1.140625 0.359375q-0.5 0.34375 -0.6875 0.921875q-0.171875 0.5625 -0.171875 2.109375l0 4.171875l-2.4375 0l0 -9.21875l2.25 0l0 1.359375q1.21875 -1.5625 3.046875 -1.5625q0.796875 0 1.46875 0.296875q0.671875 0.28125 1.015625 0.734375q0.34375 0.453125 0.46875 1.03125q0.140625 0.5625 0.140625 1.640625l0 5.71875z" fill-rule="nonzero"/><path fill="#000000" fill-opacity="0.0" d="m890.389 127.327805l0 0c0 -17.742691 14.390381 -32.125984 32.141724 -32.125984l0 0c8.524536 0 16.69989 3.3846893 22.727661 9.409485c6.027771 6.024788 9.414124 14.196159 9.414124 22.7165l0 0c0 17.742691 -14.390381 32.125977 -32.141785 32.125977l0 0c-17.751343 0 -32.141724 -14.3832855 -32.141724 -32.125977z" fill-rule="evenodd"/><path stroke="#000000" stroke-width="3.0" stroke-linejoin="round" stroke-linecap="butt" d="m890.389 127.327805l0 0c0 -17.742691 14.390381 -32.125984 32.141724 -32.125984l0 0c8.524536 0 16.69989 3.3846893 22.727661 9.409485c6.027771 6.024788 9.414124 14.196159 9.414124 22.7165l0 0c0 17.742691 -14.390381 32.125977 -32.141785 32.125977l0 0c-17.751343 0 -32.141724 -14.3832855 -32.141724 -32.125977z" fill-rule="evenodd"/><path fill="#000000" d="m909.8799 123.09968l3.890625 0l3.296875 9.812492l3.234375 -9.812492l3.78125 0l-4.875 13.312492l-0.875 2.40625q-0.484375 1.203125 -0.921875 1.84375q-0.4375 0.640625 -1.0 1.03125q-0.5625 0.40625 -1.390625 0.625q-0.828125 0.21875 -1.859375 0.21875q-1.0625 0 -2.078125 -0.21875l-0.328125 -2.859375q0.859375 0.15625 1.546875 0.15625q1.28125 0 1.890625 -0.75q0.609375 -0.734375 0.9375 -1.90625l-5.25 -13.859367z" fill-rule="nonzero"/><path fill="#000000" d="m934.1735 126.9278l-2.4375 0l0 -4.703125q0 -1.484375 -0.15625 -1.921875q-0.15625 -0.4375 -0.515625 -0.6875q-0.34375 -0.25 -0.84375 -0.25q-0.625 0 -1.140625 0.359375q-0.5 0.34375 -0.6875 0.921875q-0.171875 0.5625 -0.171875 2.109375l0 4.171875l-2.4375 0l0 -9.21875l2.25 0l0 1.359375q1.21875 -1.5625 3.046875 -1.5625q0.796875 0 1.46875 0.296875q0.671875 0.28125 1.015625 0.734375q0.34375 0.453125 0.46875 1.03125q0.140625 0.5625 0.140625 1.640625l0 5.71875z" fill-rule="nonzero"/><path fill="#000000" fill-opacity="0.0" d="m922.0446 178.3307l92.944885 0l0 43.622055l-92.944885 0z" fill-rule="evenodd"/><path fill="#000000" d="m934.20087 206.5307l-0.828125 -13.359375l1.8125 0l0.3125 6.609375q0.03125 0.46875 0.09375 2.5625q0.015625 0.59375 0.015625 0.828125q0 0.15625 0 0.90625q1.109375 -2.28125 1.59375 -3.21875l4.0625 -7.6875l1.84375 0l0.4375 7.8125q0.078125 1.34375 0.109375 3.21875q0.15625 -0.453125 0.578125 -1.375q0.671875 -1.484375 0.984375 -2.125l3.8125 -7.53125l1.8125 0l-6.78125 13.359375l-1.921875 0l-0.4375 -8.09375q-0.078125 -1.03125 -0.109375 -2.546875q-0.546875 1.265625 -0.921875 1.96875l-4.640625 8.671875l-1.828125 0z" fill-rule="nonzero"/><path fill="#000000" d="m949.09076 199.0307l2.0 -9.546875l1.171875 0l-0.765625 3.671875q0.65625 -0.640625 1.21875 -0.90625q0.578125 -0.28125 1.171875 -0.28125q0.859375 0 1.328125 0.453125q0.484375 0.453125 0.484375 1.1875q0 0.359375 -0.203125 1.34375l-0.859375 4.078125l-1.171875 0l0.875 -4.1875q0.1875 -0.90625 0.1875 -1.140625q0 -0.34375 -0.234375 -0.546875q-0.234375 -0.21875 -0.671875 -0.21875q-0.640625 0 -1.21875 0.34375q-0.578125 0.328125 -0.90625 0.90625q-0.328125 0.578125 -0.609375 1.875l-0.609375 2.96875l-1.1875 0zm6.9748535 2.671875l0.078125 -1.109375q0.359375 0.109375 0.703125 0.109375q0.359375 0 0.578125 -0.171875q0.28125 -0.21875 0.625 -0.796875l0.375 -0.6875l-1.15625 -6.921875l1.171875 0l0.515625 3.484375q0.15625 1.046875 0.265625 2.078125l3.09375 -5.5625l1.234375 0l-4.40625 7.828125q-0.640625 1.140625 -1.140625 1.515625q-0.5 0.375 -1.140625 0.375q-0.40625 0 -0.796875 -0.140625z" fill-rule="nonzero"/><path fill="#000000" d="m964.51086 206.5307l0 -2.0l2.0 0l0 2.0q0 1.109375 -0.390625 1.78125q-0.390625 0.6875 -1.234375 1.046875l-0.5 -0.75q0.5625 -0.234375 0.828125 -0.71875q0.265625 -0.46875 0.296875 -1.359375l-1.0 0z" fill-rule="nonzero"/><path fill="#000000" d="m969.59875 206.5307l0 -14.3125l2.75 0l0 5.15625q1.265625 -1.453125 3.015625 -1.453125q1.890625 0 3.125 1.375q1.25 1.375 1.25 3.9375q0 2.65625 -1.265625 4.09375q-1.265625 1.4375 -3.078125 1.4375q-0.890625 0 -1.75 -0.4375q-0.859375 -0.453125 -1.484375 -1.328125l0 1.53125l-2.5625 0zm2.734375 -5.40625q0 1.609375 0.5 2.375q0.71875 1.09375 1.90625 1.09375q0.90625 0 1.546875 -0.765625q0.640625 -0.78125 0.640625 -2.453125q0 -1.78125 -0.65625 -2.5625q-0.640625 -0.78125 -1.640625 -0.78125q-0.984375 0 -1.640625 0.765625q-0.65625 0.765625 -0.65625 2.328125z" fill-rule="nonzero"/><path fill="#000000" d="m980.5968 192.12445l1.9375 0l1.65625 4.90625l1.609375 -4.90625l1.90625 0l-2.453125 6.640625l-0.421875 1.203125q-0.25 0.609375 -0.46875 0.921875q-0.21875 0.328125 -0.5 0.515625q-0.28125 0.203125 -0.703125 0.3125q-0.40625 0.125 -0.921875 0.125q-0.53125 0 -1.03125 -0.125l-0.171875 -1.421875q0.4375 0.078125 0.78125 0.078125q0.640625 0 0.9375 -0.375q0.3125 -0.375 0.46875 -0.953125l-2.625 -6.921875z" fill-rule="nonzero"/><path fill="#000000" fill-opacity="0.0" d="m630.16565 350.49765l129.66931 0" fill-rule="evenodd"/><path stroke="#000000" stroke-width="3.0" stroke-linejoin="round" stroke-linecap="butt" stroke-dasharray="3.0,9.0" d="m630.16565 350.49765l129.66931 0" fill-rule="evenodd"/><path fill="#000000" fill-opacity="0.0" d="m10.646987 254.07484l0 0c0 -17.740631 14.38337 -32.122253 32.126152 -32.122253l0 0c8.52039 0 16.6918 3.3842926 22.716621 9.408386c6.024826 6.0240936 9.409538 14.194504 9.409538 22.713867l0 0c0 17.740616 -14.383373 32.12224 -32.12616 32.12224l0 0c-17.742783 0 -32.126152 -14.381622 -32.126152 -32.12224z" fill-rule="evenodd"/><path stroke="#000000" stroke-width="3.0" stroke-linejoin="round" stroke-linecap="butt" d="m10.646987 254.07484l0 0c0 -17.740631 14.38337 -32.122253 32.126152 -32.122253l0 0c8.52039 0 16.6918 3.3842926 22.716621 9.408386c6.024826 6.0240936 9.409538 14.194504 9.409538 22.713867l0 0c0 17.740616 -14.383373 32.12224 -32.12616 32.12224l0 0c-17.742783 0 -32.126152 -14.381622 -32.126152 -32.12224z" fill-rule="evenodd"/><path fill="#000000" d="m35.254166 244.59671l0 7.015625q1.765625 -2.078125 4.21875 -2.078125q1.265625 0 2.28125 0.46875q1.015625 0.46875 1.53125 1.203125q0.515625 0.734375 0.703125 1.625q0.1875 0.875 0.1875 2.734375l0 8.109375l-3.65625 0l0 -7.296875q0 -2.171875 -0.21875 -2.75q-0.203125 -0.59375 -0.734375 -0.9375q-0.515625 -0.359375 -1.3125 -0.359375q-0.90625 0 -1.625 0.453125q-0.71875 0.4375 -1.046875 1.328125q-0.328125 0.890625 -0.328125 2.640625l0 6.921875l-3.656248 0l0 -19.078125l3.656248 0z" fill-rule="nonzero"/><path fill="#000000" d="m50.849365 240.90921q1.84375 0 2.890625 1.3125q1.234375 1.5625 1.234375 5.1875q0 3.609375 -1.25 5.1875q-1.03125 1.296875 -2.875 1.296875q-1.859375 0 -3.0 -1.421875q-1.125 -1.4375 -1.125 -5.09375q0 -3.59375 1.25 -5.171875q1.03125 -1.296875 2.875 -1.296875zm0 2.015625q-0.4375 0 -0.796875 0.28125q-0.34375 0.28125 -0.53125 1.015625q-0.25 0.9375 -0.25 3.1875q0 2.234375 0.21875 3.078125q0.234375 0.828125 0.578125 1.109375q0.34375 0.28125 0.78125 0.28125q0.4375 0 0.78125 -0.28125q0.359375 -0.296875 0.546875 -1.015625q0.25 -0.9375 0.25 -3.171875q0 -2.25 -0.234375 -3.078125q-0.21875 -0.84375 -0.5625 -1.125q-0.34375 -0.28125 -0.78125 -0.28125z" fill-rule="nonzero"/><path fill="#000000" fill-opacity="0.0" d="m147.29976 318.32748l0 -60.031525" fill-rule="evenodd"/><path stroke="#000000" stroke-width="3.0" stroke-linejoin="round" stroke-linecap="butt" d="m147.29976 318.32745l0 -42.031494" fill-rule="evenodd"/><path fill="#000000" stroke="#000000" stroke-width="3.0" stroke-linecap="butt" d="m152.25496 276.29596l-4.9552 -13.614288l-4.9552 13.614288z" fill-rule="evenodd"/><path fill="#000000" fill-opacity="0.0" d="m115.15802 350.45346l0 0c0 -17.742706 14.39035 -32.125977 32.14174 -32.125977l0 0c8.524506 0 16.69989 3.384674 22.72763 9.409454c6.0277405 6.024811 9.414093 14.196167 9.414093 22.716522l0 0c0 17.742676 -14.390335 32.125977 -32.141724 32.125977l0 0c-17.751389 0 -32.14174 -14.383301 -32.14174 -32.125977z" fill-rule="evenodd"/><path stroke="#000000" stroke-width="3.0" stroke-linejoin="round" stroke-linecap="butt" d="m115.15802 350.45346l0 0c0 -17.742706 14.39035 -32.125977 32.14174 -32.125977l0 0c8.524506 0 16.69989 3.384674 22.72763 9.409454c6.0277405 6.024811 9.414093 14.196167 9.414093 22.716522l0 0c0 17.742676 -14.390335 32.125977 -32.141724 32.125977l0 0c-17.751389 0 -32.14174 -14.383301 -32.14174 -32.125977z" fill-rule="evenodd"/><path fill="#000000" d="m135.10341 360.05344l4.984375 -7.125l-4.78125 -6.703125l4.46875 0l2.453125 3.8125l2.578125 -3.8125l4.28125 0l-4.671875 6.546875l5.109375 7.28125l-4.484375 0l-2.8125 -4.28125l-2.84375 4.28125l-4.28125 0z" fill-rule="nonzero"/><path fill="#000000" d="m156.75647 350.05344l-2.4375 0l0 -9.1875q-1.328125 1.25 -3.140625 1.84375l0 -2.203125q0.953125 -0.3125 2.0625 -1.1875q1.125 -0.875 1.546875 -2.03125l1.96875 0l0 12.765625z" fill-rule="nonzero"/><path fill="#000000" fill-opacity="0.0" d="m151.03018 254.75066l60.566925 -0.6614227" fill-rule="evenodd"/><path stroke="#000000" stroke-width="3.0" stroke-linejoin="round" stroke-linecap="butt" d="m151.03018 254.75066l42.567993 -0.464859" fill-rule="evenodd"/><path fill="#000000" stroke="#000000" stroke-width="3.0" stroke-linecap="butt" d="m193.6523 259.2407l13.559372 -5.1035614l-13.667587 -4.806244z" fill-rule="evenodd"/><path fill="#000000" fill-opacity="0.0" d="m80.04462 210.87665l116.44095 0l0 43.62204l-116.44095 0z" fill-rule="evenodd"/><path fill="#000000" d="m92.20087 239.07664l-0.828125 -13.359375l1.8125 0l0.3125 6.609375q0.03125 0.46875 0.09375 2.5625q0.015625 0.59375 0.015625 0.828125q0 0.15625 0 0.90625q1.109375 -2.28125 1.59375 -3.21875l4.0625 -7.6875l1.84375 0l0.4375 7.8125q0.078125 1.34375 0.109375 3.21875q0.15625 -0.453125 0.578125 -1.375q0.671875 -1.484375 0.984375 -2.125l3.8125 -7.53125l1.8125 0l-6.78125 13.359375l-1.921875 0l-0.4375 -8.09375q-0.078125 -1.03125 -0.109375 -2.546875q-0.546875 1.265625 -0.921875 1.96875l-4.640625 8.671875l-1.828125 0z" fill-rule="nonzero"/><path fill="#000000" d="m106.63765 232.07664l2.796875 -3.265625l-1.609375 -3.1875l1.21875 0l0.546875 1.15625q0.3125 0.640625 0.546875 1.234375l1.859375 -2.390625l1.34375 0l-2.703125 3.265625l1.625 3.1875l-1.21875 0l-0.640625 -1.3125q-0.203125 -0.421875 -0.46875 -1.03125l-1.921875 2.34375l-1.375 0zm6.640518 0l1.859375 -8.90625l1.109375 0l-0.71875 3.421875q0.609375 -0.59375 1.140625 -0.84375q0.53125 -0.265625 1.09375 -0.265625q0.796875 0 1.234375 0.421875q0.453125 0.421875 0.453125 1.109375q0 0.34375 -0.203125 1.25l-0.78125 3.8125l-1.109375 0l0.828125 -3.90625q0.171875 -0.84375 0.171875 -1.0625q0 -0.328125 -0.21875 -0.515625q-0.21875 -0.203125 -0.625 -0.203125q-0.609375 0 -1.15625 0.3125q-0.53125 0.3125 -0.84375 0.859375q-0.296875 0.53125 -0.546875 1.75l-0.578125 2.765625l-1.109375 0z" fill-rule="nonzero"/><path fill="#000000" d="m120.80458 239.07664l0.390625 -1.875l1.875 0l-0.34375 1.640625q-0.3125 1.46875 -0.96875 2.140625q-0.640625 0.6875 -1.515625 0.796875l0.140625 -0.71875q1.09375 -0.3125 1.4375 -1.984375l-1.015625 0zm7.323929 0l-0.828125 -13.359375l1.8125 0l0.3125 6.609375q0.03125 0.46875 0.09375 2.5625q0.015625 0.59375 0.015625 0.828125q0 0.15625 0 0.90625q1.109375 -2.28125 1.59375 -3.21875l4.0625 -7.6875l1.84375 0l0.4375 7.8125q0.078125 1.34375 0.109375 3.21875q0.15625 -0.453125 0.578125 -1.375q0.671875 -1.484375 0.984375 -2.125l3.8125 -7.53125l1.8125 0l-6.78125 13.359375l-1.921875 0l-0.4375 -8.09375q-0.078125 -1.03125 -0.109375 -2.546875q-0.546875 1.265625 -0.921875 1.96875l-4.640625 8.671875l-1.828125 0z" fill-rule="nonzero"/><path fill="#000000" d="m143.01842 231.57664l2.0 -9.546875l1.171875 0l-0.765625 3.671875q0.65625 -0.640625 1.21875 -0.90625q0.578125 -0.28125 1.171875 -0.28125q0.859375 0 1.328125 0.453125q0.484375 0.453125 0.484375 1.1875q0 0.359375 -0.203125 1.34375l-0.859375 4.078125l-1.171875 0l0.875 -4.1875q0.1875 -0.90625 0.1875 -1.140625q0 -0.34375 -0.234375 -0.546875q-0.234375 -0.21875 -0.671875 -0.21875q-0.640625 0 -1.21875 0.34375q-0.578125 0.328125 -0.90625 0.90625q-0.328125 0.578125 -0.609375 1.875l-0.609375 2.96875l-1.1875 0zm7.4123535 0l2.0 -9.546875l1.171875 0l-0.765625 3.671875q0.65625 -0.640625 1.21875 -0.90625q0.578125 -0.28125 1.171875 -0.28125q0.859375 0 1.328125 0.453125q0.484375 0.453125 0.484375 1.1875q0 0.359375 -0.203125 1.34375l-0.859375 4.078125l-1.171875 0l0.875 -4.1875q0.1875 -0.90625 0.1875 -1.140625q0 -0.34375 -0.234375 -0.546875q-0.234375 -0.21875 -0.671875 -0.21875q-0.640625 0 -1.21875 0.34375q-0.578125 0.328125 -0.90625 0.90625q-0.328125 0.578125 -0.609375 1.875l-0.609375 2.96875l-1.1875 0z" fill-rule="nonzero"/><path fill="#000000" d="m158.48375 239.07664l0.421875 -2.0l2.015625 0l-0.359375 1.75q-0.328125 1.5625 -1.03125 2.296875q-0.703125 0.734375 -1.640625 0.84375l0.15625 -0.765625q1.171875 -0.328125 1.53125 -2.125l-1.09375 0z" fill-rule="nonzero"/><path fill="#000000" d="m164.27477 239.07664l0 -14.3125l2.75 0l0 5.15625q1.265625 -1.453125 3.015625 -1.453125q1.890625 0 3.125 1.375q1.25 1.375 1.25 3.9375q0 2.65625 -1.265625 4.09375q-1.265625 1.4375 -3.078125 1.4375q-0.890625 0 -1.75 -0.4375q-0.859375 -0.453125 -1.484375 -1.328125l0 1.53125l-2.5625 0zm2.734375 -5.40625q0 1.609375 0.5 2.375q0.71875 1.09375 1.90625 1.09375q0.90625 0 1.546875 -0.765625q0.640625 -0.78125 0.640625 -2.453125q0 -1.78125 -0.65625 -2.5625q-0.640625 -0.78125 -1.640625 -0.78125q-0.984375 0 -1.640625 0.765625q-0.65625 0.765625 -0.65625 2.328125z" fill-rule="nonzero"/><path fill="#000000" d="m177.96031 222.02977l0 3.515625q0.875 -1.03125 2.109375 -1.03125q0.640625 0 1.140625 0.234375q0.515625 0.234375 0.765625 0.59375q0.25 0.359375 0.34375 0.8125q0.109375 0.4375 0.109375 1.375l0 4.046875l-1.828125 0l0 -3.65625q0 -1.078125 -0.109375 -1.375q-0.109375 -0.296875 -0.375 -0.46875q-0.265625 -0.171875 -0.65625 -0.171875q-0.453125 0 -0.8125 0.234375q-0.359375 0.21875 -0.53125 0.671875q-0.15625 0.4375 -0.15625 1.296875l0 3.46875l-1.828125 0l0 -9.546875l1.828125 0z" fill-rule="nonzero"/><path fill="#000000" d="m143.56561 254.75066l0 0c0 -1.9569092 1.6710052 -3.5433044 3.7322845 -3.5433044l0 0c0.98986816 0 1.9391937 0.37330627 2.6391296 1.0378113c0.6999359 0.66448975 1.0931549 1.5657501 1.0931549 2.5054932l0 0c0 1.9569244 -1.6710052 3.5433197 -3.7322845 3.5433197l0 0c-2.0612793 0 -3.7322845 -1.5863953 -3.7322845 -3.5433197z" fill-rule="evenodd"/><path stroke="#000000" stroke-width="1.0" stroke-linejoin="round" stroke-linecap="butt" d="m143.56561 254.75066l0 0c0 -1.9569092 1.6710052 -3.5433044 3.7322845 -3.5433044l0 0c0.98986816 0 1.9391937 0.37330627 2.6391296 1.0378113c0.6999359 0.66448975 1.0931549 1.5657501 1.0931549 2.5054932l0 0c0 1.9569244 -1.6710052 3.5433197 -3.7322845 3.5433197l0 0c-2.0612793 0 -3.7322845 -1.5863953 -3.7322845 -3.5433197z" fill-rule="evenodd"/><path fill="#000000" fill-opacity="0.0" d="m74.8993 254.07484l68.661415 0.6614075" fill-rule="evenodd"/><path stroke="#000000" stroke-width="3.0" stroke-linejoin="round" stroke-linecap="butt" d="m74.89929 254.07484l50.662262 0.48802185" fill-rule="evenodd"/><path fill="#000000" stroke="#000000" stroke-width="3.0" stroke-linecap="butt" d="m125.51382 259.51785l13.6614 -4.8238373l-13.565933 -5.0861053z" fill-rule="evenodd"/><path fill="#000000" fill-opacity="0.0" d="m211.59712 254.07857l0 0c0 -17.742691 14.3832855 -32.125977 32.125977 -32.125977l0 0c8.52034 0 16.691727 3.3846893 22.716507 9.409485c6.0247803 6.0247803 9.409485 14.196152 9.409485 22.716492l0 0c0 17.742691 -14.383301 32.12599 -32.12599 32.12599l0 0c-17.742691 0 -32.125977 -14.383301 -32.125977 -32.12599z" fill-rule="evenodd"/><path stroke="#000000" stroke-width="3.0" stroke-linejoin="round" stroke-linecap="butt" d="m211.59712 254.07857l0 0c0 -17.742691 14.3832855 -32.125977 32.125977 -32.125977l0 0c8.52034 0 16.691727 3.3846893 22.716507 9.409485c6.0247803 6.0247803 9.409485 14.196152 9.409485 22.716492l0 0c0 17.742691 -14.383301 32.12599 -32.12599 32.12599l0 0c-17.742691 0 -32.125977 -14.383301 -32.125977 -32.12599z" fill-rule="evenodd"/><path fill="#000000" d="m236.20413 244.60045l0 7.015625q1.765625 -2.078125 4.21875 -2.078125q1.265625 0 2.28125 0.46875q1.015625 0.46875 1.53125 1.203125q0.515625 0.734375 0.703125 1.625q0.1875 0.875 0.1875 2.734375l0 8.10936l-3.65625 0l0 -7.296875q0 -2.1718597 -0.21875 -2.7499847q-0.203125 -0.59375 -0.734375 -0.9375q-0.515625 -0.359375 -1.3125 -0.359375q-0.90625 0 -1.625 0.453125q-0.71875 0.4375 -1.046875 1.328125q-0.328125 0.890625 -0.328125 2.6406097l0 6.921875l-3.65625 0l0 -19.07811l3.65625 0z" fill-rule="nonzero"/><path fill="#000000" d="m253.9087 253.67857l-2.4375 0l0 -9.1875q-1.328125 1.25 -3.140625 1.84375l0 -2.203125q0.953125 -0.3125 2.0625 -1.1875q1.125 -0.875 1.546875 -2.03125l1.96875 0l0 12.765625z" fill-rule="nonzero"/><path fill="#000000" fill-opacity="0.0" d="m348.24988 318.32748l0 -60.031525" fill-rule="evenodd"/><path stroke="#000000" stroke-width="3.0" stroke-linejoin="round" stroke-linecap="butt" d="m348.24988 318.32745l0 -42.031494" fill-rule="evenodd"/><path fill="#000000" stroke="#000000" stroke-width="3.0" stroke-linecap="butt" d="m353.20508 276.29596l-4.9552 -13.614288l-4.9552 13.614288z" fill-rule="evenodd"/><path fill="#000000" fill-opacity="0.0" d="m316.10815 350.45346l0 0c0 -17.742706 14.39035 -32.125977 32.141724 -32.125977l0 0c8.524536 0 16.69989 3.384674 22.72763 9.409454c6.0277405 6.024811 9.414093 14.196167 9.414093 22.716522l0 0c0 17.742676 -14.39032 32.125977 -32.141724 32.125977l0 0c-17.751373 0 -32.141724 -14.383301 -32.141724 -32.125977z" fill-rule="evenodd"/><path stroke="#000000" stroke-width="3.0" stroke-linejoin="round" stroke-linecap="butt" d="m316.10815 350.45346l0 0c0 -17.742706 14.39035 -32.125977 32.141724 -32.125977l0 0c8.524536 0 16.69989 3.384674 22.72763 9.409454c6.0277405 6.024811 9.414093 14.196167 9.414093 22.716522l0 0c0 17.742676 -14.39032 32.125977 -32.141724 32.125977l0 0c-17.751373 0 -32.141724 -14.383301 -32.141724 -32.125977z" fill-rule="evenodd"/><path fill="#000000" d="m336.05353 360.05344l4.984375 -7.125l-4.78125 -6.703125l4.46875 0l2.453125 3.8125l2.578125 -3.8125l4.28125 0l-4.671875 6.546875l5.109375 7.28125l-4.484375 0l-2.8125 -4.28125l-2.84375 4.28125l-4.28125 0z" fill-rule="nonzero"/><path fill="#000000" d="m359.7066 347.7878l0 2.265625l-8.546875 0q0.140625 -1.28125 0.828125 -2.421875q0.703125 -1.15625 2.75 -3.0625q1.65625 -1.53125 2.015625 -2.078125q0.515625 -0.75 0.515625 -1.5q0 -0.8125 -0.4375 -1.25q-0.4375 -0.4375 -1.21875 -0.4375q-0.765625 0 -1.21875 0.46875q-0.4375 0.453125 -0.515625 1.515625l-2.421875 -0.234375q0.21875 -2.015625 1.359375 -2.890625q1.140625 -0.875 2.859375 -0.875q1.875 0 2.953125 1.015625q1.078125 1.015625 1.078125 2.515625q0 0.859375 -0.3125 1.640625q-0.296875 0.78125 -0.96875 1.625q-0.4375 0.5625 -1.59375 1.625q-1.15625 1.0625 -1.46875 1.40625q-0.296875 0.34375 -0.5 0.671875l4.84375 0z" fill-rule="nonzero"/><path fill="#000000" fill-opacity="0.0" d="m351.98032 254.75066l60.566925 -0.6614227" fill-rule="evenodd"/><path stroke="#000000" stroke-width="3.0" stroke-linejoin="round" stroke-linecap="butt" d="m351.98032 254.75066l42.567993 -0.464859" fill-rule="evenodd"/><path fill="#000000" stroke="#000000" stroke-width="3.0" stroke-linecap="butt" d="m394.60242 259.2407l13.559387 -5.1035614l-13.667603 -4.806244z" fill-rule="evenodd"/><path fill="#000000" fill-opacity="0.0" d="m280.99475 210.87665l116.44095 0l0 43.62204l-116.44095 0z" fill-rule="evenodd"/><path fill="#000000" d="m293.151 239.07664l-0.828125 -13.359375l1.8125 0l0.3125 6.609375q0.03125 0.46875 0.09375 2.5625q0.015625 0.59375 0.015625 0.828125q0 0.15625 0 0.90625q1.109375 -2.28125 1.59375 -3.21875l4.0625 -7.6875l1.84375 0l0.4375 7.8125q0.078125 1.34375 0.109375 3.21875q0.15625 -0.453125 0.578125 -1.375q0.671875 -1.484375 0.984375 -2.125l3.8125 -7.53125l1.8125 0l-6.78125 13.359375l-1.921875 0l-0.4375 -8.09375q-0.078125 -1.03125 -0.109375 -2.546875q-0.546875 1.265625 -0.921875 1.96875l-4.640625 8.671875l-1.828125 0z" fill-rule="nonzero"/><path fill="#000000" d="m307.58777 232.07664l2.796875 -3.265625l-1.609375 -3.1875l1.21875 0l0.546875 1.15625q0.3125 0.640625 0.546875 1.234375l1.859375 -2.390625l1.34375 0l-2.703125 3.265625l1.625 3.1875l-1.21875 0l-0.640625 -1.3125q-0.203125 -0.421875 -0.46875 -1.03125l-1.921875 2.34375l-1.375 0zm6.6405334 0l1.859375 -8.90625l1.109375 0l-0.71875 3.421875q0.609375 -0.59375 1.140625 -0.84375q0.53125 -0.265625 1.09375 -0.265625q0.796875 0 1.234375 0.421875q0.453125 0.421875 0.453125 1.109375q0 0.34375 -0.203125 1.25l-0.78125 3.8125l-1.109375 0l0.828125 -3.90625q0.171875 -0.84375 0.171875 -1.0625q0 -0.328125 -0.21875 -0.515625q-0.21875 -0.203125 -0.625 -0.203125q-0.609375 0 -1.15625 0.3125q-0.53125 0.3125 -0.84375 0.859375q-0.296875 0.53125 -0.546875 1.75l-0.578125 2.765625l-1.109375 0z" fill-rule="nonzero"/><path fill="#000000" d="m321.7547 239.07664l0.390625 -1.875l1.875 0l-0.34375 1.640625q-0.3125 1.46875 -0.96875 2.140625q-0.640625 0.6875 -1.515625 0.796875l0.140625 -0.71875q1.09375 -0.3125 1.4375 -1.984375l-1.015625 0zm7.323944 0l-0.828125 -13.359375l1.8125 0l0.3125 6.609375q0.03125 0.46875 0.09375 2.5625q0.015625 0.59375 0.015625 0.828125q0 0.15625 0 0.90625q1.109375 -2.28125 1.59375 -3.21875l4.0625 -7.6875l1.84375 0l0.4375 7.8125q0.078125 1.34375 0.109375 3.21875q0.15625 -0.453125 0.578125 -1.375q0.671875 -1.484375 0.984375 -2.125l3.8125 -7.53125l1.8125 0l-6.78125 13.359375l-1.921875 0l-0.4375 -8.09375q-0.078125 -1.03125 -0.109375 -2.546875q-0.546875 1.265625 -0.921875 1.96875l-4.640625 8.671875l-1.828125 0z" fill-rule="nonzero"/><path fill="#000000" d="m343.96854 231.57664l2.0 -9.546875l1.171875 0l-0.765625 3.671875q0.65625 -0.640625 1.21875 -0.90625q0.578125 -0.28125 1.171875 -0.28125q0.859375 0 1.328125 0.453125q0.484375 0.453125 0.484375 1.1875q0 0.359375 -0.203125 1.34375l-0.859375 4.078125l-1.171875 0l0.875 -4.1875q0.1875 -0.90625 0.1875 -1.140625q0 -0.34375 -0.234375 -0.546875q-0.234375 -0.21875 -0.671875 -0.21875q-0.640625 0 -1.21875 0.34375q-0.578125 0.328125 -0.90625 0.90625q-0.328125 0.578125 -0.609375 1.875l-0.609375 2.96875l-1.1875 0zm7.4123535 0l2.0 -9.546875l1.171875 0l-0.765625 3.671875q0.65625 -0.640625 1.21875 -0.90625q0.578125 -0.28125 1.171875 -0.28125q0.859375 0 1.328125 0.453125q0.484375 0.453125 0.484375 1.1875q0 0.359375 -0.203125 1.34375l-0.859375 4.078125l-1.171875 0l0.875 -4.1875q0.1875 -0.90625 0.1875 -1.140625q0 -0.34375 -0.234375 -0.546875q-0.234375 -0.21875 -0.671875 -0.21875q-0.640625 0 -1.21875 0.34375q-0.578125 0.328125 -0.90625 0.90625q-0.328125 0.578125 -0.609375 1.875l-0.609375 2.96875l-1.1875 0z" fill-rule="nonzero"/><path fill="#000000" d="m359.43387 239.07664l0.421875 -2.0l2.015625 0l-0.359375 1.75q-0.328125 1.5625 -1.03125 2.296875q-0.703125 0.734375 -1.640625 0.84375l0.15625 -0.765625q1.171875 -0.328125 1.53125 -2.125l-1.09375 0z" fill-rule="nonzero"/><path fill="#000000" d="m365.22488 239.07664l0 -14.3125l2.75 0l0 5.15625q1.265625 -1.453125 3.015625 -1.453125q1.890625 0 3.125 1.375q1.25 1.375 1.25 3.9375q0 2.65625 -1.265625 4.09375q-1.265625 1.4375 -3.078125 1.4375q-0.890625 0 -1.75 -0.4375q-0.859375 -0.453125 -1.484375 -1.328125l0 1.53125l-2.5625 0zm2.734375 -5.40625q0 1.609375 0.5 2.375q0.71875 1.09375 1.90625 1.09375q0.90625 0 1.546875 -0.765625q0.640625 -0.78125 0.640625 -2.453125q0 -1.78125 -0.65625 -2.5625q-0.640625 -0.78125 -1.640625 -0.78125q-0.984375 0 -1.640625 0.765625q-0.65625 0.765625 -0.65625 2.328125z" fill-rule="nonzero"/><path fill="#000000" d="m378.91043 222.02977l0 3.515625q0.875 -1.03125 2.109375 -1.03125q0.640625 0 1.140625 0.234375q0.515625 0.234375 0.765625 0.59375q0.25 0.359375 0.34375 0.8125q0.109375 0.4375 0.109375 1.375l0 4.046875l-1.828125 0l0 -3.65625q0 -1.078125 -0.109375 -1.375q-0.109375 -0.296875 -0.375 -0.46875q-0.265625 -0.171875 -0.65625 -0.171875q-0.453125 0 -0.8125 0.234375q-0.359375 0.21875 -0.53125 0.671875q-0.15625 0.4375 -0.15625 1.296875l0 3.46875l-1.828125 0l0 -9.546875l1.828125 0z" fill-rule="nonzero"/><path fill="#000000" d="m344.51575 254.75066l0 0c0 -1.9569092 1.67099 -3.5433044 3.7322693 -3.5433044l0 0c0.98986816 0 1.939209 0.37330627 2.6391296 1.0378113c0.6999512 0.66448975 1.0931702 1.5657501 1.0931702 2.5054932l0 0c0 1.9569244 -1.67099 3.5433197 -3.7322998 3.5433197l0 0c-2.0612793 0 -3.7322693 -1.5863953 -3.7322693 -3.5433197z" fill-rule="evenodd"/><path stroke="#000000" stroke-width="1.0" stroke-linejoin="round" stroke-linecap="butt" d="m344.51575 254.75066l0 0c0 -1.9569092 1.67099 -3.5433044 3.7322693 -3.5433044l0 0c0.98986816 0 1.939209 0.37330627 2.6391296 1.0378113c0.6999512 0.66448975 1.0931702 1.5657501 1.0931702 2.5054932l0 0c0 1.9569244 -1.67099 3.5433197 -3.7322998 3.5433197l0 0c-2.0612793 0 -3.7322693 -1.5863953 -3.7322693 -3.5433197z" fill-rule="evenodd"/><path fill="#000000" fill-opacity="0.0" d="m275.8491 254.07857l68.66141 0.6614227" fill-rule="evenodd"/><path stroke="#000000" stroke-width="3.0" stroke-linejoin="round" stroke-linecap="butt" d="m275.8491 254.07858l50.662262 0.48802185" fill-rule="evenodd"/><path fill="#000000" stroke="#000000" stroke-width="3.0" stroke-linecap="butt" d="m326.4636 259.52158l13.661407 -4.823822l-13.5659485 -5.0861206z" fill-rule="evenodd"/><path fill="#000000" fill-opacity="0.0" d="m412.54724 254.07857l0 0c0 -17.742691 14.383301 -32.125977 32.126007 -32.125977l0 0c8.520325 0 16.691711 3.3846893 22.716492 9.409485c6.0247803 6.0247803 9.409485 14.196152 9.409485 22.716492l0 0c0 17.742691 -14.383301 32.12599 -32.125977 32.12599l0 0c-17.742706 0 -32.126007 -14.383301 -32.126007 -32.12599z" fill-rule="evenodd"/><path stroke="#000000" stroke-width="3.0" stroke-linejoin="round" stroke-linecap="butt" d="m412.54724 254.07857l0 0c0 -17.742691 14.383301 -32.125977 32.126007 -32.125977l0 0c8.520325 0 16.691711 3.3846893 22.716492 9.409485c6.0247803 6.0247803 9.409485 14.196152 9.409485 22.716492l0 0c0 17.742691 -14.383301 32.12599 -32.125977 32.12599l0 0c-17.742706 0 -32.126007 -14.383301 -32.126007 -32.12599z" fill-rule="evenodd"/><path fill="#000000" d="m437.15427 244.60045l0 7.015625q1.765625 -2.078125 4.21875 -2.078125q1.265625 0 2.28125 0.46875q1.015625 0.46875 1.53125 1.203125q0.515625 0.734375 0.703125 1.625q0.1875 0.875 0.1875 2.734375l0 8.10936l-3.65625 0l0 -7.296875q0 -2.1718597 -0.21875 -2.7499847q-0.203125 -0.59375 -0.734375 -0.9375q-0.515625 -0.359375 -1.3125 -0.359375q-0.90625 0 -1.625 0.453125q-0.71875 0.4375 -1.046875 1.328125q-0.328125 0.890625 -0.328125 2.6406097l0 6.921875l-3.65625 0l0 -19.07811l3.65625 0z" fill-rule="nonzero"/><path fill="#000000" d="m456.85883 251.41295l0 2.265625l-8.546875 0q0.140625 -1.28125 0.828125 -2.421875q0.703125 -1.15625 2.75 -3.0625q1.65625 -1.53125 2.015625 -2.078125q0.515625 -0.75 0.515625 -1.5q0 -0.8125 -0.4375 -1.25q-0.4375 -0.4375 -1.21875 -0.4375q-0.765625 0 -1.21875 0.46875q-0.4375 0.453125 -0.515625 1.515625l-2.421875 -0.234375q0.21875 -2.015625 1.359375 -2.890625q1.140625 -0.875 2.859375 -0.875q1.875 0 2.953125 1.015625q1.078125 1.015625 1.078125 2.515625q0 0.859375 -0.3125 1.640625q-0.296875 0.78125 -0.96875 1.625q-0.4375 0.5625 -1.59375 1.625q-1.15625 1.0625 -1.46875 1.40625q-0.296875 0.34375 -0.5 0.671875l4.84375 0z" fill-rule="nonzero"/><path fill="#000000" fill-opacity="0.0" d="m549.2 318.32748l0 -60.031525" fill-rule="evenodd"/><path stroke="#000000" stroke-width="3.0" stroke-linejoin="round" stroke-linecap="butt" d="m549.2 318.32745l0 -42.031494" fill-rule="evenodd"/><path fill="#000000" stroke="#000000" stroke-width="3.0" stroke-linecap="butt" d="m554.1552 276.29596l-4.9552 -13.614288l-4.9552 13.614288z" fill-rule="evenodd"/><path fill="#000000" fill-opacity="0.0" d="m517.0583 350.45346l0 0c0 -17.742706 14.39032 -32.125977 32.141724 -32.125977l0 0c8.524536 0 16.69989 3.384674 22.727661 9.409454c6.02771 6.024811 9.4140625 14.196167 9.4140625 22.716522l0 0c0 17.742676 -14.39032 32.125977 -32.141724 32.125977l0 0c-17.751404 0 -32.141724 -14.383301 -32.141724 -32.125977z" fill-rule="evenodd"/><path stroke="#000000" stroke-width="3.0" stroke-linejoin="round" stroke-linecap="butt" d="m517.0583 350.45346l0 0c0 -17.742706 14.39032 -32.125977 32.141724 -32.125977l0 0c8.524536 0 16.69989 3.384674 22.727661 9.409454c6.02771 6.024811 9.4140625 14.196167 9.4140625 22.716522l0 0c0 17.742676 -14.39032 32.125977 -32.141724 32.125977l0 0c-17.751404 0 -32.141724 -14.383301 -32.141724 -32.125977z" fill-rule="evenodd"/><path fill="#000000" d="m537.00366 360.05344l4.984375 -7.125l-4.78125 -6.703125l4.46875 0l2.453125 3.8125l2.578125 -3.8125l4.28125 0l-4.671875 6.546875l5.109375 7.28125l-4.484375 0l-2.8125 -4.28125l-2.84375 4.28125l-4.28125 0z" fill-rule="nonzero"/><path fill="#000000" d="m552.34424 346.67844l2.359375 -0.28125q0.109375 0.890625 0.59375 1.375q0.5 0.484375 1.203125 0.484375q0.765625 0 1.28125 -0.578125q0.515625 -0.578125 0.515625 -1.546875q0 -0.921875 -0.5 -1.453125q-0.5 -0.546875 -1.203125 -0.546875q-0.46875 0 -1.125 0.1875l0.265625 -1.984375q1.0 0.03125 1.515625 -0.421875q0.515625 -0.46875 0.515625 -1.21875q0 -0.640625 -0.390625 -1.015625q-0.375 -0.390625 -1.0 -0.390625q-0.625 0 -1.078125 0.4375q-0.4375 0.4375 -0.53125 1.265625l-2.25 -0.390625q0.234375 -1.140625 0.703125 -1.828125q0.484375 -0.703125 1.328125 -1.09375q0.84375 -0.390625 1.890625 -0.390625q1.796875 0 2.890625 1.140625q0.890625 0.9375 0.890625 2.125q0 1.671875 -1.828125 2.671875q1.09375 0.234375 1.734375 1.046875q0.65625 0.8125 0.65625 1.96875q0 1.671875 -1.21875 2.859375q-1.21875 1.171875 -3.046875 1.171875q-1.71875 0 -2.859375 -0.984375q-1.140625 -1.0 -1.3125 -2.609375z" fill-rule="nonzero"/><path fill="#000000" fill-opacity="0.0" d="m552.9304 254.75066l60.566956 -0.6614227" fill-rule="evenodd"/><path stroke="#000000" stroke-width="3.0" stroke-linejoin="round" stroke-linecap="butt" d="m552.9304 254.75066l42.567993 -0.464859" fill-rule="evenodd"/><path fill="#000000" stroke="#000000" stroke-width="3.0" stroke-linecap="butt" d="m595.55255 259.2407l13.559387 -5.1035614l-13.667603 -4.806244z" fill-rule="evenodd"/><path fill="#000000" fill-opacity="0.0" d="m481.9449 210.87665l116.44092 0l0 43.62204l-116.44092 0z" fill-rule="evenodd"/><path fill="#000000" d="m494.10114 239.07664l-0.828125 -13.359375l1.8125 0l0.3125 6.609375q0.03125 0.46875 0.09375 2.5625q0.015625 0.59375 0.015625 0.828125q0 0.15625 0 0.90625q1.109375 -2.28125 1.59375 -3.21875l4.0625 -7.6875l1.84375 0l0.4375 7.8125q0.078125 1.34375 0.109375 3.21875q0.15625 -0.453125 0.578125 -1.375q0.671875 -1.484375 0.984375 -2.125l3.8125 -7.53125l1.8125 0l-6.78125 13.359375l-1.921875 0l-0.4375 -8.09375q-0.078125 -1.03125 -0.109375 -2.546875q-0.546875 1.265625 -0.921875 1.96875l-4.640625 8.671875l-1.828125 0z" fill-rule="nonzero"/><path fill="#000000" d="m508.5379 232.07664l2.796875 -3.265625l-1.609375 -3.1875l1.21875 0l0.546875 1.15625q0.3125 0.640625 0.546875 1.234375l1.859375 -2.390625l1.34375 0l-2.703125 3.265625l1.625 3.1875l-1.21875 0l-0.640625 -1.3125q-0.203125 -0.421875 -0.46875 -1.03125l-1.921875 2.34375l-1.375 0zm6.640503 0l1.859375 -8.90625l1.109375 0l-0.71875 3.421875q0.609375 -0.59375 1.140625 -0.84375q0.53125 -0.265625 1.09375 -0.265625q0.796875 0 1.234375 0.421875q0.453125 0.421875 0.453125 1.109375q0 0.34375 -0.203125 1.25l-0.78125 3.8125l-1.109375 0l0.828125 -3.90625q0.171875 -0.84375 0.171875 -1.0625q0 -0.328125 -0.21875 -0.515625q-0.21875 -0.203125 -0.625 -0.203125q-0.609375 0 -1.15625 0.3125q-0.53125 0.3125 -0.84375 0.859375q-0.296875 0.53125 -0.546875 1.75l-0.578125 2.765625l-1.109375 0z" fill-rule="nonzero"/><path fill="#000000" d="m522.70483 239.07664l0.390625 -1.875l1.875 0l-0.34375 1.640625q-0.3125 1.46875 -0.96875 2.140625q-0.640625 0.6875 -1.515625 0.796875l0.140625 -0.71875q1.09375 -0.3125 1.4375 -1.984375l-1.015625 0zm7.3239136 0l-0.828125 -13.359375l1.8125 0l0.3125 6.609375q0.03125 0.46875 0.09375 2.5625q0.015625 0.59375 0.015625 0.828125q0 0.15625 0 0.90625q1.109375 -2.28125 1.59375 -3.21875l4.0625 -7.6875l1.84375 0l0.4375 7.8125q0.078125 1.34375 0.109375 3.21875q0.15625 -0.453125 0.578125 -1.375q0.671875 -1.484375 0.984375 -2.125l3.8125 -7.53125l1.8125 0l-6.78125 13.359375l-1.921875 0l-0.4375 -8.09375q-0.078125 -1.03125 -0.109375 -2.546875q-0.546875 1.265625 -0.921875 1.96875l-4.640625 8.671875l-1.828125 0z" fill-rule="nonzero"/><path fill="#000000" d="m544.9187 231.57664l2.0 -9.546875l1.171875 0l-0.765625 3.671875q0.65625 -0.640625 1.21875 -0.90625q0.578125 -0.28125 1.171875 -0.28125q0.859375 0 1.328125 0.453125q0.484375 0.453125 0.484375 1.1875q0 0.359375 -0.203125 1.34375l-0.859375 4.078125l-1.171875 0l0.875 -4.1875q0.1875 -0.90625 0.1875 -1.140625q0 -0.34375 -0.234375 -0.546875q-0.234375 -0.21875 -0.671875 -0.21875q-0.640625 0 -1.21875 0.34375q-0.578125 0.328125 -0.90625 0.90625q-0.328125 0.578125 -0.609375 1.875l-0.609375 2.96875l-1.1875 0zm7.4123535 0l2.0 -9.546875l1.171875 0l-0.765625 3.671875q0.65625 -0.640625 1.21875 -0.90625q0.578125 -0.28125 1.171875 -0.28125q0.859375 0 1.328125 0.453125q0.484375 0.453125 0.484375 1.1875q0 0.359375 -0.203125 1.34375l-0.859375 4.078125l-1.171875 0l0.875 -4.1875q0.1875 -0.90625 0.1875 -1.140625q0 -0.34375 -0.234375 -0.546875q-0.234375 -0.21875 -0.671875 -0.21875q-0.640625 0 -1.21875 0.34375q-0.578125 0.328125 -0.90625 0.90625q-0.328125 0.578125 -0.609375 1.875l-0.609375 2.96875l-1.1875 0z" fill-rule="nonzero"/><path fill="#000000" d="m560.38403 239.07664l0.421875 -2.0l2.015625 0l-0.359375 1.75q-0.328125 1.5625 -1.03125 2.296875q-0.703125 0.734375 -1.640625 0.84375l0.15625 -0.765625q1.171875 -0.328125 1.53125 -2.125l-1.09375 0z" fill-rule="nonzero"/><path fill="#000000" d="m566.17505 239.07664l0 -14.3125l2.75 0l0 5.15625q1.265625 -1.453125 3.015625 -1.453125q1.890625 0 3.125 1.375q1.25 1.375 1.25 3.9375q0 2.65625 -1.265625 4.09375q-1.265625 1.4375 -3.078125 1.4375q-0.890625 0 -1.75 -0.4375q-0.859375 -0.453125 -1.484375 -1.328125l0 1.53125l-2.5625 0zm2.734375 -5.40625q0 1.609375 0.5 2.375q0.71875 1.09375 1.90625 1.09375q0.90625 0 1.546875 -0.765625q0.640625 -0.78125 0.640625 -2.453125q0 -1.78125 -0.65625 -2.5625q-0.640625 -0.78125 -1.640625 -0.78125q-0.984375 0 -1.640625 0.765625q-0.65625 0.765625 -0.65625 2.328125z" fill-rule="nonzero"/><path fill="#000000" d="m579.8606 222.02977l0 3.515625q0.875 -1.03125 2.109375 -1.03125q0.640625 0 1.140625 0.234375q0.515625 0.234375 0.765625 0.59375q0.25 0.359375 0.34375 0.8125q0.109375 0.4375 0.109375 1.375l0 4.046875l-1.828125 0l0 -3.65625q0 -1.078125 -0.109375 -1.375q-0.109375 -0.296875 -0.375 -0.46875q-0.265625 -0.171875 -0.65625 -0.171875q-0.453125 0 -0.8125 0.234375q-0.359375 0.21875 -0.53125 0.671875q-0.15625 0.4375 -0.15625 1.296875l0 3.46875l-1.828125 0l0 -9.546875l1.828125 0z" fill-rule="nonzero"/><path fill="#000000" d="m545.4659 254.75066l0 0c0 -1.9569092 1.6710205 -3.5433044 3.7322998 -3.5433044l0 0c0.98986816 0 1.939148 0.37330627 2.6390991 1.0378113c0.6999512 0.66448975 1.0931396 1.5657501 1.0931396 2.5054932l0 0c0 1.9569244 -1.6709595 3.5433197 -3.7322388 3.5433197l0 0c-2.0612793 0 -3.7322998 -1.5863953 -3.7322998 -3.5433197z" fill-rule="evenodd"/><path stroke="#000000" stroke-width="1.0" stroke-linejoin="round" stroke-linecap="butt" d="m545.4659 254.75066l0 0c0 -1.9569092 1.6710205 -3.5433044 3.7322998 -3.5433044l0 0c0.98986816 0 1.939148 0.37330627 2.6390991 1.0378113c0.6999512 0.66448975 1.0931396 1.5657501 1.0931396 2.5054932l0 0c0 1.9569244 -1.6709595 3.5433197 -3.7322388 3.5433197l0 0c-2.0612793 0 -3.7322998 -1.5863953 -3.7322998 -3.5433197z" fill-rule="evenodd"/><path fill="#000000" fill-opacity="0.0" d="m476.79922 254.07857l68.66141 0.6614227" fill-rule="evenodd"/><path stroke="#000000" stroke-width="3.0" stroke-linejoin="round" stroke-linecap="butt" d="m476.79922 254.07858l50.6622 0.48802185" fill-rule="evenodd"/><path fill="#000000" stroke="#000000" stroke-width="3.0" stroke-linecap="butt" d="m527.41376 259.52158l13.661377 -4.823822l-13.565918 -5.0861206z" fill-rule="evenodd"/><path fill="#000000" fill-opacity="0.0" d="m826.1003 318.32748l0 -60.031525" fill-rule="evenodd"/><path stroke="#000000" stroke-width="3.0" stroke-linejoin="round" stroke-linecap="butt" d="m826.10034 318.32745l0 -42.031494" fill-rule="evenodd"/><path fill="#000000" stroke="#000000" stroke-width="3.0" stroke-linecap="butt" d="m831.0555 276.29596l-4.955139 -13.614288l-4.9552 13.614288z" fill-rule="evenodd"/><path fill="#000000" fill-opacity="0.0" d="m793.95856 350.45346l0 0c0 -17.742706 14.39032 -32.125977 32.141724 -32.125977l0 0c8.524536 0 16.69989 3.384674 22.727661 9.409454c6.02771 6.024811 9.4140625 14.196167 9.4140625 22.716522l0 0c0 17.742676 -14.39032 32.125977 -32.141724 32.125977l0 0c-17.751404 0 -32.141724 -14.383301 -32.141724 -32.125977z" fill-rule="evenodd"/><path stroke="#000000" stroke-width="3.0" stroke-linejoin="round" stroke-linecap="butt" d="m793.95856 350.45346l0 0c0 -17.742706 14.39032 -32.125977 32.141724 -32.125977l0 0c8.524536 0 16.69989 3.384674 22.727661 9.409454c6.02771 6.024811 9.4140625 14.196167 9.4140625 22.716522l0 0c0 17.742676 -14.39032 32.125977 -32.141724 32.125977l0 0c-17.751404 0 -32.141724 -14.383301 -32.141724 -32.125977z" fill-rule="evenodd"/><path fill="#000000" d="m813.41815 360.05344l4.984375 -7.125l-4.78125 -6.703125l4.46875 0l2.453125 3.8125l2.578125 -3.8125l4.28125 0l-4.671875 6.546875l5.109375 7.28125l-4.484375 0l-2.8125 -4.28125l-2.84375 4.28125l-4.28125 0z" fill-rule="nonzero"/><path fill="#000000" d="m837.7431 350.05344l-2.4375 0l0 -4.703125q0 -1.484375 -0.15625 -1.921875q-0.15625 -0.4375 -0.515625 -0.6875q-0.34375 -0.25 -0.84375 -0.25q-0.625 0 -1.140625 0.359375q-0.5 0.34375 -0.6875 0.921875q-0.171875 0.5625 -0.171875 2.109375l0 4.171875l-2.4375 0l0 -9.21875l2.25 0l0 1.359375q1.21875 -1.5625 3.046875 -1.5625q0.796875 0 1.46875 0.296875q0.671875 0.28125 1.015625 0.734375q0.34375 0.453125 0.46875 1.03125q0.140625 0.5625 0.140625 1.640625l0 5.71875z" fill-rule="nonzero"/><path fill="#000000" fill-opacity="0.0" d="m829.8307 254.75066l60.566956 -0.6614227" fill-rule="evenodd"/><path stroke="#000000" stroke-width="3.0" stroke-linejoin="round" stroke-linecap="butt" d="m829.8307 254.75066l42.567993 -0.464859" fill-rule="evenodd"/><path fill="#000000" stroke="#000000" stroke-width="3.0" stroke-linecap="butt" d="m872.4528 259.2407l13.559387 -5.1035614l-13.667603 -4.806244z" fill-rule="evenodd"/><path fill="#000000" fill-opacity="0.0" d="m758.84515 210.87665l116.44092 0l0 43.62204l-116.44092 0z" fill-rule="evenodd"/><path fill="#000000" d="m771.0014 239.07664l-0.828125 -13.359375l1.8125 0l0.3125 6.609375q0.03125 0.46875 0.09375 2.5625q0.015625 0.59375 0.015625 0.828125q0 0.15625 0 0.90625q1.109375 -2.28125 1.59375 -3.21875l4.0625 -7.6875l1.84375 0l0.4375 7.8125q0.078125 1.34375 0.109375 3.21875q0.15625 -0.453125 0.578125 -1.375q0.671875 -1.484375 0.984375 -2.125l3.8125 -7.53125l1.8125 0l-6.78125 13.359375l-1.921875 0l-0.4375 -8.09375q-0.078125 -1.03125 -0.109375 -2.546875q-0.546875 1.265625 -0.921875 1.96875l-4.640625 8.671875l-1.828125 0z" fill-rule="nonzero"/><path fill="#000000" d="m785.4382 232.07664l2.796875 -3.265625l-1.609375 -3.1875l1.21875 0l0.546875 1.15625q0.3125 0.640625 0.546875 1.234375l1.859375 -2.390625l1.34375 0l-2.703125 3.265625l1.625 3.1875l-1.21875 0l-0.640625 -1.3125q-0.203125 -0.421875 -0.46875 -1.03125l-1.921875 2.34375l-1.375 0zm6.640503 0l1.859375 -8.90625l1.109375 0l-0.71875 3.421875q0.609375 -0.59375 1.140625 -0.84375q0.53125 -0.265625 1.09375 -0.265625q0.796875 0 1.234375 0.421875q0.453125 0.421875 0.453125 1.109375q0 0.34375 -0.203125 1.25l-0.78125 3.8125l-1.109375 0l0.828125 -3.90625q0.171875 -0.84375 0.171875 -1.0625q0 -0.328125 -0.21875 -0.515625q-0.21875 -0.203125 -0.625 -0.203125q-0.609375 0 -1.15625 0.3125q-0.53125 0.3125 -0.84375 0.859375q-0.296875 0.53125 -0.546875 1.75l-0.578125 2.765625l-1.109375 0z" fill-rule="nonzero"/><path fill="#000000" d="m799.6051 239.07664l0.390625 -1.875l1.875 0l-0.34375 1.640625q-0.3125 1.46875 -0.96875 2.140625q-0.640625 0.6875 -1.515625 0.796875l0.140625 -0.71875q1.09375 -0.3125 1.4375 -1.984375l-1.015625 0zm7.3239136 0l-0.828125 -13.359375l1.8125 0l0.3125 6.609375q0.03125 0.46875 0.09375 2.5625q0.015625 0.59375 0.015625 0.828125q0 0.15625 0 0.90625q1.109375 -2.28125 1.59375 -3.21875l4.0625 -7.6875l1.84375 0l0.4375 7.8125q0.078125 1.34375 0.109375 3.21875q0.15625 -0.453125 0.578125 -1.375q0.671875 -1.484375 0.984375 -2.125l3.8125 -7.53125l1.8125 0l-6.78125 13.359375l-1.921875 0l-0.4375 -8.09375q-0.078125 -1.03125 -0.109375 -2.546875q-0.546875 1.265625 -0.921875 1.96875l-4.640625 8.671875l-1.828125 0z" fill-rule="nonzero"/><path fill="#000000" d="m821.819 231.57664l2.0 -9.546875l1.171875 0l-0.765625 3.671875q0.65625 -0.640625 1.21875 -0.90625q0.578125 -0.28125 1.171875 -0.28125q0.859375 0 1.328125 0.453125q0.484375 0.453125 0.484375 1.1875q0 0.359375 -0.203125 1.34375l-0.859375 4.078125l-1.171875 0l0.875 -4.1875q0.1875 -0.90625 0.1875 -1.140625q0 -0.34375 -0.234375 -0.546875q-0.234375 -0.21875 -0.671875 -0.21875q-0.640625 0 -1.21875 0.34375q-0.578125 0.328125 -0.90625 0.90625q-0.328125 0.578125 -0.609375 1.875l-0.609375 2.96875l-1.1875 0zm7.4123535 0l2.0 -9.546875l1.171875 0l-0.765625 3.671875q0.65625 -0.640625 1.21875 -0.90625q0.578125 -0.28125 1.171875 -0.28125q0.859375 0 1.328125 0.453125q0.484375 0.453125 0.484375 1.1875q0 0.359375 -0.203125 1.34375l-0.859375 4.078125l-1.171875 0l0.875 -4.1875q0.1875 -0.90625 0.1875 -1.140625q0 -0.34375 -0.234375 -0.546875q-0.234375 -0.21875 -0.671875 -0.21875q-0.640625 0 -1.21875 0.34375q-0.578125 0.328125 -0.90625 0.90625q-0.328125 0.578125 -0.609375 1.875l-0.609375 2.96875l-1.1875 0z" fill-rule="nonzero"/><path fill="#000000" d="m837.2843 239.07664l0.421875 -2.0l2.015625 0l-0.359375 1.75q-0.328125 1.5625 -1.03125 2.296875q-0.703125 0.734375 -1.640625 0.84375l0.15625 -0.765625q1.171875 -0.328125 1.53125 -2.125l-1.09375 0z" fill-rule="nonzero"/><path fill="#000000" d="m843.0753 239.07664l0 -14.3125l2.75 0l0 5.15625q1.265625 -1.453125 3.015625 -1.453125q1.890625 0 3.125 1.375q1.25 1.375 1.25 3.9375q0 2.65625 -1.265625 4.09375q-1.265625 1.4375 -3.078125 1.4375q-0.890625 0 -1.75 -0.4375q-0.859375 -0.453125 -1.484375 -1.328125l0 1.53125l-2.5625 0zm2.734375 -5.40625q0 1.609375 0.5 2.375q0.71875 1.09375 1.90625 1.09375q0.90625 0 1.546875 -0.765625q0.640625 -0.78125 0.640625 -2.453125q0 -1.78125 -0.65625 -2.5625q-0.640625 -0.78125 -1.640625 -0.78125q-0.984375 0 -1.640625 0.765625q-0.65625 0.765625 -0.65625 2.328125z" fill-rule="nonzero"/><path fill="#000000" d="m856.76086 222.02977l0 3.515625q0.875 -1.03125 2.109375 -1.03125q0.640625 0 1.140625 0.234375q0.515625 0.234375 0.765625 0.59375q0.25 0.359375 0.34375 0.8125q0.109375 0.4375 0.109375 1.375l0 4.046875l-1.828125 0l0 -3.65625q0 -1.078125 -0.109375 -1.375q-0.109375 -0.296875 -0.375 -0.46875q-0.265625 -0.171875 -0.65625 -0.171875q-0.453125 0 -0.8125 0.234375q-0.359375 0.21875 -0.53125 0.671875q-0.15625 0.4375 -0.15625 1.296875l0 3.46875l-1.828125 0l0 -9.546875l1.828125 0z" fill-rule="nonzero"/><path fill="#000000" d="m822.36615 254.75066l0 0c0 -1.9569092 1.6710205 -3.5433044 3.7322998 -3.5433044l0 0c0.98986816 0 1.939148 0.37330627 2.6390991 1.0378113c0.6999512 0.66448975 1.0931396 1.5657501 1.0931396 2.5054932l0 0c0 1.9569244 -1.6709595 3.5433197 -3.7322388 3.5433197l0 0c-2.0612793 0 -3.7322998 -1.5863953 -3.7322998 -3.5433197z" fill-rule="evenodd"/><path stroke="#000000" stroke-width="1.0" stroke-linejoin="round" stroke-linecap="butt" d="m822.36615 254.75066l0 0c0 -1.9569092 1.6710205 -3.5433044 3.7322998 -3.5433044l0 0c0.98986816 0 1.939148 0.37330627 2.6390991 1.0378113c0.6999512 0.66448975 1.0931396 1.5657501 1.0931396 2.5054932l0 0c0 1.9569244 -1.6709595 3.5433197 -3.7322388 3.5433197l0 0c-2.0612793 0 -3.7322998 -1.5863953 -3.7322998 -3.5433197z" fill-rule="evenodd"/><path fill="#000000" fill-opacity="0.0" d="m677.7493 254.07857l144.62994 0.6614227" fill-rule="evenodd"/><path stroke="#000000" stroke-width="3.0" stroke-linejoin="round" stroke-linecap="butt" stroke-dasharray="3.0,9.0" d="m677.7493 254.07858l126.63013 0.57910156" fill-rule="evenodd"/><path fill="#000000" stroke="#000000" stroke-width="3.0" stroke-linecap="butt" d="m804.3568 259.61282l13.63678 -4.8928833l-13.591492 -5.0174103z" fill-rule="evenodd"/><path fill="#000000" fill-opacity="0.0" d="m613.4974 254.07857l0 0c0 -17.742691 14.383301 -32.125977 32.125977 -32.125977l0 0c8.520325 0 16.691711 3.3846893 22.716492 9.409485c6.0248413 6.0247803 9.409485 14.196152 9.409485 22.716492l0 0c0 17.742691 -14.383301 32.12599 -32.125977 32.12599l0 0c-17.742676 0 -32.125977 -14.383301 -32.125977 -32.12599z" fill-rule="evenodd"/><path stroke="#000000" stroke-width="3.0" stroke-linejoin="round" stroke-linecap="butt" d="m613.4974 254.07857l0 0c0 -17.742691 14.383301 -32.125977 32.125977 -32.125977l0 0c8.520325 0 16.691711 3.3846893 22.716492 9.409485c6.0248413 6.0247803 9.409485 14.196152 9.409485 22.716492l0 0c0 17.742691 -14.383301 32.12599 -32.125977 32.12599l0 0c-17.742676 0 -32.125977 -14.383301 -32.125977 -32.12599z" fill-rule="evenodd"/><path fill="#000000" d="m638.1044 244.60045l0 7.015625q1.765625 -2.078125 4.21875 -2.078125q1.265625 0 2.28125 0.46875q1.015625 0.46875 1.53125 1.203125q0.515625 0.734375 0.703125 1.625q0.1875 0.875 0.1875 2.734375l0 8.10936l-3.65625 0l0 -7.296875q0 -2.1718597 -0.21875 -2.7499847q-0.203125 -0.59375 -0.734375 -0.9375q-0.515625 -0.359375 -1.3125 -0.359375q-0.90625 0 -1.625 0.453125q-0.71875 0.4375 -1.046875 1.328125q-0.328125 0.890625 -0.328125 2.6406097l0 6.921875l-3.65625 0l0 -19.07811l3.65625 0z" fill-rule="nonzero"/><path fill="#000000" d="m649.49646 250.30357l2.359375 -0.28125q0.109375 0.890625 0.59375 1.375q0.5 0.484375 1.203125 0.484375q0.765625 0 1.28125 -0.578125q0.515625 -0.578125 0.515625 -1.546875q0 -0.921875 -0.5 -1.453125q-0.5 -0.546875 -1.203125 -0.546875q-0.46875 0 -1.125 0.1875l0.265625 -1.984375q1.0 0.03125 1.515625 -0.421875q0.515625 -0.46875 0.515625 -1.21875q0 -0.640625 -0.390625 -1.015625q-0.375 -0.390625 -1.0 -0.390625q-0.625 0 -1.078125 0.4375q-0.4375 0.4375 -0.53125 1.265625l-2.25 -0.390625q0.234375 -1.140625 0.703125 -1.828125q0.484375 -0.703125 1.328125 -1.09375q0.84375 -0.390625 1.890625 -0.390625q1.796875 0 2.890625 1.140625q0.890625 0.9375 0.890625 2.125q0 1.671875 -1.828125 2.671875q1.09375 0.234375 1.734375 1.046875q0.65625 0.8125 0.65625 1.96875q0 1.671875 -1.21875 2.859375q-1.21875 1.171875 -3.046875 1.171875q-1.71875 0 -2.859375 -0.984375q-1.140625 -1.0 -1.3125 -2.609375z" fill-rule="nonzero"/><path fill="#000000" fill-opacity="0.0" d="m922.5302 221.9539l0 -62.48819" fill-rule="evenodd"/><path stroke="#000000" stroke-width="3.0" stroke-linejoin="round" stroke-linecap="butt" d="m922.5302 221.9539l0 -44.488205" fill-rule="evenodd"/><path fill="#000000" stroke="#000000" stroke-width="3.0" stroke-linecap="butt" d="m927.48535 177.4657l-4.955139 -13.614288l-4.9552 13.614288z" fill-rule="evenodd"/><path fill="#000000" fill-opacity="0.0" d="m783.0 18.708876l0 0c0 -5.9143486 4.7945557 -10.708876 10.708862 -10.708876l42.83423 0l0 0c2.840149 0 5.564026 1.128253 7.5723267 3.1365566c2.0083008 2.0083046 3.1365356 4.732148 3.1365356 7.572319l0 42.83422c0 5.9143486 -4.7944946 10.708874 -10.708862 10.708874l-42.83423 0c-5.9143066 0 -10.708862 -4.794525 -10.708862 -10.708874z" fill-rule="evenodd"/><path stroke="#ff9900" stroke-width="3.0" stroke-linejoin="round" stroke-linecap="butt" d="m783.0 18.708876l0 0c0 -5.9143486 4.7945557 -10.708876 10.708862 -10.708876l42.83423 0l0 0c2.840149 0 5.564026 1.128253 7.5723267 3.1365566c2.0083008 2.0083046 3.1365356 4.732148 3.1365356 7.572319l0 42.83422c0 5.9143486 -4.7944946 10.708874 -10.708862 10.708874l-42.83423 0c-5.9143066 0 -10.708862 -4.794525 -10.708862 -10.708874z" fill-rule="evenodd"/><path fill="#ff9900" d="m809.0315 49.725986l0 -18.921877l3.84375 0l0 15.703127l9.578125 0l0 3.21875l-13.421875 0z" fill-rule="nonzero"/><path fill="#000000" fill-opacity="0.0" d="m922.5307 95.20182c0 -27.543304 -37.637756 -55.086613 -75.27557 -55.086613" fill-rule="evenodd"/><path stroke="#000000" stroke-width="3.0" stroke-linejoin="round" stroke-linecap="butt" d="m922.53076 95.20182c0 -13.771652 -9.409424 -27.543312 -23.52362 -37.87205c-7.057068 -5.1643677 -15.290344 -9.46801 -24.111694 -12.48056c-2.2053223 -0.7531357 -4.4474487 -1.4255791 -6.717163 -2.0106049c-0.5673828 -0.1462555 -1.1365356 -0.28704834 -1.7072144 -0.42227173c-0.2854004 -0.06761551 -0.57110596 -0.13383484 -0.85723877 -0.19865036l-0.4699707 -0.10400009" fill-rule="evenodd"/><path fill="#000000" stroke="#000000" stroke-width="3.0" stroke-linecap="butt" d="m865.69403 37.18912l-14.080261 3.4130135l12.97998 6.4361115z" fill-rule="evenodd"/></g></svg>